G75*
%MOIN*%
%OFA0B0*%
%FSLAX25Y25*%
%IPPOS*%
%LPD*%
%AMOC8*
5,1,8,0,0,1.08239X$1,22.5*
%
%ADD10C,0.05600*%
%ADD11R,0.06400X0.06400*%
%ADD12C,0.07400*%
%ADD13OC8,0.06400*%
%ADD14C,0.06400*%
%ADD15R,0.07400X0.07400*%
%ADD16C,0.02000*%
%ADD17C,0.01000*%
%ADD18C,0.04000*%
D10*
X0043200Y0061000D02*
X0048800Y0061000D01*
X0048800Y0071000D02*
X0043200Y0071000D01*
X0043200Y0081000D02*
X0048800Y0081000D01*
X0048800Y0091000D02*
X0043200Y0091000D01*
X0043200Y0101000D02*
X0048800Y0101000D01*
X0048800Y0111000D02*
X0043200Y0111000D01*
X0043200Y0121000D02*
X0048800Y0121000D01*
X0048800Y0131000D02*
X0043200Y0131000D01*
X0043200Y0141000D02*
X0048800Y0141000D01*
X0073200Y0141000D02*
X0078800Y0141000D01*
X0078800Y0131000D02*
X0073200Y0131000D01*
X0073200Y0121000D02*
X0078800Y0121000D01*
X0078800Y0111000D02*
X0073200Y0111000D01*
X0073200Y0101000D02*
X0078800Y0101000D01*
X0078800Y0091000D02*
X0073200Y0091000D01*
X0073200Y0081000D02*
X0078800Y0081000D01*
X0078800Y0071000D02*
X0073200Y0071000D01*
X0073200Y0061000D02*
X0078800Y0061000D01*
X0283200Y0048500D02*
X0288800Y0048500D01*
X0303200Y0048500D02*
X0308800Y0048500D01*
X0298800Y0058500D02*
X0293200Y0058500D01*
X0328200Y0048500D02*
X0333800Y0048500D01*
X0348200Y0048500D02*
X0353800Y0048500D01*
X0343800Y0058500D02*
X0338200Y0058500D01*
X0341000Y0080700D02*
X0341000Y0086300D01*
X0351000Y0086300D02*
X0351000Y0080700D01*
X0331000Y0080700D02*
X0331000Y0086300D01*
X0321000Y0086300D02*
X0321000Y0080700D01*
X0311000Y0080700D02*
X0311000Y0086300D01*
X0301000Y0086300D02*
X0301000Y0080700D01*
X0291000Y0080700D02*
X0291000Y0086300D01*
X0291000Y0110700D02*
X0291000Y0116300D01*
X0301000Y0116300D02*
X0301000Y0110700D01*
X0311000Y0110700D02*
X0311000Y0116300D01*
X0321000Y0116300D02*
X0321000Y0110700D01*
X0331000Y0110700D02*
X0331000Y0116300D01*
X0341000Y0116300D02*
X0341000Y0110700D01*
X0351000Y0110700D02*
X0351000Y0116300D01*
X0343800Y0141000D02*
X0338200Y0141000D01*
X0333800Y0151000D02*
X0328200Y0151000D01*
X0308800Y0151000D02*
X0303200Y0151000D01*
X0288800Y0151000D02*
X0283200Y0151000D01*
X0293200Y0141000D02*
X0298800Y0141000D01*
X0348200Y0151000D02*
X0353800Y0151000D01*
D11*
X0361000Y0178500D03*
X0371000Y0178500D03*
X0301000Y0178500D03*
X0291000Y0178500D03*
X0106000Y0178500D03*
X0096000Y0178500D03*
X0081000Y0178500D03*
X0071000Y0178500D03*
X0056000Y0178500D03*
X0046000Y0178500D03*
X0021000Y0161000D03*
X0021000Y0151000D03*
X0021000Y0136000D03*
X0021000Y0126000D03*
X0021000Y0078500D03*
X0021000Y0068500D03*
X0021000Y0053500D03*
X0021000Y0043500D03*
X0046000Y0021000D03*
X0056000Y0021000D03*
X0071000Y0021000D03*
X0081000Y0021000D03*
X0096000Y0021000D03*
X0106000Y0021000D03*
X0291000Y0021000D03*
X0301000Y0021000D03*
X0361000Y0021000D03*
X0371000Y0021000D03*
D12*
X0346000Y0016000D03*
X0346000Y0026000D03*
X0316000Y0026000D03*
X0316000Y0016000D03*
X0276000Y0016000D03*
X0276000Y0026000D03*
X0276000Y0038500D03*
X0246000Y0038500D03*
X0246000Y0026000D03*
X0246000Y0016000D03*
X0216000Y0056000D03*
X0206000Y0056000D03*
X0196000Y0056000D03*
X0186000Y0056000D03*
X0176000Y0056000D03*
X0166000Y0056000D03*
X0156000Y0056000D03*
X0146000Y0056000D03*
X0136000Y0056000D03*
X0126000Y0056000D03*
X0136000Y0046000D03*
X0146000Y0046000D03*
X0156000Y0046000D03*
X0156000Y0071000D03*
X0166000Y0071000D03*
X0176000Y0071000D03*
X0186000Y0071000D03*
X0196000Y0071000D03*
X0206000Y0071000D03*
X0216000Y0071000D03*
X0226000Y0071000D03*
X0236000Y0071000D03*
X0246000Y0071000D03*
X0236000Y0081000D03*
X0216000Y0081000D03*
X0206000Y0081000D03*
X0196000Y0081000D03*
X0146000Y0071000D03*
X0136000Y0071000D03*
X0126000Y0071000D03*
X0116000Y0071000D03*
X0101000Y0071000D03*
X0101000Y0081000D03*
X0116000Y0081000D03*
X0116000Y0091000D03*
X0101000Y0091000D03*
X0101000Y0101000D03*
X0116000Y0101000D03*
X0116000Y0111000D03*
X0101000Y0111000D03*
X0101000Y0121000D03*
X0116000Y0121000D03*
X0116000Y0131000D03*
X0126000Y0131000D03*
X0136000Y0131000D03*
X0146000Y0131000D03*
X0156000Y0131000D03*
X0166000Y0131000D03*
X0176000Y0131000D03*
X0186000Y0131000D03*
X0196000Y0131000D03*
X0206000Y0131000D03*
X0216000Y0131000D03*
X0226000Y0131000D03*
X0236000Y0131000D03*
X0246000Y0131000D03*
X0216000Y0146000D03*
X0206000Y0146000D03*
X0196000Y0146000D03*
X0186000Y0146000D03*
X0176000Y0146000D03*
X0166000Y0146000D03*
X0156000Y0146000D03*
X0146000Y0146000D03*
X0136000Y0146000D03*
X0126000Y0146000D03*
X0136000Y0156000D03*
X0146000Y0156000D03*
X0156000Y0156000D03*
X0166000Y0156000D03*
X0176000Y0156000D03*
X0186000Y0156000D03*
X0196000Y0156000D03*
X0206000Y0156000D03*
X0246000Y0161000D03*
X0246000Y0173500D03*
X0246000Y0183500D03*
X0276000Y0183500D03*
X0276000Y0173500D03*
X0276000Y0161000D03*
X0316000Y0173500D03*
X0316000Y0183500D03*
X0346000Y0183500D03*
X0346000Y0173500D03*
X0366000Y0121000D03*
X0376000Y0106000D03*
X0366000Y0091000D03*
X0376000Y0076000D03*
X0101000Y0131000D03*
D13*
X0136000Y0178500D03*
X0146000Y0178500D03*
X0156000Y0178500D03*
X0166000Y0178500D03*
X0176000Y0178500D03*
X0186000Y0178500D03*
X0196000Y0178500D03*
X0206000Y0178500D03*
X0206000Y0188500D03*
X0196000Y0188500D03*
X0186000Y0188500D03*
X0176000Y0188500D03*
X0166000Y0188500D03*
X0156000Y0188500D03*
X0146000Y0188500D03*
X0136000Y0188500D03*
X0266000Y0126000D03*
X0266000Y0116000D03*
X0266000Y0106000D03*
X0266000Y0096000D03*
X0266000Y0086000D03*
X0266000Y0076000D03*
X0206000Y0021000D03*
X0196000Y0021000D03*
X0186000Y0021000D03*
X0176000Y0021000D03*
X0166000Y0021000D03*
X0156000Y0021000D03*
X0146000Y0021000D03*
X0136000Y0021000D03*
X0136000Y0011000D03*
X0146000Y0011000D03*
X0156000Y0011000D03*
X0166000Y0011000D03*
X0176000Y0011000D03*
X0186000Y0011000D03*
X0196000Y0011000D03*
X0206000Y0011000D03*
D14*
X0031000Y0097800D02*
X0031000Y0104200D01*
X0021000Y0104200D02*
X0021000Y0097800D01*
X0011000Y0097800D02*
X0011000Y0104200D01*
D15*
X0126000Y0046000D03*
D16*
X0046000Y0021000D02*
X0037000Y0030000D01*
X0037000Y0073500D01*
X0044500Y0081000D01*
X0046000Y0081000D01*
X0046000Y0061000D02*
X0056000Y0061000D01*
X0096000Y0021000D01*
X0246000Y0071000D02*
X0246000Y0085000D01*
X0266000Y0105000D01*
X0266000Y0106000D01*
X0265500Y0106500D01*
X0265500Y0107500D01*
X0253000Y0120000D01*
X0253000Y0133500D01*
X0208000Y0178500D01*
X0206000Y0178500D01*
X0206000Y0188500D02*
X0196000Y0188500D01*
X0186000Y0188500D01*
X0176000Y0188500D01*
X0166000Y0188500D01*
X0156000Y0188500D01*
X0146000Y0188500D01*
X0136000Y0188500D01*
X0121500Y0174000D01*
X0106500Y0189000D01*
X0045500Y0189000D01*
X0021500Y0165000D01*
X0021500Y0161500D01*
X0021000Y0161000D01*
X0020000Y0161000D01*
X0014500Y0155500D01*
X0014500Y0146500D01*
X0021000Y0140000D01*
X0021000Y0136000D01*
X0027500Y0124000D02*
X0027500Y0109500D01*
X0021000Y0103000D01*
X0021000Y0101000D01*
X0046000Y0121000D02*
X0047500Y0121000D01*
X0067000Y0140500D01*
X0067000Y0163500D01*
X0081000Y0177500D01*
X0081000Y0178500D01*
X0066500Y0185000D02*
X0100500Y0185000D01*
X0106000Y0179500D01*
X0106000Y0178500D01*
X0121500Y0174000D02*
X0088500Y0141000D01*
X0076000Y0141000D01*
X0063000Y0146500D02*
X0063000Y0181500D01*
X0066500Y0185000D01*
X0063000Y0146500D02*
X0047500Y0131000D01*
X0046000Y0131000D01*
X0044500Y0141000D02*
X0027500Y0124000D01*
X0044500Y0141000D02*
X0046000Y0141000D01*
X0206000Y0188500D02*
X0233500Y0161000D01*
X0246000Y0161000D01*
X0301000Y0178500D02*
X0313000Y0166500D01*
X0318500Y0166500D01*
X0325500Y0173500D01*
X0346000Y0173500D01*
X0321000Y0113500D02*
X0321000Y0112000D01*
X0313500Y0104500D01*
X0267500Y0104500D01*
X0266000Y0106000D01*
X0321000Y0083500D02*
X0321000Y0035500D01*
X0318500Y0033000D01*
X0302000Y0033000D01*
X0291000Y0022000D01*
X0291000Y0021000D01*
X0318500Y0033000D02*
X0325500Y0026000D01*
X0346000Y0026000D01*
D17*
X0351000Y0048500D02*
X0351000Y0083500D01*
X0342500Y0092000D01*
X0290500Y0092000D01*
X0263000Y0064500D01*
X0244000Y0064500D01*
X0225500Y0046000D01*
X0156000Y0046000D01*
X0154000Y0040500D02*
X0148500Y0046000D01*
X0146000Y0046000D01*
X0146000Y0038500D02*
X0138500Y0046000D01*
X0136000Y0046000D01*
X0128500Y0046000D02*
X0138000Y0036500D01*
X0235000Y0036500D01*
X0226000Y0038500D02*
X0246500Y0059000D01*
X0245000Y0062500D02*
X0270000Y0062500D01*
X0291000Y0083500D01*
X0310000Y0083500D02*
X0252500Y0026000D01*
X0246000Y0026000D01*
X0226000Y0038500D02*
X0146000Y0038500D01*
X0154000Y0040500D02*
X0223000Y0040500D01*
X0245000Y0062500D01*
X0310000Y0083500D02*
X0311000Y0083500D01*
X0311000Y0113500D02*
X0310000Y0113500D01*
X0250000Y0173500D01*
X0246000Y0173500D01*
X0206000Y0156000D02*
X0196500Y0165500D01*
X0125000Y0165500D01*
X0093500Y0134000D01*
X0093500Y0129500D01*
X0080500Y0116500D01*
X0072500Y0116500D01*
X0068500Y0112500D01*
X0068500Y0069500D01*
X0076000Y0062000D01*
X0076000Y0061000D01*
X0076000Y0071000D02*
X0076000Y0072000D01*
X0095500Y0091500D01*
X0095500Y0133000D01*
X0126000Y0163500D01*
X0188500Y0163500D01*
X0196000Y0156000D01*
X0166000Y0156000D02*
X0160500Y0161500D01*
X0134000Y0161500D01*
X0119000Y0146500D01*
X0126000Y0046000D02*
X0128500Y0046000D01*
X0331000Y0123500D02*
X0331000Y0151000D01*
X0341000Y0141000D02*
X0351000Y0131000D01*
X0351000Y0113500D01*
X0341000Y0113500D02*
X0331000Y0123500D01*
D18*
X0246500Y0059000D03*
X0235000Y0036500D03*
X0119000Y0146500D03*
M02*
