%
M48
M72
T01C0.02000
T02C0.03200
T03C0.03543
T04C0.04000
T05C0.09000
%
T01
X235000Y36500
X246500Y59000
X119000Y146500
T02
X76000Y141000
X76000Y131000
X76000Y121000
X76000Y111000
X76000Y101000
X76000Y91000
X76000Y81000
X76000Y71000
X76000Y61000
X46000Y61000
X46000Y71000
X46000Y81000
X46000Y91000
X46000Y101000
X46000Y111000
X46000Y121000
X46000Y131000
X46000Y141000
X286000Y151000
X296000Y141000
X306000Y151000
X331000Y151000
X341000Y141000
X351000Y151000
X351000Y113500
X341000Y113500
X331000Y113500
X321000Y113500
X311000Y113500
X301000Y113500
X291000Y113500
X291000Y83500
X301000Y83500
X311000Y83500
X321000Y83500
X331000Y83500
X341000Y83500
X351000Y83500
X341000Y58500
X331000Y48500
X351000Y48500
X306000Y48500
X296000Y58500
X286000Y48500
T03
X276000Y38500
X276000Y26000
X276000Y16000
X246000Y16000
X246000Y26000
X246000Y38500
X316000Y26000
X316000Y16000
X346000Y16000
X346000Y26000
X376000Y76000
X366000Y91000
X376000Y106000
X366000Y121000
X276000Y161000
X276000Y173500
X276000Y183500
X246000Y183500
X246000Y173500
X246000Y161000
X316000Y173500
X316000Y183500
X346000Y183500
X346000Y173500
T04
X361000Y178500
X371000Y178500
X301000Y178500
X291000Y178500
X216000Y146000
X206000Y146000
X196000Y146000
X186000Y146000
X176000Y146000
X166000Y146000
X156000Y146000
X146000Y146000
X136000Y146000
X126000Y146000
X136000Y156000
X146000Y156000
X156000Y156000
X166000Y156000
X176000Y156000
X186000Y156000
X196000Y156000
X206000Y156000
X206000Y178500
X196000Y178500
X186000Y178500
X176000Y178500
X166000Y178500
X156000Y178500
X146000Y178500
X136000Y178500
X136000Y188500
X146000Y188500
X156000Y188500
X166000Y188500
X176000Y188500
X186000Y188500
X196000Y188500
X206000Y188500
X106000Y178500
X96000Y178500
X81000Y178500
X71000Y178500
X56000Y178500
X46000Y178500
X21000Y161000
X21000Y151000
X21000Y136000
X21000Y126000
X21000Y101000
X11000Y101000
X31000Y101000
X21000Y78500
X21000Y68500
X21000Y53500
X21000Y43500
X46000Y21000
X56000Y21000
X71000Y21000
X81000Y21000
X96000Y21000
X106000Y21000
X136000Y21000
X146000Y21000
X156000Y21000
X166000Y21000
X176000Y21000
X186000Y21000
X196000Y21000
X206000Y21000
X206000Y11000
X196000Y11000
X186000Y11000
X176000Y11000
X166000Y11000
X156000Y11000
X146000Y11000
X136000Y11000
X136000Y46000
X146000Y46000
X156000Y46000
X156000Y56000
X166000Y56000
X176000Y56000
X186000Y56000
X196000Y56000
X206000Y56000
X216000Y56000
X216000Y71000
X206000Y71000
X196000Y71000
X186000Y71000
X176000Y71000
X166000Y71000
X156000Y71000
X146000Y71000
X136000Y71000
X126000Y71000
X116000Y71000
X101000Y71000
X101000Y81000
X116000Y81000
X116000Y91000
X101000Y91000
X101000Y101000
X116000Y101000
X116000Y111000
X101000Y111000
X101000Y121000
X116000Y121000
X116000Y131000
X126000Y131000
X136000Y131000
X146000Y131000
X156000Y131000
X166000Y131000
X176000Y131000
X186000Y131000
X196000Y131000
X206000Y131000
X216000Y131000
X226000Y131000
X236000Y131000
X246000Y131000
X266000Y126000
X266000Y116000
X266000Y106000
X266000Y96000
X266000Y86000
X266000Y76000
X246000Y71000
X236000Y71000
X226000Y71000
X216000Y81000
X206000Y81000
X196000Y81000
X236000Y81000
X146000Y56000
X136000Y56000
X126000Y56000
X126000Y46000
X101000Y131000
X291000Y21000
X301000Y21000
X361000Y21000
X371000Y21000
T05
X16000Y22000
X16000Y180000
X370000Y140000
X370000Y62000
M30
