G75*
%MOIN*%
%OFA0B0*%
%FSLAX25Y25*%
%IPPOS*%
%LPD*%
%AMOC8*
5,1,8,0,0,1.08239X$1,22.5*
%
%ADD10C,0.00400*%
%ADD11C,0.00600*%
%ADD12C,0.00800*%
%ADD13C,0.00300*%
%ADD14C,0.01200*%
%ADD15C,0.00500*%
D10*
X0041200Y0004167D02*
X0041667Y0003700D01*
X0042601Y0003700D01*
X0043068Y0004167D01*
X0043068Y0005101D01*
X0042134Y0005101D01*
X0041200Y0006035D02*
X0041200Y0004167D01*
X0041200Y0006035D02*
X0041667Y0006502D01*
X0042601Y0006502D01*
X0043068Y0006035D01*
X0044147Y0006502D02*
X0046015Y0003700D01*
X0046015Y0006502D01*
X0047093Y0006502D02*
X0048494Y0006502D01*
X0048961Y0006035D01*
X0048961Y0004167D01*
X0048494Y0003700D01*
X0047093Y0003700D01*
X0047093Y0006502D01*
X0044147Y0006502D02*
X0044147Y0003700D01*
X0066200Y0004167D02*
X0066667Y0003700D01*
X0067601Y0003700D01*
X0068068Y0004167D01*
X0068068Y0005101D01*
X0067134Y0005101D01*
X0066200Y0006035D02*
X0066200Y0004167D01*
X0066200Y0006035D02*
X0066667Y0006502D01*
X0067601Y0006502D01*
X0068068Y0006035D01*
X0069147Y0006502D02*
X0071015Y0003700D01*
X0071015Y0006502D01*
X0072093Y0006502D02*
X0073494Y0006502D01*
X0073961Y0006035D01*
X0073961Y0004167D01*
X0073494Y0003700D01*
X0072093Y0003700D01*
X0072093Y0006502D01*
X0069147Y0006502D02*
X0069147Y0003700D01*
X0091200Y0004167D02*
X0091667Y0003700D01*
X0092601Y0003700D01*
X0093068Y0004167D01*
X0093068Y0005101D01*
X0092134Y0005101D01*
X0091200Y0006035D02*
X0091200Y0004167D01*
X0091200Y0006035D02*
X0091667Y0006502D01*
X0092601Y0006502D01*
X0093068Y0006035D01*
X0094147Y0006502D02*
X0096015Y0003700D01*
X0096015Y0006502D01*
X0097093Y0006502D02*
X0098494Y0006502D01*
X0098961Y0006035D01*
X0098961Y0004167D01*
X0098494Y0003700D01*
X0097093Y0003700D01*
X0097093Y0006502D01*
X0094147Y0006502D02*
X0094147Y0003700D01*
X0125498Y0031667D02*
X0125965Y0031200D01*
X0127833Y0031200D01*
X0128300Y0031667D01*
X0128300Y0032601D01*
X0127833Y0033068D01*
X0125965Y0033068D01*
X0125498Y0032601D01*
X0125498Y0031667D01*
X0126432Y0034147D02*
X0125498Y0035081D01*
X0126432Y0036015D01*
X0128300Y0036015D01*
X0128300Y0037093D02*
X0126432Y0037093D01*
X0125498Y0038027D01*
X0126432Y0038961D01*
X0128300Y0038961D01*
X0126899Y0038961D02*
X0126899Y0037093D01*
X0126899Y0036015D02*
X0126899Y0034147D01*
X0126432Y0034147D02*
X0128300Y0034147D01*
X0135498Y0035081D02*
X0136432Y0036015D01*
X0138300Y0036015D01*
X0138300Y0037093D02*
X0138300Y0038494D01*
X0137833Y0038961D01*
X0137366Y0038961D01*
X0136899Y0038494D01*
X0136899Y0037093D01*
X0136899Y0036015D02*
X0136899Y0034147D01*
X0136432Y0034147D02*
X0135498Y0035081D01*
X0136432Y0034147D02*
X0138300Y0034147D01*
X0137833Y0033068D02*
X0135965Y0033068D01*
X0135498Y0032601D01*
X0135498Y0031667D01*
X0135965Y0031200D01*
X0137833Y0031200D01*
X0138300Y0031667D01*
X0138300Y0032601D01*
X0137833Y0033068D01*
X0138300Y0037093D02*
X0135498Y0037093D01*
X0135498Y0038494D01*
X0135965Y0038961D01*
X0136432Y0038961D01*
X0136899Y0038494D01*
X0145498Y0038494D02*
X0145498Y0037560D01*
X0145965Y0037093D01*
X0147833Y0037093D01*
X0148300Y0037560D01*
X0148300Y0038494D01*
X0147833Y0038961D01*
X0145965Y0038961D02*
X0145498Y0038494D01*
X0146432Y0036015D02*
X0148300Y0036015D01*
X0146899Y0036015D02*
X0146899Y0034147D01*
X0146432Y0034147D02*
X0145498Y0035081D01*
X0146432Y0036015D01*
X0146432Y0034147D02*
X0148300Y0034147D01*
X0147833Y0033068D02*
X0145965Y0033068D01*
X0145498Y0032601D01*
X0145498Y0031667D01*
X0145965Y0031200D01*
X0147833Y0031200D01*
X0148300Y0031667D01*
X0148300Y0032601D01*
X0147833Y0033068D01*
X0155498Y0032601D02*
X0155498Y0031667D01*
X0155965Y0031200D01*
X0157833Y0031200D01*
X0158300Y0031667D01*
X0158300Y0032601D01*
X0157833Y0033068D01*
X0155965Y0033068D01*
X0155498Y0032601D01*
X0156432Y0034147D02*
X0155498Y0035081D01*
X0156432Y0036015D01*
X0158300Y0036015D01*
X0158300Y0037093D02*
X0158300Y0038494D01*
X0157833Y0038961D01*
X0155965Y0038961D01*
X0155498Y0038494D01*
X0155498Y0037093D01*
X0158300Y0037093D01*
X0156899Y0036015D02*
X0156899Y0034147D01*
X0156432Y0034147D02*
X0158300Y0034147D01*
X0163700Y0046200D02*
X0163700Y0048068D01*
X0164634Y0049002D01*
X0165568Y0048068D01*
X0165568Y0046200D01*
X0165568Y0047601D02*
X0163700Y0047601D01*
X0166647Y0047601D02*
X0168048Y0049002D01*
X0168048Y0046200D01*
X0168515Y0047601D02*
X0166647Y0047601D01*
X0173700Y0047601D02*
X0175568Y0047601D01*
X0175568Y0048068D02*
X0175568Y0046200D01*
X0176647Y0046667D02*
X0177114Y0046200D01*
X0178048Y0046200D01*
X0178515Y0046667D01*
X0178515Y0047601D01*
X0178048Y0048068D01*
X0177581Y0048068D01*
X0176647Y0047601D01*
X0176647Y0049002D01*
X0178515Y0049002D01*
X0175568Y0048068D02*
X0174634Y0049002D01*
X0173700Y0048068D01*
X0173700Y0046200D01*
X0183700Y0046200D02*
X0183700Y0048068D01*
X0184634Y0049002D01*
X0185568Y0048068D01*
X0185568Y0046200D01*
X0186647Y0046667D02*
X0187114Y0046200D01*
X0188048Y0046200D01*
X0188515Y0046667D01*
X0188515Y0047134D01*
X0188048Y0047601D01*
X0186647Y0047601D01*
X0186647Y0046667D01*
X0186647Y0047601D02*
X0187581Y0048535D01*
X0188515Y0049002D01*
X0185568Y0047601D02*
X0183700Y0047601D01*
X0193700Y0047601D02*
X0195568Y0047601D01*
X0195568Y0048068D02*
X0195568Y0046200D01*
X0196647Y0046200D02*
X0196647Y0046667D01*
X0198515Y0048535D01*
X0198515Y0049002D01*
X0196647Y0049002D01*
X0195568Y0048068D02*
X0194634Y0049002D01*
X0193700Y0048068D01*
X0193700Y0046200D01*
X0203700Y0046200D02*
X0203700Y0048068D01*
X0204634Y0049002D01*
X0205568Y0048068D01*
X0205568Y0046200D01*
X0206647Y0046667D02*
X0206647Y0047134D01*
X0207114Y0047601D01*
X0208048Y0047601D01*
X0208515Y0047134D01*
X0208515Y0046667D01*
X0208048Y0046200D01*
X0207114Y0046200D01*
X0206647Y0046667D01*
X0207114Y0047601D02*
X0206647Y0048068D01*
X0206647Y0048535D01*
X0207114Y0049002D01*
X0208048Y0049002D01*
X0208515Y0048535D01*
X0208515Y0048068D01*
X0208048Y0047601D01*
X0205568Y0047601D02*
X0203700Y0047601D01*
X0213700Y0047601D02*
X0215568Y0047601D01*
X0215568Y0048068D02*
X0215568Y0046200D01*
X0216647Y0046667D02*
X0217114Y0046200D01*
X0218048Y0046200D01*
X0218515Y0046667D01*
X0218515Y0048535D01*
X0218048Y0049002D01*
X0217114Y0049002D01*
X0216647Y0048535D01*
X0216647Y0048068D01*
X0217114Y0047601D01*
X0218515Y0047601D01*
X0215568Y0048068D02*
X0214634Y0049002D01*
X0213700Y0048068D01*
X0213700Y0046200D01*
X0251200Y0046002D02*
X0251200Y0043200D01*
X0251200Y0044134D02*
X0252601Y0044134D01*
X0253068Y0044601D01*
X0253068Y0045535D01*
X0252601Y0046002D01*
X0251200Y0046002D01*
X0252134Y0044134D02*
X0253068Y0043200D01*
X0254147Y0042733D02*
X0256015Y0042733D01*
X0257093Y0043667D02*
X0257560Y0043200D01*
X0258494Y0043200D01*
X0258961Y0043667D01*
X0258961Y0045535D01*
X0258494Y0046002D01*
X0257560Y0046002D01*
X0257093Y0045535D01*
X0257093Y0043667D01*
X0260040Y0043200D02*
X0260040Y0045068D01*
X0260974Y0046002D01*
X0261908Y0045068D01*
X0261908Y0043200D01*
X0262986Y0043667D02*
X0263453Y0043200D01*
X0264387Y0043200D01*
X0264854Y0043667D01*
X0265933Y0042733D02*
X0267801Y0042733D01*
X0268879Y0043200D02*
X0268879Y0046002D01*
X0270747Y0046002D01*
X0271826Y0046002D02*
X0273227Y0046002D01*
X0273694Y0045535D01*
X0273694Y0045068D01*
X0273227Y0044601D01*
X0271826Y0044601D01*
X0273227Y0044601D02*
X0273694Y0044134D01*
X0273694Y0043667D01*
X0273227Y0043200D01*
X0271826Y0043200D01*
X0271826Y0046002D01*
X0269813Y0044601D02*
X0268879Y0044601D01*
X0264854Y0045535D02*
X0264387Y0046002D01*
X0263453Y0046002D01*
X0262986Y0045535D01*
X0262986Y0043667D01*
X0261908Y0044601D02*
X0260040Y0044601D01*
X0260048Y0040502D02*
X0259114Y0040502D01*
X0258647Y0040035D01*
X0258647Y0038167D01*
X0260515Y0040035D01*
X0260515Y0038167D01*
X0260048Y0037700D01*
X0259114Y0037700D01*
X0258647Y0038167D01*
X0257568Y0037700D02*
X0255700Y0037700D01*
X0256634Y0037700D02*
X0256634Y0040502D01*
X0255700Y0039568D01*
X0260048Y0040502D02*
X0260515Y0040035D01*
X0261593Y0040502D02*
X0261593Y0037700D01*
X0261593Y0038634D02*
X0262994Y0037700D01*
X0261593Y0038634D02*
X0262994Y0039568D01*
X0263453Y0033502D02*
X0262986Y0033035D01*
X0262986Y0031167D01*
X0263453Y0030700D01*
X0264387Y0030700D01*
X0264854Y0031167D01*
X0265933Y0030233D02*
X0267801Y0030233D01*
X0268879Y0030700D02*
X0269813Y0030700D01*
X0269346Y0030700D02*
X0269346Y0033502D01*
X0268879Y0033502D02*
X0269813Y0033502D01*
X0270843Y0033502D02*
X0272712Y0030700D01*
X0272712Y0033502D01*
X0273790Y0033035D02*
X0274257Y0033502D01*
X0275191Y0033502D01*
X0275658Y0033035D01*
X0275658Y0032568D01*
X0273790Y0030700D01*
X0275658Y0030700D01*
X0270843Y0030700D02*
X0270843Y0033502D01*
X0264854Y0033035D02*
X0264387Y0033502D01*
X0263453Y0033502D01*
X0261908Y0032568D02*
X0261908Y0030700D01*
X0261908Y0032101D02*
X0260040Y0032101D01*
X0260040Y0032568D02*
X0260974Y0033502D01*
X0261908Y0032568D01*
X0260040Y0032568D02*
X0260040Y0030700D01*
X0258961Y0031167D02*
X0258961Y0033035D01*
X0258494Y0033502D01*
X0257560Y0033502D01*
X0257093Y0033035D01*
X0257093Y0031167D01*
X0257560Y0030700D01*
X0258494Y0030700D01*
X0258961Y0031167D01*
X0256015Y0030233D02*
X0254147Y0030233D01*
X0253068Y0030700D02*
X0252134Y0031634D01*
X0252601Y0031634D02*
X0251200Y0031634D01*
X0251200Y0030700D02*
X0251200Y0033502D01*
X0252601Y0033502D01*
X0253068Y0033035D01*
X0253068Y0032101D01*
X0252601Y0031634D01*
X0256634Y0028002D02*
X0256634Y0025200D01*
X0255700Y0025200D02*
X0257568Y0025200D01*
X0258647Y0025667D02*
X0260515Y0027535D01*
X0260515Y0025667D01*
X0260048Y0025200D01*
X0259114Y0025200D01*
X0258647Y0025667D01*
X0258647Y0027535D01*
X0259114Y0028002D01*
X0260048Y0028002D01*
X0260515Y0027535D01*
X0261593Y0028002D02*
X0262527Y0027068D01*
X0263461Y0028002D01*
X0263461Y0025200D01*
X0261593Y0025200D02*
X0261593Y0028002D01*
X0256634Y0028002D02*
X0255700Y0027068D01*
X0256634Y0018002D02*
X0256634Y0015200D01*
X0255700Y0015200D02*
X0257568Y0015200D01*
X0258647Y0015667D02*
X0260515Y0017535D01*
X0260515Y0015667D01*
X0260048Y0015200D01*
X0259114Y0015200D01*
X0258647Y0015667D01*
X0258647Y0017535D01*
X0259114Y0018002D01*
X0260048Y0018002D01*
X0260515Y0017535D01*
X0261593Y0018002D02*
X0262527Y0017068D01*
X0263461Y0018002D01*
X0263461Y0015200D01*
X0261593Y0015200D02*
X0261593Y0018002D01*
X0256634Y0018002D02*
X0255700Y0017068D01*
X0257560Y0011002D02*
X0257093Y0010535D01*
X0257093Y0008667D01*
X0257560Y0008200D01*
X0258494Y0008200D01*
X0258961Y0008667D01*
X0258961Y0010535D01*
X0258494Y0011002D01*
X0257560Y0011002D01*
X0260040Y0010068D02*
X0260040Y0008200D01*
X0260040Y0009601D02*
X0261908Y0009601D01*
X0261908Y0010068D02*
X0261908Y0008200D01*
X0262986Y0008667D02*
X0263453Y0008200D01*
X0264387Y0008200D01*
X0264854Y0008667D01*
X0265933Y0007733D02*
X0267801Y0007733D01*
X0268879Y0008200D02*
X0269813Y0008200D01*
X0269346Y0008200D02*
X0269346Y0011002D01*
X0268879Y0011002D02*
X0269813Y0011002D01*
X0270843Y0011002D02*
X0272712Y0008200D01*
X0272712Y0011002D01*
X0273790Y0010068D02*
X0274724Y0011002D01*
X0274724Y0008200D01*
X0273790Y0008200D02*
X0275658Y0008200D01*
X0270843Y0008200D02*
X0270843Y0011002D01*
X0264854Y0010535D02*
X0264387Y0011002D01*
X0263453Y0011002D01*
X0262986Y0010535D01*
X0262986Y0008667D01*
X0261908Y0010068D02*
X0260974Y0011002D01*
X0260040Y0010068D01*
X0256015Y0007733D02*
X0254147Y0007733D01*
X0253068Y0008200D02*
X0252134Y0009134D01*
X0252601Y0009134D02*
X0251200Y0009134D01*
X0251200Y0008200D02*
X0251200Y0011002D01*
X0252601Y0011002D01*
X0253068Y0010535D01*
X0253068Y0009601D01*
X0252601Y0009134D01*
X0286200Y0006035D02*
X0286200Y0004167D01*
X0286667Y0003700D01*
X0287601Y0003700D01*
X0288068Y0004167D01*
X0288068Y0005101D01*
X0287134Y0005101D01*
X0286200Y0006035D02*
X0286667Y0006502D01*
X0287601Y0006502D01*
X0288068Y0006035D01*
X0289147Y0006502D02*
X0291015Y0003700D01*
X0291015Y0006502D01*
X0292093Y0006502D02*
X0293494Y0006502D01*
X0293961Y0006035D01*
X0293961Y0004167D01*
X0293494Y0003700D01*
X0292093Y0003700D01*
X0292093Y0006502D01*
X0289147Y0006502D02*
X0289147Y0003700D01*
X0321200Y0008200D02*
X0321200Y0011002D01*
X0322601Y0011002D01*
X0323068Y0010535D01*
X0323068Y0009601D01*
X0322601Y0009134D01*
X0321200Y0009134D01*
X0322134Y0009134D02*
X0323068Y0008200D01*
X0324147Y0007733D02*
X0326015Y0007733D01*
X0327093Y0008667D02*
X0327560Y0008200D01*
X0328494Y0008200D01*
X0328961Y0008667D01*
X0328961Y0010535D01*
X0328494Y0011002D01*
X0327560Y0011002D01*
X0327093Y0010535D01*
X0327093Y0008667D01*
X0330040Y0008200D02*
X0330040Y0010068D01*
X0330974Y0011002D01*
X0331908Y0010068D01*
X0331908Y0008200D01*
X0332986Y0008200D02*
X0332986Y0011002D01*
X0334387Y0011002D01*
X0334854Y0010535D01*
X0334854Y0008667D01*
X0334387Y0008200D01*
X0332986Y0008200D01*
X0331908Y0009601D02*
X0330040Y0009601D01*
X0335933Y0007733D02*
X0337801Y0007733D01*
X0338879Y0008200D02*
X0339813Y0008200D01*
X0339346Y0008200D02*
X0339346Y0011002D01*
X0338879Y0011002D02*
X0339813Y0011002D01*
X0340843Y0011002D02*
X0342712Y0008200D01*
X0342712Y0011002D01*
X0343790Y0010068D02*
X0344724Y0011002D01*
X0344724Y0008200D01*
X0343790Y0008200D02*
X0345658Y0008200D01*
X0340843Y0008200D02*
X0340843Y0011002D01*
X0333461Y0015200D02*
X0333461Y0018002D01*
X0332527Y0017068D01*
X0331593Y0018002D01*
X0331593Y0015200D01*
X0330515Y0015667D02*
X0330048Y0015200D01*
X0329114Y0015200D01*
X0328647Y0015667D01*
X0330515Y0017535D01*
X0330515Y0015667D01*
X0330515Y0017535D02*
X0330048Y0018002D01*
X0329114Y0018002D01*
X0328647Y0017535D01*
X0328647Y0015667D01*
X0327568Y0015200D02*
X0325700Y0015200D01*
X0326634Y0015200D02*
X0326634Y0018002D01*
X0325700Y0017068D01*
X0325700Y0025200D02*
X0327568Y0025200D01*
X0326634Y0025200D02*
X0326634Y0028002D01*
X0325700Y0027068D01*
X0328647Y0027535D02*
X0329114Y0028002D01*
X0330048Y0028002D01*
X0330515Y0027535D01*
X0328647Y0025667D01*
X0329114Y0025200D01*
X0330048Y0025200D01*
X0330515Y0025667D01*
X0330515Y0027535D01*
X0331593Y0028002D02*
X0332527Y0027068D01*
X0333461Y0028002D01*
X0333461Y0025200D01*
X0331593Y0025200D02*
X0331593Y0028002D01*
X0331908Y0030700D02*
X0331908Y0032568D01*
X0330974Y0033502D01*
X0330040Y0032568D01*
X0330040Y0030700D01*
X0328961Y0031167D02*
X0328961Y0033035D01*
X0328494Y0033502D01*
X0327560Y0033502D01*
X0327093Y0033035D01*
X0327093Y0031167D01*
X0327560Y0030700D01*
X0328494Y0030700D01*
X0328961Y0031167D01*
X0330040Y0032101D02*
X0331908Y0032101D01*
X0332986Y0030700D02*
X0334387Y0030700D01*
X0334854Y0031167D01*
X0334854Y0033035D01*
X0334387Y0033502D01*
X0332986Y0033502D01*
X0332986Y0030700D01*
X0335933Y0030233D02*
X0337801Y0030233D01*
X0338879Y0030700D02*
X0339813Y0030700D01*
X0339346Y0030700D02*
X0339346Y0033502D01*
X0338879Y0033502D02*
X0339813Y0033502D01*
X0340843Y0033502D02*
X0342712Y0030700D01*
X0342712Y0033502D01*
X0343790Y0033035D02*
X0344257Y0033502D01*
X0345191Y0033502D01*
X0345658Y0033035D01*
X0345658Y0032568D01*
X0343790Y0030700D01*
X0345658Y0030700D01*
X0340843Y0030700D02*
X0340843Y0033502D01*
X0328647Y0027535D02*
X0328647Y0025667D01*
X0326015Y0030233D02*
X0324147Y0030233D01*
X0323068Y0030700D02*
X0322134Y0031634D01*
X0322601Y0031634D02*
X0321200Y0031634D01*
X0321200Y0030700D02*
X0321200Y0033502D01*
X0322601Y0033502D01*
X0323068Y0033035D01*
X0323068Y0032101D01*
X0322601Y0031634D01*
X0307646Y0052500D02*
X0306245Y0053434D01*
X0307646Y0054368D01*
X0306245Y0055302D02*
X0306245Y0052500D01*
X0305166Y0052967D02*
X0305166Y0054835D01*
X0303298Y0052967D01*
X0303765Y0052500D01*
X0304699Y0052500D01*
X0305166Y0052967D01*
X0303298Y0052967D02*
X0303298Y0054835D01*
X0303765Y0055302D01*
X0304699Y0055302D01*
X0305166Y0054835D01*
X0302220Y0054835D02*
X0300352Y0052967D01*
X0300819Y0052500D01*
X0301753Y0052500D01*
X0302220Y0052967D01*
X0302220Y0054835D01*
X0301753Y0055302D01*
X0300819Y0055302D01*
X0300352Y0054835D01*
X0300352Y0052967D01*
X0299273Y0052500D02*
X0297405Y0052500D01*
X0298339Y0052500D02*
X0298339Y0055302D01*
X0297405Y0054368D01*
X0298433Y0064033D02*
X0300301Y0064033D01*
X0301379Y0064500D02*
X0301379Y0067302D01*
X0303247Y0067302D01*
X0304326Y0067302D02*
X0305727Y0067302D01*
X0306194Y0066835D01*
X0306194Y0066368D01*
X0305727Y0065901D01*
X0304326Y0065901D01*
X0305727Y0065901D02*
X0306194Y0065434D01*
X0306194Y0064967D01*
X0305727Y0064500D01*
X0304326Y0064500D01*
X0304326Y0067302D01*
X0302313Y0065901D02*
X0301379Y0065901D01*
X0297354Y0064967D02*
X0296887Y0064500D01*
X0295953Y0064500D01*
X0295486Y0064967D01*
X0295486Y0066835D01*
X0295953Y0067302D01*
X0296887Y0067302D01*
X0297354Y0066835D01*
X0294408Y0066368D02*
X0294408Y0064500D01*
X0294408Y0065901D02*
X0292540Y0065901D01*
X0292540Y0066368D02*
X0293474Y0067302D01*
X0294408Y0066368D01*
X0292540Y0066368D02*
X0292540Y0064500D01*
X0291461Y0064967D02*
X0291461Y0066835D01*
X0290994Y0067302D01*
X0290060Y0067302D01*
X0289593Y0066835D01*
X0289593Y0064967D01*
X0290060Y0064500D01*
X0290994Y0064500D01*
X0291461Y0064967D01*
X0288515Y0064033D02*
X0286647Y0064033D01*
X0285568Y0064500D02*
X0284634Y0065434D01*
X0285101Y0065434D02*
X0283700Y0065434D01*
X0283700Y0064500D02*
X0283700Y0067302D01*
X0285101Y0067302D01*
X0285568Y0066835D01*
X0285568Y0065901D01*
X0285101Y0065434D01*
X0307272Y0064500D02*
X0309140Y0064500D01*
X0308206Y0064500D02*
X0308206Y0067302D01*
X0307272Y0066368D01*
X0328700Y0065434D02*
X0330101Y0065434D01*
X0330568Y0065901D01*
X0330568Y0066835D01*
X0330101Y0067302D01*
X0328700Y0067302D01*
X0328700Y0064500D01*
X0329634Y0065434D02*
X0330568Y0064500D01*
X0331647Y0064033D02*
X0333515Y0064033D01*
X0334593Y0064967D02*
X0335060Y0064500D01*
X0335994Y0064500D01*
X0336461Y0064967D01*
X0336461Y0066835D01*
X0335994Y0067302D01*
X0335060Y0067302D01*
X0334593Y0066835D01*
X0334593Y0064967D01*
X0337540Y0064500D02*
X0337540Y0066368D01*
X0338474Y0067302D01*
X0339408Y0066368D01*
X0339408Y0064500D01*
X0340486Y0064500D02*
X0341887Y0064500D01*
X0342354Y0064967D01*
X0342354Y0066835D01*
X0341887Y0067302D01*
X0340486Y0067302D01*
X0340486Y0064500D01*
X0339408Y0065901D02*
X0337540Y0065901D01*
X0343433Y0064033D02*
X0345301Y0064033D01*
X0346379Y0064500D02*
X0346379Y0067302D01*
X0348247Y0067302D01*
X0349326Y0067302D02*
X0349326Y0064500D01*
X0350727Y0064500D01*
X0351194Y0064967D01*
X0351194Y0065434D01*
X0350727Y0065901D01*
X0349326Y0065901D01*
X0350727Y0065901D02*
X0351194Y0066368D01*
X0351194Y0066835D01*
X0350727Y0067302D01*
X0349326Y0067302D01*
X0347313Y0065901D02*
X0346379Y0065901D01*
X0352272Y0066368D02*
X0353206Y0067302D01*
X0353206Y0064500D01*
X0352272Y0064500D02*
X0354140Y0064500D01*
X0351245Y0055302D02*
X0351245Y0052500D01*
X0351245Y0053434D02*
X0352646Y0054368D01*
X0351245Y0053434D02*
X0352646Y0052500D01*
X0350166Y0052967D02*
X0350166Y0054835D01*
X0348298Y0052967D01*
X0348765Y0052500D01*
X0349699Y0052500D01*
X0350166Y0052967D01*
X0348298Y0052967D02*
X0348298Y0054835D01*
X0348765Y0055302D01*
X0349699Y0055302D01*
X0350166Y0054835D01*
X0347220Y0054835D02*
X0345352Y0052967D01*
X0345819Y0052500D01*
X0346753Y0052500D01*
X0347220Y0052967D01*
X0347220Y0054835D01*
X0346753Y0055302D01*
X0345819Y0055302D01*
X0345352Y0054835D01*
X0345352Y0052967D01*
X0344273Y0052500D02*
X0342405Y0052500D01*
X0343339Y0052500D02*
X0343339Y0055302D01*
X0342405Y0054368D01*
X0380998Y0081200D02*
X0380998Y0082601D01*
X0381465Y0083068D01*
X0382399Y0083068D01*
X0382866Y0082601D01*
X0382866Y0081200D01*
X0383800Y0081200D02*
X0380998Y0081200D01*
X0382866Y0082134D02*
X0383800Y0083068D01*
X0384267Y0084147D02*
X0384267Y0086015D01*
X0383333Y0087093D02*
X0383800Y0087560D01*
X0383800Y0088494D01*
X0383333Y0088961D01*
X0381465Y0088961D01*
X0380998Y0088494D01*
X0380998Y0087560D01*
X0381465Y0087093D01*
X0383333Y0087093D01*
X0383800Y0090040D02*
X0381932Y0090040D01*
X0380998Y0090974D01*
X0381932Y0091908D01*
X0383800Y0091908D01*
X0383800Y0092986D02*
X0383800Y0094387D01*
X0383333Y0094854D01*
X0381465Y0094854D01*
X0380998Y0094387D01*
X0380998Y0092986D01*
X0383800Y0092986D01*
X0382399Y0091908D02*
X0382399Y0090040D01*
X0384267Y0095933D02*
X0384267Y0097801D01*
X0383800Y0098879D02*
X0380998Y0098879D01*
X0380998Y0100747D01*
X0380998Y0101826D02*
X0380998Y0103227D01*
X0381465Y0103694D01*
X0381932Y0103694D01*
X0382399Y0103227D01*
X0382399Y0101826D01*
X0382399Y0103227D02*
X0382866Y0103694D01*
X0383333Y0103694D01*
X0383800Y0103227D01*
X0383800Y0101826D01*
X0380998Y0101826D01*
X0382399Y0099813D02*
X0382399Y0098879D01*
X0381465Y0104772D02*
X0380998Y0105239D01*
X0380998Y0106173D01*
X0381465Y0106640D01*
X0381932Y0106640D01*
X0383800Y0104772D01*
X0383800Y0106640D01*
X0366800Y0106593D02*
X0363998Y0106593D01*
X0364465Y0105515D02*
X0366333Y0103647D01*
X0366800Y0104114D01*
X0366800Y0105048D01*
X0366333Y0105515D01*
X0364465Y0105515D01*
X0363998Y0105048D01*
X0363998Y0104114D01*
X0364465Y0103647D01*
X0366333Y0103647D01*
X0366800Y0102568D02*
X0366800Y0100700D01*
X0366800Y0101634D02*
X0363998Y0101634D01*
X0364932Y0100700D01*
X0361767Y0101015D02*
X0361767Y0099147D01*
X0361300Y0098068D02*
X0360366Y0097134D01*
X0360366Y0097601D02*
X0360366Y0096200D01*
X0361300Y0096200D02*
X0358498Y0096200D01*
X0358498Y0097601D01*
X0358965Y0098068D01*
X0359899Y0098068D01*
X0360366Y0097601D01*
X0360833Y0102093D02*
X0358965Y0102093D01*
X0358498Y0102560D01*
X0358498Y0103494D01*
X0358965Y0103961D01*
X0360833Y0103961D01*
X0361300Y0103494D01*
X0361300Y0102560D01*
X0360833Y0102093D01*
X0361300Y0105040D02*
X0359432Y0105040D01*
X0358498Y0105974D01*
X0359432Y0106908D01*
X0361300Y0106908D01*
X0361300Y0107986D02*
X0359432Y0107986D01*
X0358498Y0108920D01*
X0359432Y0109854D01*
X0361300Y0109854D01*
X0361767Y0110933D02*
X0361767Y0112801D01*
X0361300Y0113879D02*
X0358498Y0113879D01*
X0358498Y0115747D01*
X0358498Y0116826D02*
X0358498Y0118227D01*
X0358965Y0118694D01*
X0359432Y0118694D01*
X0359899Y0118227D01*
X0359899Y0116826D01*
X0359899Y0118227D02*
X0360366Y0118694D01*
X0360833Y0118694D01*
X0361300Y0118227D01*
X0361300Y0116826D01*
X0358498Y0116826D01*
X0359899Y0114813D02*
X0359899Y0113879D01*
X0359899Y0109854D02*
X0359899Y0107986D01*
X0359899Y0106908D02*
X0359899Y0105040D01*
X0364932Y0107994D02*
X0365866Y0106593D01*
X0366800Y0107994D01*
X0361300Y0119772D02*
X0359432Y0121640D01*
X0358965Y0121640D01*
X0358498Y0121173D01*
X0358498Y0120239D01*
X0358965Y0119772D01*
X0361300Y0119772D02*
X0361300Y0121640D01*
X0354140Y0132000D02*
X0352272Y0132000D01*
X0353206Y0132000D02*
X0353206Y0134802D01*
X0352272Y0133868D01*
X0351194Y0133868D02*
X0350727Y0133401D01*
X0349326Y0133401D01*
X0350727Y0133401D02*
X0351194Y0132934D01*
X0351194Y0132467D01*
X0350727Y0132000D01*
X0349326Y0132000D01*
X0349326Y0134802D01*
X0350727Y0134802D01*
X0351194Y0134335D01*
X0351194Y0133868D01*
X0348247Y0134802D02*
X0346379Y0134802D01*
X0346379Y0132000D01*
X0345301Y0131533D02*
X0343433Y0131533D01*
X0342354Y0132000D02*
X0342354Y0133868D01*
X0341420Y0134802D01*
X0340486Y0133868D01*
X0340486Y0132000D01*
X0339408Y0132000D02*
X0339408Y0133868D01*
X0338474Y0134802D01*
X0337540Y0133868D01*
X0337540Y0132000D01*
X0336461Y0132467D02*
X0336461Y0134335D01*
X0335994Y0134802D01*
X0335060Y0134802D01*
X0334593Y0134335D01*
X0334593Y0132467D01*
X0335060Y0132000D01*
X0335994Y0132000D01*
X0336461Y0132467D01*
X0337540Y0133401D02*
X0339408Y0133401D01*
X0340486Y0133401D02*
X0342354Y0133401D01*
X0346379Y0133401D02*
X0347313Y0133401D01*
X0333515Y0131533D02*
X0331647Y0131533D01*
X0330568Y0132000D02*
X0329634Y0132934D01*
X0330101Y0132934D02*
X0328700Y0132934D01*
X0328700Y0132000D02*
X0328700Y0134802D01*
X0330101Y0134802D01*
X0330568Y0134335D01*
X0330568Y0133401D01*
X0330101Y0132934D01*
X0329634Y0144200D02*
X0329634Y0147002D01*
X0328700Y0146068D01*
X0328700Y0144200D02*
X0330568Y0144200D01*
X0331647Y0144667D02*
X0333515Y0146535D01*
X0333515Y0144667D01*
X0333048Y0144200D01*
X0332114Y0144200D01*
X0331647Y0144667D01*
X0331647Y0146535D01*
X0332114Y0147002D01*
X0333048Y0147002D01*
X0333515Y0146535D01*
X0334593Y0146535D02*
X0335060Y0147002D01*
X0335994Y0147002D01*
X0336461Y0146535D01*
X0334593Y0144667D01*
X0335060Y0144200D01*
X0335994Y0144200D01*
X0336461Y0144667D01*
X0336461Y0146535D01*
X0337540Y0147002D02*
X0337540Y0144200D01*
X0337540Y0145134D02*
X0338941Y0146068D01*
X0337540Y0145134D02*
X0338941Y0144200D01*
X0334593Y0144667D02*
X0334593Y0146535D01*
X0308206Y0134802D02*
X0308206Y0132000D01*
X0307272Y0132000D02*
X0309140Y0132000D01*
X0307272Y0133868D02*
X0308206Y0134802D01*
X0306194Y0134335D02*
X0306194Y0133868D01*
X0305727Y0133401D01*
X0304326Y0133401D01*
X0305727Y0133401D02*
X0306194Y0132934D01*
X0306194Y0132467D01*
X0305727Y0132000D01*
X0304326Y0132000D01*
X0304326Y0134802D01*
X0305727Y0134802D01*
X0306194Y0134335D01*
X0303247Y0134802D02*
X0301379Y0134802D01*
X0301379Y0132000D01*
X0300301Y0131533D02*
X0298433Y0131533D01*
X0297354Y0132467D02*
X0296887Y0132000D01*
X0295486Y0132000D01*
X0295486Y0134802D01*
X0296887Y0134802D01*
X0297354Y0134335D01*
X0297354Y0133868D01*
X0296887Y0133401D01*
X0295486Y0133401D01*
X0294408Y0133401D02*
X0292540Y0133401D01*
X0292540Y0133868D02*
X0293474Y0134802D01*
X0294408Y0133868D01*
X0294408Y0132000D01*
X0292540Y0132000D02*
X0292540Y0133868D01*
X0291461Y0134335D02*
X0290994Y0134802D01*
X0290060Y0134802D01*
X0289593Y0134335D01*
X0289593Y0132467D01*
X0290060Y0132000D01*
X0290994Y0132000D01*
X0291461Y0132467D01*
X0291461Y0134335D01*
X0288515Y0131533D02*
X0286647Y0131533D01*
X0285568Y0132000D02*
X0284634Y0132934D01*
X0285101Y0132934D02*
X0283700Y0132934D01*
X0283700Y0132000D02*
X0283700Y0134802D01*
X0285101Y0134802D01*
X0285568Y0134335D01*
X0285568Y0133401D01*
X0285101Y0132934D01*
X0296887Y0133401D02*
X0297354Y0132934D01*
X0297354Y0132467D01*
X0301379Y0133401D02*
X0302313Y0133401D01*
X0293941Y0144200D02*
X0292540Y0145134D01*
X0293941Y0146068D01*
X0292540Y0147002D02*
X0292540Y0144200D01*
X0291461Y0144667D02*
X0290994Y0144200D01*
X0290060Y0144200D01*
X0289593Y0144667D01*
X0291461Y0146535D01*
X0291461Y0144667D01*
X0289593Y0144667D02*
X0289593Y0146535D01*
X0290060Y0147002D01*
X0290994Y0147002D01*
X0291461Y0146535D01*
X0288515Y0146535D02*
X0286647Y0144667D01*
X0287114Y0144200D01*
X0288048Y0144200D01*
X0288515Y0144667D01*
X0288515Y0146535D01*
X0288048Y0147002D01*
X0287114Y0147002D01*
X0286647Y0146535D01*
X0286647Y0144667D01*
X0285568Y0144200D02*
X0283700Y0144200D01*
X0284634Y0144200D02*
X0284634Y0147002D01*
X0283700Y0146068D01*
X0276640Y0153200D02*
X0274772Y0153200D01*
X0276640Y0155068D01*
X0276640Y0155535D01*
X0276173Y0156002D01*
X0275239Y0156002D01*
X0274772Y0155535D01*
X0273694Y0155535D02*
X0273694Y0155068D01*
X0273227Y0154601D01*
X0271826Y0154601D01*
X0273227Y0154601D02*
X0273694Y0154134D01*
X0273694Y0153667D01*
X0273227Y0153200D01*
X0271826Y0153200D01*
X0271826Y0156002D01*
X0273227Y0156002D01*
X0273694Y0155535D01*
X0270747Y0156002D02*
X0268879Y0156002D01*
X0268879Y0153200D01*
X0267801Y0152733D02*
X0265933Y0152733D01*
X0264854Y0153667D02*
X0264387Y0153200D01*
X0262986Y0153200D01*
X0262986Y0156002D01*
X0264387Y0156002D01*
X0264854Y0155535D01*
X0264854Y0155068D01*
X0264387Y0154601D01*
X0262986Y0154601D01*
X0261908Y0154601D02*
X0260040Y0154601D01*
X0260040Y0155068D02*
X0260974Y0156002D01*
X0261908Y0155068D01*
X0261908Y0153200D01*
X0260040Y0153200D02*
X0260040Y0155068D01*
X0258961Y0155535D02*
X0258494Y0156002D01*
X0257560Y0156002D01*
X0257093Y0155535D01*
X0257093Y0153667D01*
X0257560Y0153200D01*
X0258494Y0153200D01*
X0258961Y0153667D01*
X0258961Y0155535D01*
X0253068Y0155535D02*
X0253068Y0154601D01*
X0252601Y0154134D01*
X0251200Y0154134D01*
X0251200Y0153200D02*
X0251200Y0156002D01*
X0252601Y0156002D01*
X0253068Y0155535D01*
X0252134Y0154134D02*
X0253068Y0153200D01*
X0254147Y0152733D02*
X0256015Y0152733D01*
X0264387Y0154601D02*
X0264854Y0154134D01*
X0264854Y0153667D01*
X0268879Y0154601D02*
X0269813Y0154601D01*
X0262994Y0160200D02*
X0261593Y0161134D01*
X0262994Y0162068D01*
X0261593Y0163002D02*
X0261593Y0160200D01*
X0260515Y0160667D02*
X0260048Y0160200D01*
X0259114Y0160200D01*
X0258647Y0160667D01*
X0260515Y0162535D01*
X0260515Y0160667D01*
X0260515Y0162535D02*
X0260048Y0163002D01*
X0259114Y0163002D01*
X0258647Y0162535D01*
X0258647Y0160667D01*
X0257568Y0160200D02*
X0255700Y0160200D01*
X0256634Y0160200D02*
X0256634Y0163002D01*
X0255700Y0162068D01*
X0256015Y0165233D02*
X0254147Y0165233D01*
X0253068Y0165700D02*
X0252134Y0166634D01*
X0252601Y0166634D02*
X0251200Y0166634D01*
X0251200Y0165700D02*
X0251200Y0168502D01*
X0252601Y0168502D01*
X0253068Y0168035D01*
X0253068Y0167101D01*
X0252601Y0166634D01*
X0257093Y0166167D02*
X0257093Y0168035D01*
X0257560Y0168502D01*
X0258494Y0168502D01*
X0258961Y0168035D01*
X0258961Y0166167D01*
X0258494Y0165700D01*
X0257560Y0165700D01*
X0257093Y0166167D01*
X0260040Y0165700D02*
X0260040Y0167568D01*
X0260974Y0168502D01*
X0261908Y0167568D01*
X0261908Y0165700D01*
X0262986Y0165700D02*
X0264387Y0165700D01*
X0264854Y0166167D01*
X0264854Y0166634D01*
X0264387Y0167101D01*
X0262986Y0167101D01*
X0261908Y0167101D02*
X0260040Y0167101D01*
X0262986Y0165700D02*
X0262986Y0168502D01*
X0264387Y0168502D01*
X0264854Y0168035D01*
X0264854Y0167568D01*
X0264387Y0167101D01*
X0265933Y0165233D02*
X0267801Y0165233D01*
X0268879Y0165700D02*
X0269813Y0165700D01*
X0269346Y0165700D02*
X0269346Y0168502D01*
X0268879Y0168502D02*
X0269813Y0168502D01*
X0270843Y0168502D02*
X0272712Y0165700D01*
X0272712Y0168502D01*
X0273790Y0168035D02*
X0274257Y0168502D01*
X0275191Y0168502D01*
X0275658Y0168035D01*
X0275658Y0167568D01*
X0273790Y0165700D01*
X0275658Y0165700D01*
X0270843Y0165700D02*
X0270843Y0168502D01*
X0263461Y0172700D02*
X0263461Y0175502D01*
X0262527Y0174568D01*
X0261593Y0175502D01*
X0261593Y0172700D01*
X0260515Y0173167D02*
X0260048Y0172700D01*
X0259114Y0172700D01*
X0258647Y0173167D01*
X0260515Y0175035D01*
X0260515Y0173167D01*
X0260515Y0175035D02*
X0260048Y0175502D01*
X0259114Y0175502D01*
X0258647Y0175035D01*
X0258647Y0173167D01*
X0257568Y0172700D02*
X0255700Y0172700D01*
X0256634Y0172700D02*
X0256634Y0175502D01*
X0255700Y0174568D01*
X0255700Y0182700D02*
X0257568Y0182700D01*
X0256634Y0182700D02*
X0256634Y0185502D01*
X0255700Y0184568D01*
X0258647Y0185035D02*
X0258647Y0183167D01*
X0260515Y0185035D01*
X0260515Y0183167D01*
X0260048Y0182700D01*
X0259114Y0182700D01*
X0258647Y0183167D01*
X0258647Y0185035D02*
X0259114Y0185502D01*
X0260048Y0185502D01*
X0260515Y0185035D01*
X0261593Y0185502D02*
X0262527Y0184568D01*
X0263461Y0185502D01*
X0263461Y0182700D01*
X0261593Y0182700D02*
X0261593Y0185502D01*
X0261908Y0188200D02*
X0261908Y0190068D01*
X0260974Y0191002D01*
X0260040Y0190068D01*
X0260040Y0188200D01*
X0258961Y0188667D02*
X0258961Y0190535D01*
X0258494Y0191002D01*
X0257560Y0191002D01*
X0257093Y0190535D01*
X0257093Y0188667D01*
X0257560Y0188200D01*
X0258494Y0188200D01*
X0258961Y0188667D01*
X0260040Y0189601D02*
X0261908Y0189601D01*
X0262986Y0189601D02*
X0264387Y0189601D01*
X0264854Y0189134D01*
X0264854Y0188667D01*
X0264387Y0188200D01*
X0262986Y0188200D01*
X0262986Y0191002D01*
X0264387Y0191002D01*
X0264854Y0190535D01*
X0264854Y0190068D01*
X0264387Y0189601D01*
X0265933Y0187733D02*
X0267801Y0187733D01*
X0268879Y0188200D02*
X0269813Y0188200D01*
X0269346Y0188200D02*
X0269346Y0191002D01*
X0268879Y0191002D02*
X0269813Y0191002D01*
X0270843Y0191002D02*
X0272712Y0188200D01*
X0272712Y0191002D01*
X0273790Y0190068D02*
X0274724Y0191002D01*
X0274724Y0188200D01*
X0273790Y0188200D02*
X0275658Y0188200D01*
X0270843Y0188200D02*
X0270843Y0191002D01*
X0256015Y0187733D02*
X0254147Y0187733D01*
X0253068Y0188200D02*
X0252134Y0189134D01*
X0252601Y0189134D02*
X0251200Y0189134D01*
X0251200Y0188200D02*
X0251200Y0191002D01*
X0252601Y0191002D01*
X0253068Y0190535D01*
X0253068Y0189601D01*
X0252601Y0189134D01*
X0298700Y0194167D02*
X0299167Y0193700D01*
X0300101Y0193700D01*
X0300568Y0194167D01*
X0300568Y0195101D01*
X0299634Y0195101D01*
X0298700Y0196035D02*
X0298700Y0194167D01*
X0298700Y0196035D02*
X0299167Y0196502D01*
X0300101Y0196502D01*
X0300568Y0196035D01*
X0301647Y0196502D02*
X0303515Y0193700D01*
X0303515Y0196502D01*
X0304593Y0196502D02*
X0305994Y0196502D01*
X0306461Y0196035D01*
X0306461Y0194167D01*
X0305994Y0193700D01*
X0304593Y0193700D01*
X0304593Y0196502D01*
X0301647Y0196502D02*
X0301647Y0193700D01*
X0321200Y0191002D02*
X0321200Y0188200D01*
X0321200Y0189134D02*
X0322601Y0189134D01*
X0323068Y0189601D01*
X0323068Y0190535D01*
X0322601Y0191002D01*
X0321200Y0191002D01*
X0322134Y0189134D02*
X0323068Y0188200D01*
X0324147Y0187733D02*
X0326015Y0187733D01*
X0327093Y0188667D02*
X0327560Y0188200D01*
X0328494Y0188200D01*
X0328961Y0188667D01*
X0328961Y0190535D01*
X0328494Y0191002D01*
X0327560Y0191002D01*
X0327093Y0190535D01*
X0327093Y0188667D01*
X0330040Y0188200D02*
X0330040Y0190068D01*
X0330974Y0191002D01*
X0331908Y0190068D01*
X0331908Y0188200D01*
X0332986Y0188200D02*
X0332986Y0190068D01*
X0333920Y0191002D01*
X0334854Y0190068D01*
X0334854Y0188200D01*
X0335933Y0187733D02*
X0337801Y0187733D01*
X0338879Y0188200D02*
X0339813Y0188200D01*
X0339346Y0188200D02*
X0339346Y0191002D01*
X0338879Y0191002D02*
X0339813Y0191002D01*
X0340843Y0191002D02*
X0342712Y0188200D01*
X0342712Y0191002D01*
X0343790Y0190068D02*
X0344724Y0191002D01*
X0344724Y0188200D01*
X0343790Y0188200D02*
X0345658Y0188200D01*
X0340843Y0188200D02*
X0340843Y0191002D01*
X0334854Y0189601D02*
X0332986Y0189601D01*
X0331908Y0189601D02*
X0330040Y0189601D01*
X0330048Y0185502D02*
X0330515Y0185035D01*
X0328647Y0183167D01*
X0329114Y0182700D01*
X0330048Y0182700D01*
X0330515Y0183167D01*
X0330515Y0185035D01*
X0330048Y0185502D02*
X0329114Y0185502D01*
X0328647Y0185035D01*
X0328647Y0183167D01*
X0327568Y0182700D02*
X0325700Y0182700D01*
X0326634Y0182700D02*
X0326634Y0185502D01*
X0325700Y0184568D01*
X0331593Y0185502D02*
X0331593Y0182700D01*
X0333461Y0182700D02*
X0333461Y0185502D01*
X0332527Y0184568D01*
X0331593Y0185502D01*
X0331593Y0175502D02*
X0332527Y0174568D01*
X0333461Y0175502D01*
X0333461Y0172700D01*
X0331593Y0172700D02*
X0331593Y0175502D01*
X0330515Y0175035D02*
X0328647Y0173167D01*
X0329114Y0172700D01*
X0330048Y0172700D01*
X0330515Y0173167D01*
X0330515Y0175035D01*
X0330048Y0175502D01*
X0329114Y0175502D01*
X0328647Y0175035D01*
X0328647Y0173167D01*
X0327568Y0172700D02*
X0325700Y0172700D01*
X0326634Y0172700D02*
X0326634Y0175502D01*
X0325700Y0174568D01*
X0327560Y0168502D02*
X0327093Y0168035D01*
X0327093Y0166167D01*
X0327560Y0165700D01*
X0328494Y0165700D01*
X0328961Y0166167D01*
X0328961Y0168035D01*
X0328494Y0168502D01*
X0327560Y0168502D01*
X0330040Y0167568D02*
X0330040Y0165700D01*
X0330040Y0167101D02*
X0331908Y0167101D01*
X0331908Y0167568D02*
X0331908Y0165700D01*
X0332986Y0165700D02*
X0332986Y0167568D01*
X0333920Y0168502D01*
X0334854Y0167568D01*
X0334854Y0165700D01*
X0335933Y0165233D02*
X0337801Y0165233D01*
X0338879Y0165700D02*
X0339813Y0165700D01*
X0339346Y0165700D02*
X0339346Y0168502D01*
X0338879Y0168502D02*
X0339813Y0168502D01*
X0340843Y0168502D02*
X0342712Y0165700D01*
X0342712Y0168502D01*
X0343790Y0168035D02*
X0344257Y0168502D01*
X0345191Y0168502D01*
X0345658Y0168035D01*
X0345658Y0167568D01*
X0343790Y0165700D01*
X0345658Y0165700D01*
X0340843Y0165700D02*
X0340843Y0168502D01*
X0334854Y0167101D02*
X0332986Y0167101D01*
X0331908Y0167568D02*
X0330974Y0168502D01*
X0330040Y0167568D01*
X0326015Y0165233D02*
X0324147Y0165233D01*
X0323068Y0165700D02*
X0322134Y0166634D01*
X0322601Y0166634D02*
X0321200Y0166634D01*
X0321200Y0165700D02*
X0321200Y0168502D01*
X0322601Y0168502D01*
X0323068Y0168035D01*
X0323068Y0167101D01*
X0322601Y0166634D01*
X0368700Y0194167D02*
X0369167Y0193700D01*
X0370101Y0193700D01*
X0370568Y0194167D01*
X0370568Y0195101D01*
X0369634Y0195101D01*
X0368700Y0196035D02*
X0368700Y0194167D01*
X0368700Y0196035D02*
X0369167Y0196502D01*
X0370101Y0196502D01*
X0370568Y0196035D01*
X0371647Y0196502D02*
X0373515Y0193700D01*
X0373515Y0196502D01*
X0374593Y0196502D02*
X0375994Y0196502D01*
X0376461Y0196035D01*
X0376461Y0194167D01*
X0375994Y0193700D01*
X0374593Y0193700D01*
X0374593Y0196502D01*
X0371647Y0196502D02*
X0371647Y0193700D01*
X0281461Y0116035D02*
X0280994Y0116502D01*
X0279593Y0116502D01*
X0279593Y0113700D01*
X0280994Y0113700D01*
X0281461Y0114167D01*
X0281461Y0116035D01*
X0278515Y0116502D02*
X0278515Y0113700D01*
X0276647Y0116502D01*
X0276647Y0113700D01*
X0275568Y0114167D02*
X0275568Y0115101D01*
X0274634Y0115101D01*
X0273700Y0114167D02*
X0274167Y0113700D01*
X0275101Y0113700D01*
X0275568Y0114167D01*
X0273700Y0114167D02*
X0273700Y0116035D01*
X0274167Y0116502D01*
X0275101Y0116502D01*
X0275568Y0116035D01*
X0275568Y0106502D02*
X0273700Y0106502D01*
X0273700Y0105101D01*
X0274634Y0105568D01*
X0275101Y0105568D01*
X0275568Y0105101D01*
X0275568Y0104167D01*
X0275101Y0103700D01*
X0274167Y0103700D01*
X0273700Y0104167D01*
X0276647Y0104634D02*
X0276647Y0106502D01*
X0278515Y0106502D02*
X0278515Y0104634D01*
X0277581Y0103700D01*
X0276647Y0104634D01*
X0276647Y0096502D02*
X0278515Y0093700D01*
X0279593Y0093700D02*
X0281461Y0093700D01*
X0280527Y0093700D02*
X0280527Y0096502D01*
X0279593Y0095568D01*
X0278515Y0096502D02*
X0276647Y0093700D01*
X0275568Y0093700D02*
X0274634Y0094634D01*
X0275101Y0094634D02*
X0273700Y0094634D01*
X0273700Y0093700D02*
X0273700Y0096502D01*
X0275101Y0096502D01*
X0275568Y0096035D01*
X0275568Y0095101D01*
X0275101Y0094634D01*
X0274634Y0086502D02*
X0274634Y0083700D01*
X0276647Y0083700D02*
X0278515Y0086502D01*
X0279593Y0085568D02*
X0280527Y0086502D01*
X0280527Y0083700D01*
X0279593Y0083700D02*
X0281461Y0083700D01*
X0278515Y0083700D02*
X0276647Y0086502D01*
X0275568Y0086502D02*
X0273700Y0086502D01*
X0275239Y0046002D02*
X0274772Y0045535D01*
X0275239Y0046002D02*
X0276173Y0046002D01*
X0276640Y0045535D01*
X0276640Y0045068D01*
X0274772Y0043200D01*
X0276640Y0043200D01*
X0356200Y0006035D02*
X0356200Y0004167D01*
X0356667Y0003700D01*
X0357601Y0003700D01*
X0358068Y0004167D01*
X0358068Y0005101D01*
X0357134Y0005101D01*
X0356200Y0006035D02*
X0356667Y0006502D01*
X0357601Y0006502D01*
X0358068Y0006035D01*
X0359147Y0006502D02*
X0361015Y0003700D01*
X0361015Y0006502D01*
X0362093Y0006502D02*
X0363494Y0006502D01*
X0363961Y0006035D01*
X0363961Y0004167D01*
X0363494Y0003700D01*
X0362093Y0003700D01*
X0362093Y0006502D01*
X0359147Y0006502D02*
X0359147Y0003700D01*
X0093515Y0069167D02*
X0093048Y0068700D01*
X0092114Y0068700D01*
X0091647Y0069167D01*
X0090568Y0068700D02*
X0088700Y0068700D01*
X0089634Y0068700D02*
X0089634Y0071502D01*
X0088700Y0070568D01*
X0091647Y0071035D02*
X0092114Y0071502D01*
X0093048Y0071502D01*
X0093515Y0071035D01*
X0093515Y0070568D01*
X0093048Y0070101D01*
X0093515Y0069634D01*
X0093515Y0069167D01*
X0093048Y0070101D02*
X0092581Y0070101D01*
X0092560Y0078700D02*
X0093494Y0078700D01*
X0093961Y0079167D01*
X0092560Y0078700D02*
X0092093Y0079167D01*
X0092093Y0081035D01*
X0092560Y0081502D01*
X0093494Y0081502D01*
X0093961Y0081035D01*
X0091015Y0080568D02*
X0091015Y0078700D01*
X0091015Y0080101D02*
X0089147Y0080101D01*
X0089147Y0080568D02*
X0090081Y0081502D01*
X0091015Y0080568D01*
X0089147Y0080568D02*
X0089147Y0078700D01*
X0088068Y0079167D02*
X0088068Y0081035D01*
X0087601Y0081502D01*
X0086200Y0081502D01*
X0086200Y0078700D01*
X0087601Y0078700D01*
X0088068Y0079167D01*
X0086647Y0088700D02*
X0086647Y0090568D01*
X0087581Y0090568D02*
X0088048Y0090568D01*
X0087581Y0090568D02*
X0086647Y0089634D01*
X0085568Y0090101D02*
X0085101Y0089634D01*
X0083700Y0089634D01*
X0083700Y0088700D02*
X0083700Y0091502D01*
X0085101Y0091502D01*
X0085568Y0091035D01*
X0085568Y0090101D01*
X0089102Y0090101D02*
X0089102Y0089167D01*
X0089569Y0088700D01*
X0090503Y0088700D01*
X0090970Y0089167D01*
X0090970Y0090101D01*
X0090503Y0090568D01*
X0089569Y0090568D01*
X0089102Y0090101D01*
X0092048Y0090101D02*
X0092048Y0089167D01*
X0092516Y0088700D01*
X0093917Y0088700D01*
X0093917Y0088233D02*
X0093917Y0090568D01*
X0092516Y0090568D01*
X0092048Y0090101D01*
X0092983Y0087766D02*
X0093450Y0087766D01*
X0093917Y0088233D01*
X0093494Y0098700D02*
X0092093Y0098700D01*
X0092093Y0101502D01*
X0093494Y0101502D01*
X0093961Y0101035D01*
X0093961Y0099167D01*
X0093494Y0098700D01*
X0091015Y0098700D02*
X0091015Y0101502D01*
X0089147Y0101502D02*
X0091015Y0098700D01*
X0089147Y0098700D02*
X0089147Y0101502D01*
X0088068Y0101035D02*
X0087601Y0101502D01*
X0086667Y0101502D01*
X0086200Y0101035D01*
X0086200Y0099167D01*
X0086667Y0098700D01*
X0087601Y0098700D01*
X0088068Y0099167D01*
X0088068Y0100101D01*
X0087134Y0100101D01*
X0087114Y0108700D02*
X0086647Y0108700D01*
X0086647Y0109167D01*
X0087114Y0109167D01*
X0087114Y0108700D01*
X0088120Y0109167D02*
X0088587Y0108700D01*
X0089521Y0108700D01*
X0089988Y0109167D01*
X0089988Y0109634D01*
X0089521Y0110101D01*
X0089054Y0110101D01*
X0089521Y0110101D02*
X0089988Y0110568D01*
X0089988Y0111035D01*
X0089521Y0111502D01*
X0088587Y0111502D01*
X0088120Y0111035D01*
X0085568Y0111035D02*
X0085568Y0110568D01*
X0085101Y0110101D01*
X0085568Y0109634D01*
X0085568Y0109167D01*
X0085101Y0108700D01*
X0084167Y0108700D01*
X0083700Y0109167D01*
X0084634Y0110101D02*
X0085101Y0110101D01*
X0085568Y0111035D02*
X0085101Y0111502D01*
X0084167Y0111502D01*
X0083700Y0111035D01*
X0091066Y0111502D02*
X0091066Y0109634D01*
X0092000Y0108700D01*
X0092935Y0109634D01*
X0092935Y0111502D01*
X0093474Y0118700D02*
X0093007Y0119167D01*
X0093007Y0121035D01*
X0092540Y0120568D02*
X0093474Y0120568D01*
X0091461Y0120101D02*
X0091461Y0118700D01*
X0090060Y0118700D01*
X0089593Y0119167D01*
X0090060Y0119634D01*
X0091461Y0119634D01*
X0091461Y0120101D02*
X0090994Y0120568D01*
X0090060Y0120568D01*
X0088515Y0120568D02*
X0088048Y0120101D01*
X0086647Y0120101D01*
X0085568Y0119634D02*
X0085568Y0121502D01*
X0086647Y0121502D02*
X0088048Y0121502D01*
X0088515Y0121035D01*
X0088515Y0120568D01*
X0088048Y0120101D02*
X0088515Y0119634D01*
X0088515Y0119167D01*
X0088048Y0118700D01*
X0086647Y0118700D01*
X0086647Y0121502D01*
X0085568Y0119634D02*
X0084634Y0118700D01*
X0083700Y0119634D01*
X0083700Y0121502D01*
X0088700Y0128700D02*
X0090568Y0128700D01*
X0089634Y0128700D02*
X0089634Y0131502D01*
X0088700Y0130568D01*
X0091647Y0131035D02*
X0092114Y0131502D01*
X0093048Y0131502D01*
X0093515Y0131035D01*
X0093515Y0130568D01*
X0091647Y0128700D01*
X0093515Y0128700D01*
X0123700Y0153700D02*
X0125568Y0153700D01*
X0124634Y0153700D02*
X0124634Y0156502D01*
X0123700Y0155568D01*
X0126647Y0155568D02*
X0127581Y0156502D01*
X0127581Y0153700D01*
X0126647Y0153700D02*
X0128515Y0153700D01*
X0134634Y0163700D02*
X0134634Y0166502D01*
X0133700Y0166502D02*
X0135568Y0166502D01*
X0136647Y0166035D02*
X0136647Y0165568D01*
X0137114Y0165101D01*
X0138048Y0165101D01*
X0138515Y0164634D01*
X0138515Y0164167D01*
X0138048Y0163700D01*
X0137114Y0163700D01*
X0136647Y0164167D01*
X0136647Y0164634D01*
X0137114Y0165101D01*
X0138048Y0165101D02*
X0138515Y0165568D01*
X0138515Y0166035D01*
X0138048Y0166502D01*
X0137114Y0166502D01*
X0136647Y0166035D01*
X0143700Y0166502D02*
X0145568Y0166502D01*
X0144634Y0166502D02*
X0144634Y0163700D01*
X0146647Y0163700D02*
X0146647Y0164167D01*
X0148515Y0166035D01*
X0148515Y0166502D01*
X0146647Y0166502D01*
X0153700Y0166502D02*
X0155568Y0166502D01*
X0154634Y0166502D02*
X0154634Y0163700D01*
X0156647Y0164167D02*
X0156647Y0165101D01*
X0158048Y0165101D01*
X0158515Y0164634D01*
X0158515Y0164167D01*
X0158048Y0163700D01*
X0157114Y0163700D01*
X0156647Y0164167D01*
X0156647Y0165101D02*
X0157581Y0166035D01*
X0158515Y0166502D01*
X0163700Y0166502D02*
X0165568Y0166502D01*
X0164634Y0166502D02*
X0164634Y0163700D01*
X0166647Y0164167D02*
X0167114Y0163700D01*
X0168048Y0163700D01*
X0168515Y0164167D01*
X0168515Y0165101D01*
X0168048Y0165568D01*
X0167581Y0165568D01*
X0166647Y0165101D01*
X0166647Y0166502D01*
X0168515Y0166502D01*
X0173700Y0166502D02*
X0175568Y0166502D01*
X0174634Y0166502D02*
X0174634Y0163700D01*
X0176647Y0165101D02*
X0178515Y0165101D01*
X0178048Y0163700D02*
X0178048Y0166502D01*
X0176647Y0165101D01*
X0183700Y0166502D02*
X0185568Y0166502D01*
X0184634Y0166502D02*
X0184634Y0163700D01*
X0186647Y0164167D02*
X0187114Y0163700D01*
X0188048Y0163700D01*
X0188515Y0164167D01*
X0188515Y0164634D01*
X0188048Y0165101D01*
X0187581Y0165101D01*
X0188048Y0165101D02*
X0188515Y0165568D01*
X0188515Y0166035D01*
X0188048Y0166502D01*
X0187114Y0166502D01*
X0186647Y0166035D01*
X0193700Y0166502D02*
X0195568Y0166502D01*
X0194634Y0166502D02*
X0194634Y0163700D01*
X0196647Y0163700D02*
X0198515Y0165568D01*
X0198515Y0166035D01*
X0198048Y0166502D01*
X0197114Y0166502D01*
X0196647Y0166035D01*
X0196647Y0163700D02*
X0198515Y0163700D01*
X0203700Y0166502D02*
X0205568Y0166502D01*
X0204634Y0166502D02*
X0204634Y0163700D01*
X0206647Y0163700D02*
X0208515Y0163700D01*
X0207581Y0163700D02*
X0207581Y0166502D01*
X0206647Y0165568D01*
X0216200Y0156035D02*
X0216667Y0156502D01*
X0217601Y0156502D01*
X0218068Y0156035D01*
X0218068Y0155568D01*
X0216200Y0153700D01*
X0218068Y0153700D01*
X0111461Y0194167D02*
X0111461Y0196035D01*
X0110994Y0196502D01*
X0109593Y0196502D01*
X0109593Y0193700D01*
X0110994Y0193700D01*
X0111461Y0194167D01*
X0108515Y0193700D02*
X0108515Y0196502D01*
X0106647Y0196502D02*
X0106647Y0193700D01*
X0105568Y0194167D02*
X0105568Y0195101D01*
X0104634Y0195101D01*
X0103700Y0194167D02*
X0104167Y0193700D01*
X0105101Y0193700D01*
X0105568Y0194167D01*
X0103700Y0194167D02*
X0103700Y0196035D01*
X0104167Y0196502D01*
X0105101Y0196502D01*
X0105568Y0196035D01*
X0106647Y0196502D02*
X0108515Y0193700D01*
X0086461Y0194167D02*
X0086461Y0196035D01*
X0085994Y0196502D01*
X0084593Y0196502D01*
X0084593Y0193700D01*
X0085994Y0193700D01*
X0086461Y0194167D01*
X0083515Y0193700D02*
X0083515Y0196502D01*
X0081647Y0196502D02*
X0083515Y0193700D01*
X0081647Y0193700D02*
X0081647Y0196502D01*
X0080568Y0196035D02*
X0080101Y0196502D01*
X0079167Y0196502D01*
X0078700Y0196035D01*
X0078700Y0194167D01*
X0079167Y0193700D01*
X0080101Y0193700D01*
X0080568Y0194167D01*
X0080568Y0195101D01*
X0079634Y0195101D01*
X0061461Y0194167D02*
X0061461Y0196035D01*
X0060994Y0196502D01*
X0059593Y0196502D01*
X0059593Y0193700D01*
X0060994Y0193700D01*
X0061461Y0194167D01*
X0058515Y0193700D02*
X0058515Y0196502D01*
X0056647Y0196502D02*
X0056647Y0193700D01*
X0055568Y0194167D02*
X0055568Y0195101D01*
X0054634Y0195101D01*
X0053700Y0194167D02*
X0054167Y0193700D01*
X0055101Y0193700D01*
X0055568Y0194167D01*
X0053700Y0194167D02*
X0053700Y0196035D01*
X0054167Y0196502D01*
X0055101Y0196502D01*
X0055568Y0196035D01*
X0056647Y0196502D02*
X0058515Y0193700D01*
X0005800Y0165994D02*
X0005333Y0166461D01*
X0003465Y0166461D01*
X0002998Y0165994D01*
X0002998Y0164593D01*
X0005800Y0164593D01*
X0005800Y0165994D01*
X0005800Y0163515D02*
X0002998Y0163515D01*
X0002998Y0161647D02*
X0005800Y0163515D01*
X0005800Y0161647D02*
X0002998Y0161647D01*
X0003465Y0160568D02*
X0002998Y0160101D01*
X0002998Y0159167D01*
X0003465Y0158700D01*
X0005333Y0158700D01*
X0005800Y0159167D01*
X0005800Y0160101D01*
X0005333Y0160568D01*
X0004399Y0160568D01*
X0004399Y0159634D01*
X0004866Y0151015D02*
X0002998Y0151015D01*
X0004866Y0151015D02*
X0005800Y0150081D01*
X0004866Y0149147D01*
X0002998Y0149147D01*
X0002998Y0148068D02*
X0002998Y0146200D01*
X0004399Y0146200D01*
X0003932Y0147134D01*
X0003932Y0147601D01*
X0004399Y0148068D01*
X0005333Y0148068D01*
X0005800Y0147601D01*
X0005800Y0146667D01*
X0005333Y0146200D01*
X0005333Y0141461D02*
X0003465Y0141461D01*
X0002998Y0140994D01*
X0002998Y0139593D01*
X0005800Y0139593D01*
X0005800Y0140994D01*
X0005333Y0141461D01*
X0005800Y0138515D02*
X0002998Y0138515D01*
X0002998Y0136647D02*
X0005800Y0138515D01*
X0005800Y0136647D02*
X0002998Y0136647D01*
X0003465Y0135568D02*
X0002998Y0135101D01*
X0002998Y0134167D01*
X0003465Y0133700D01*
X0005333Y0133700D01*
X0005800Y0134167D01*
X0005800Y0135101D01*
X0005333Y0135568D01*
X0004399Y0135568D01*
X0004399Y0134634D01*
X0005333Y0128961D02*
X0005800Y0128494D01*
X0005800Y0127560D01*
X0005333Y0127093D01*
X0003465Y0127093D01*
X0002998Y0127560D01*
X0002998Y0128494D01*
X0003465Y0128961D01*
X0003465Y0126015D02*
X0002998Y0125548D01*
X0002998Y0124614D01*
X0003465Y0124147D01*
X0005333Y0124147D01*
X0005800Y0124614D01*
X0005800Y0125548D01*
X0005333Y0126015D01*
X0004866Y0123068D02*
X0002998Y0123068D01*
X0004866Y0123068D02*
X0005800Y0122134D01*
X0004866Y0121200D01*
X0002998Y0121200D01*
X0004165Y0082622D02*
X0003698Y0082155D01*
X0003698Y0080753D01*
X0006500Y0080753D01*
X0006500Y0082155D01*
X0006033Y0082622D01*
X0004165Y0082622D01*
X0003698Y0079675D02*
X0006500Y0079675D01*
X0003698Y0077807D01*
X0006500Y0077807D01*
X0006033Y0076729D02*
X0005099Y0076729D01*
X0005099Y0075795D01*
X0006033Y0076729D02*
X0006500Y0076262D01*
X0006500Y0075328D01*
X0006033Y0074860D01*
X0004165Y0074860D01*
X0003698Y0075328D01*
X0003698Y0076262D01*
X0004165Y0076729D01*
X0004165Y0057622D02*
X0003698Y0057155D01*
X0003698Y0055753D01*
X0006500Y0055753D01*
X0006500Y0057155D01*
X0006033Y0057622D01*
X0004165Y0057622D01*
X0003698Y0054675D02*
X0006500Y0054675D01*
X0003698Y0052807D01*
X0006500Y0052807D01*
X0006033Y0051729D02*
X0005099Y0051729D01*
X0005099Y0050795D01*
X0006033Y0051729D02*
X0006500Y0051262D01*
X0006500Y0050328D01*
X0006033Y0049860D01*
X0004165Y0049860D01*
X0003698Y0050328D01*
X0003698Y0051262D01*
X0004165Y0051729D01*
X0100235Y0158700D02*
X0100235Y0163304D01*
X0101769Y0163304D02*
X0098700Y0163304D01*
X0103304Y0162537D02*
X0103304Y0161769D01*
X0104071Y0161002D01*
X0105606Y0161002D01*
X0106373Y0160235D01*
X0106373Y0159467D01*
X0105606Y0158700D01*
X0104071Y0158700D01*
X0103304Y0159467D01*
X0103304Y0160235D01*
X0104071Y0161002D01*
X0105606Y0161002D02*
X0106373Y0161769D01*
X0106373Y0162537D01*
X0105606Y0163304D01*
X0104071Y0163304D01*
X0103304Y0162537D01*
D11*
X0079529Y0162785D02*
X0076593Y0159849D01*
X0076593Y0159115D01*
X0073457Y0159115D02*
X0073457Y0163519D01*
X0071989Y0163519D02*
X0074925Y0163519D01*
X0076593Y0163519D02*
X0079529Y0163519D01*
X0079529Y0162785D01*
X0054529Y0163519D02*
X0053061Y0162785D01*
X0051593Y0161317D01*
X0053795Y0161317D01*
X0054529Y0160583D01*
X0054529Y0159849D01*
X0053795Y0159115D01*
X0052327Y0159115D01*
X0051593Y0159849D01*
X0051593Y0161317D01*
X0049925Y0163519D02*
X0046989Y0163519D01*
X0048457Y0163519D02*
X0048457Y0159115D01*
X0049500Y0146000D02*
X0072500Y0146000D01*
X0072500Y0056000D01*
X0065000Y0056000D01*
X0064998Y0056126D01*
X0064992Y0056251D01*
X0064982Y0056376D01*
X0064968Y0056501D01*
X0064951Y0056626D01*
X0064929Y0056750D01*
X0064904Y0056873D01*
X0064874Y0056995D01*
X0064841Y0057116D01*
X0064804Y0057236D01*
X0064764Y0057355D01*
X0064719Y0057472D01*
X0064671Y0057589D01*
X0064619Y0057703D01*
X0064564Y0057816D01*
X0064505Y0057927D01*
X0064443Y0058036D01*
X0064377Y0058143D01*
X0064308Y0058248D01*
X0064236Y0058351D01*
X0064161Y0058452D01*
X0064082Y0058550D01*
X0064000Y0058645D01*
X0063916Y0058738D01*
X0063828Y0058828D01*
X0063738Y0058916D01*
X0063645Y0059000D01*
X0063550Y0059082D01*
X0063452Y0059161D01*
X0063351Y0059236D01*
X0063248Y0059308D01*
X0063143Y0059377D01*
X0063036Y0059443D01*
X0062927Y0059505D01*
X0062816Y0059564D01*
X0062703Y0059619D01*
X0062589Y0059671D01*
X0062472Y0059719D01*
X0062355Y0059764D01*
X0062236Y0059804D01*
X0062116Y0059841D01*
X0061995Y0059874D01*
X0061873Y0059904D01*
X0061750Y0059929D01*
X0061626Y0059951D01*
X0061501Y0059968D01*
X0061376Y0059982D01*
X0061251Y0059992D01*
X0061126Y0059998D01*
X0061000Y0060000D01*
X0060874Y0059998D01*
X0060749Y0059992D01*
X0060624Y0059982D01*
X0060499Y0059968D01*
X0060374Y0059951D01*
X0060250Y0059929D01*
X0060127Y0059904D01*
X0060005Y0059874D01*
X0059884Y0059841D01*
X0059764Y0059804D01*
X0059645Y0059764D01*
X0059528Y0059719D01*
X0059411Y0059671D01*
X0059297Y0059619D01*
X0059184Y0059564D01*
X0059073Y0059505D01*
X0058964Y0059443D01*
X0058857Y0059377D01*
X0058752Y0059308D01*
X0058649Y0059236D01*
X0058548Y0059161D01*
X0058450Y0059082D01*
X0058355Y0059000D01*
X0058262Y0058916D01*
X0058172Y0058828D01*
X0058084Y0058738D01*
X0058000Y0058645D01*
X0057918Y0058550D01*
X0057839Y0058452D01*
X0057764Y0058351D01*
X0057692Y0058248D01*
X0057623Y0058143D01*
X0057557Y0058036D01*
X0057495Y0057927D01*
X0057436Y0057816D01*
X0057381Y0057703D01*
X0057329Y0057589D01*
X0057281Y0057472D01*
X0057236Y0057355D01*
X0057196Y0057236D01*
X0057159Y0057116D01*
X0057126Y0056995D01*
X0057096Y0056873D01*
X0057071Y0056750D01*
X0057049Y0056626D01*
X0057032Y0056501D01*
X0057018Y0056376D01*
X0057008Y0056251D01*
X0057002Y0056126D01*
X0057000Y0056000D01*
X0049500Y0056000D01*
X0049500Y0146000D01*
X0015474Y0113938D02*
X0015474Y0113204D01*
X0015474Y0111736D02*
X0015474Y0108800D01*
X0014741Y0108800D02*
X0016208Y0108800D01*
X0019278Y0108800D02*
X0020746Y0111736D01*
X0022414Y0111002D02*
X0023148Y0111736D01*
X0024616Y0111736D01*
X0025350Y0111002D01*
X0025350Y0110268D01*
X0022414Y0110268D01*
X0022414Y0109534D02*
X0022414Y0111002D01*
X0022414Y0109534D02*
X0023148Y0108800D01*
X0024616Y0108800D01*
X0027018Y0108800D02*
X0027018Y0111736D01*
X0027018Y0110268D02*
X0028486Y0111736D01*
X0029220Y0111736D01*
X0030854Y0108066D02*
X0033790Y0108066D01*
X0033500Y0106000D02*
X0028500Y0106000D01*
X0026000Y0103500D01*
X0026000Y0098500D01*
X0028500Y0096000D01*
X0033500Y0096000D01*
X0036000Y0098500D01*
X0036000Y0103500D01*
X0033500Y0106000D01*
X0036926Y0108800D02*
X0038394Y0110268D01*
X0038394Y0113204D01*
X0035458Y0113204D02*
X0035458Y0110268D01*
X0036926Y0108800D01*
X0026000Y0103500D02*
X0023500Y0106000D01*
X0018500Y0106000D01*
X0016000Y0103500D01*
X0016000Y0098500D01*
X0018500Y0096000D01*
X0023500Y0096000D01*
X0026000Y0098500D01*
X0016000Y0098500D02*
X0013500Y0096000D01*
X0008500Y0096000D01*
X0006000Y0098500D01*
X0006000Y0103500D01*
X0008500Y0106000D01*
X0013500Y0106000D01*
X0016000Y0103500D01*
X0019278Y0108800D02*
X0017810Y0111736D01*
X0015474Y0111736D02*
X0014741Y0111736D01*
X0013106Y0111736D02*
X0012372Y0111736D01*
X0010904Y0110268D01*
X0010904Y0108800D02*
X0010904Y0111736D01*
X0009236Y0112470D02*
X0008502Y0113204D01*
X0006300Y0113204D01*
X0006300Y0108800D01*
X0008502Y0108800D01*
X0009236Y0109534D01*
X0009236Y0112470D01*
X0009236Y0093204D02*
X0006300Y0093204D01*
X0006300Y0091002D01*
X0007768Y0091736D01*
X0008502Y0091736D01*
X0009236Y0091002D01*
X0009236Y0089534D01*
X0008502Y0088800D01*
X0007034Y0088800D01*
X0006300Y0089534D01*
X0010904Y0090268D02*
X0010904Y0093204D01*
X0013840Y0093204D02*
X0013840Y0090268D01*
X0012372Y0088800D01*
X0010904Y0090268D01*
X0028800Y0090268D02*
X0030268Y0088800D01*
X0031736Y0090268D01*
X0031736Y0093204D01*
X0033404Y0092470D02*
X0033404Y0089534D01*
X0034138Y0088800D01*
X0035606Y0088800D01*
X0036340Y0089534D01*
X0038008Y0089534D02*
X0038742Y0088800D01*
X0040210Y0088800D01*
X0040944Y0089534D01*
X0040944Y0092470D02*
X0040210Y0093204D01*
X0038742Y0093204D01*
X0038008Y0092470D01*
X0038008Y0089534D01*
X0036340Y0092470D02*
X0035606Y0093204D01*
X0034138Y0093204D01*
X0033404Y0092470D01*
X0028800Y0093204D02*
X0028800Y0090268D01*
X0035981Y0077029D02*
X0035981Y0074093D01*
X0038183Y0074093D01*
X0037449Y0075561D01*
X0037449Y0076295D01*
X0038183Y0077029D01*
X0039651Y0077029D01*
X0040385Y0076295D01*
X0040385Y0074827D01*
X0039651Y0074093D01*
X0035981Y0072425D02*
X0035981Y0069489D01*
X0035981Y0070957D02*
X0040385Y0070957D01*
X0038183Y0052029D02*
X0038183Y0049093D01*
X0035981Y0051295D01*
X0040385Y0051295D01*
X0040385Y0045957D02*
X0035981Y0045957D01*
X0035981Y0044489D02*
X0035981Y0047425D01*
X0046403Y0040389D02*
X0049339Y0040389D01*
X0047871Y0040389D02*
X0047871Y0035985D01*
X0051007Y0036719D02*
X0051741Y0035985D01*
X0053209Y0035985D01*
X0053943Y0036719D01*
X0053943Y0037453D01*
X0053209Y0038187D01*
X0052475Y0038187D01*
X0053209Y0038187D02*
X0053943Y0038921D01*
X0053943Y0039655D01*
X0053209Y0040389D01*
X0051741Y0040389D01*
X0051007Y0039655D01*
X0071403Y0040389D02*
X0074339Y0040389D01*
X0072871Y0040389D02*
X0072871Y0035985D01*
X0076007Y0035985D02*
X0078943Y0038921D01*
X0078943Y0039655D01*
X0078209Y0040389D01*
X0076741Y0040389D01*
X0076007Y0039655D01*
X0076007Y0035985D02*
X0078943Y0035985D01*
X0096403Y0040389D02*
X0099339Y0040389D01*
X0097871Y0040389D02*
X0097871Y0035985D01*
X0101007Y0035985D02*
X0103943Y0035985D01*
X0102475Y0035985D02*
X0102475Y0040389D01*
X0101007Y0038921D01*
X0131000Y0023500D02*
X0131000Y0008500D01*
X0133500Y0006000D01*
X0138500Y0006000D01*
X0141000Y0008500D01*
X0141000Y0023500D01*
X0138500Y0026000D01*
X0133500Y0026000D01*
X0131000Y0023500D01*
X0141000Y0023500D02*
X0143500Y0026000D01*
X0148500Y0026000D01*
X0151000Y0023500D01*
X0151000Y0008500D01*
X0148500Y0006000D01*
X0143500Y0006000D01*
X0141000Y0008500D01*
X0151000Y0008500D02*
X0153500Y0006000D01*
X0158500Y0006000D01*
X0161000Y0008500D01*
X0161000Y0023500D01*
X0158500Y0026000D01*
X0153500Y0026000D01*
X0151000Y0023500D01*
X0161000Y0023500D02*
X0163500Y0026000D01*
X0168500Y0026000D01*
X0171000Y0023500D01*
X0171000Y0008500D01*
X0168500Y0006000D01*
X0163500Y0006000D01*
X0161000Y0008500D01*
X0171000Y0008500D02*
X0173500Y0006000D01*
X0178500Y0006000D01*
X0181000Y0008500D01*
X0181000Y0023500D01*
X0178500Y0026000D01*
X0173500Y0026000D01*
X0171000Y0023500D01*
X0181000Y0023500D02*
X0183500Y0026000D01*
X0188500Y0026000D01*
X0191000Y0023500D01*
X0191000Y0008500D01*
X0188500Y0006000D01*
X0183500Y0006000D01*
X0181000Y0008500D01*
X0191000Y0008500D02*
X0193500Y0006000D01*
X0198500Y0006000D01*
X0201000Y0008500D01*
X0201000Y0023500D01*
X0198500Y0026000D01*
X0193500Y0026000D01*
X0191000Y0023500D01*
X0201000Y0023500D02*
X0203500Y0026000D01*
X0208500Y0026000D01*
X0211000Y0023500D01*
X0211000Y0008500D01*
X0208500Y0006000D01*
X0203500Y0006000D01*
X0201000Y0008500D01*
X0213800Y0009534D02*
X0214534Y0008800D01*
X0216002Y0008800D01*
X0216736Y0009534D01*
X0216736Y0011002D01*
X0215268Y0011002D01*
X0216736Y0012470D02*
X0216002Y0013204D01*
X0214534Y0013204D01*
X0213800Y0012470D01*
X0213800Y0009534D01*
X0218404Y0008800D02*
X0218404Y0013204D01*
X0221340Y0008800D01*
X0221340Y0013204D01*
X0223008Y0013204D02*
X0225210Y0013204D01*
X0225944Y0012470D01*
X0225944Y0009534D01*
X0225210Y0008800D01*
X0223008Y0008800D01*
X0223008Y0013204D01*
X0222908Y0018800D02*
X0221440Y0018800D01*
X0220706Y0019534D01*
X0219138Y0019534D02*
X0219138Y0018800D01*
X0218404Y0018800D01*
X0218404Y0019534D01*
X0219138Y0019534D01*
X0216736Y0019534D02*
X0216002Y0018800D01*
X0214534Y0018800D01*
X0213800Y0019534D01*
X0215268Y0021002D02*
X0216002Y0021002D01*
X0216736Y0020268D01*
X0216736Y0019534D01*
X0216002Y0021002D02*
X0216736Y0021736D01*
X0216736Y0022470D01*
X0216002Y0023204D01*
X0214534Y0023204D01*
X0213800Y0022470D01*
X0220706Y0022470D02*
X0221440Y0023204D01*
X0222908Y0023204D01*
X0223642Y0022470D01*
X0223642Y0021736D01*
X0222908Y0021002D01*
X0223642Y0020268D01*
X0223642Y0019534D01*
X0222908Y0018800D01*
X0222908Y0021002D02*
X0222174Y0021002D01*
X0225310Y0020268D02*
X0226778Y0018800D01*
X0228246Y0020268D01*
X0228246Y0023204D01*
X0225310Y0023204D02*
X0225310Y0020268D01*
X0283500Y0044500D02*
X0283500Y0045500D01*
X0283500Y0044500D02*
X0308500Y0044500D01*
X0308500Y0045500D01*
X0301443Y0039655D02*
X0300709Y0040389D01*
X0299241Y0040389D01*
X0298507Y0039655D01*
X0298507Y0036719D01*
X0299241Y0035985D01*
X0300709Y0035985D01*
X0301443Y0036719D01*
X0296839Y0035985D02*
X0296839Y0038921D01*
X0295371Y0040389D01*
X0293903Y0038921D01*
X0293903Y0035985D01*
X0292235Y0036719D02*
X0292235Y0039655D01*
X0291501Y0040389D01*
X0290033Y0040389D01*
X0289299Y0039655D01*
X0289299Y0036719D01*
X0290033Y0035985D01*
X0291501Y0035985D01*
X0292235Y0036719D01*
X0293903Y0038187D02*
X0296839Y0038187D01*
X0308500Y0051500D02*
X0308500Y0061500D01*
X0299000Y0061500D01*
X0293000Y0061500D02*
X0283500Y0061500D01*
X0283500Y0051500D01*
X0284000Y0054500D02*
X0283985Y0054617D01*
X0283974Y0054734D01*
X0283967Y0054852D01*
X0283964Y0054970D01*
X0283965Y0055088D01*
X0283970Y0055206D01*
X0283979Y0055323D01*
X0283992Y0055441D01*
X0284008Y0055557D01*
X0284029Y0055673D01*
X0284053Y0055789D01*
X0284081Y0055903D01*
X0284113Y0056017D01*
X0284149Y0056129D01*
X0284189Y0056240D01*
X0284232Y0056350D01*
X0284279Y0056458D01*
X0284329Y0056565D01*
X0284383Y0056670D01*
X0284440Y0056773D01*
X0284501Y0056874D01*
X0284565Y0056973D01*
X0284633Y0057069D01*
X0284703Y0057164D01*
X0284777Y0057256D01*
X0284854Y0057345D01*
X0284934Y0057432D01*
X0285016Y0057517D01*
X0285101Y0057598D01*
X0285189Y0057677D01*
X0285280Y0057752D01*
X0285373Y0057825D01*
X0285468Y0057894D01*
X0285566Y0057960D01*
X0285666Y0058023D01*
X0285768Y0058083D01*
X0285871Y0058139D01*
X0285977Y0058191D01*
X0286084Y0058240D01*
X0286193Y0058286D01*
X0286303Y0058327D01*
X0286415Y0058365D01*
X0286528Y0058400D01*
X0286642Y0058430D01*
X0286756Y0058457D01*
X0286872Y0058480D01*
X0286988Y0058499D01*
X0287105Y0058514D01*
X0287223Y0058525D01*
X0287341Y0058532D01*
X0287458Y0058536D01*
X0287576Y0058535D01*
X0287694Y0058531D01*
X0287812Y0058522D01*
X0287929Y0058510D01*
X0288046Y0058494D01*
X0288162Y0058473D01*
X0288278Y0058449D01*
X0288392Y0058422D01*
X0288506Y0058390D01*
X0288618Y0058355D01*
X0288729Y0058315D01*
X0288839Y0058273D01*
X0288948Y0058226D01*
X0289054Y0058176D01*
X0289159Y0058122D01*
X0289263Y0058065D01*
X0289364Y0058005D01*
X0289463Y0057941D01*
X0289560Y0057874D01*
X0289655Y0057804D01*
X0289747Y0057730D01*
X0289837Y0057654D01*
X0289924Y0057574D01*
X0290009Y0057492D01*
X0290090Y0057407D01*
X0290169Y0057319D01*
X0290245Y0057229D01*
X0290318Y0057136D01*
X0290387Y0057041D01*
X0290454Y0056944D01*
X0290517Y0056844D01*
X0290577Y0056743D01*
X0290633Y0056639D01*
X0290686Y0056534D01*
X0290735Y0056427D01*
X0290781Y0056318D01*
X0290823Y0056208D01*
X0290862Y0056096D01*
X0290896Y0055983D01*
X0290927Y0055870D01*
X0290954Y0055755D01*
X0290978Y0055639D01*
X0290997Y0055523D01*
X0291013Y0055406D01*
X0291024Y0055289D01*
X0291032Y0055171D01*
X0291036Y0055053D01*
X0291035Y0054935D01*
X0291031Y0054817D01*
X0291023Y0054700D01*
X0291011Y0054582D01*
X0290995Y0054466D01*
X0290976Y0054349D01*
X0290952Y0054234D01*
X0290925Y0054119D01*
X0290893Y0054005D01*
X0290858Y0053893D01*
X0290819Y0053781D01*
X0290777Y0053671D01*
X0290731Y0053563D01*
X0290681Y0053456D01*
X0290628Y0053351D01*
X0290571Y0053247D01*
X0290511Y0053146D01*
X0290447Y0053047D01*
X0290381Y0052949D01*
X0290311Y0052854D01*
X0290238Y0052762D01*
X0290161Y0052672D01*
X0290082Y0052584D01*
X0290000Y0052500D01*
X0271000Y0073500D02*
X0268500Y0071000D01*
X0263500Y0071000D01*
X0261000Y0073500D01*
X0261000Y0078500D01*
X0263500Y0081000D01*
X0261000Y0083500D01*
X0261000Y0088500D01*
X0263500Y0091000D01*
X0268500Y0091000D01*
X0271000Y0088500D01*
X0271000Y0083500D01*
X0268500Y0081000D01*
X0271000Y0078500D01*
X0271000Y0073500D01*
X0268500Y0081000D02*
X0263500Y0081000D01*
X0263500Y0091000D02*
X0261000Y0093500D01*
X0261000Y0098500D01*
X0263500Y0101000D01*
X0261000Y0103500D01*
X0261000Y0108500D01*
X0263500Y0111000D01*
X0261000Y0113500D01*
X0261000Y0118500D01*
X0263500Y0121000D01*
X0261000Y0123500D01*
X0261000Y0128500D01*
X0263500Y0131000D01*
X0268500Y0131000D01*
X0271000Y0128500D01*
X0271000Y0123500D01*
X0268500Y0121000D01*
X0271000Y0118500D01*
X0271000Y0113500D01*
X0268500Y0111000D01*
X0271000Y0108500D01*
X0271000Y0103500D01*
X0268500Y0101000D01*
X0271000Y0098500D01*
X0271000Y0093500D01*
X0268500Y0091000D01*
X0286000Y0087000D02*
X0286000Y0110000D01*
X0356000Y0110000D01*
X0356000Y0102500D01*
X0355874Y0102498D01*
X0355749Y0102492D01*
X0355624Y0102482D01*
X0355499Y0102468D01*
X0355374Y0102451D01*
X0355250Y0102429D01*
X0355127Y0102404D01*
X0355005Y0102374D01*
X0354884Y0102341D01*
X0354764Y0102304D01*
X0354645Y0102264D01*
X0354528Y0102219D01*
X0354411Y0102171D01*
X0354297Y0102119D01*
X0354184Y0102064D01*
X0354073Y0102005D01*
X0353964Y0101943D01*
X0353857Y0101877D01*
X0353752Y0101808D01*
X0353649Y0101736D01*
X0353548Y0101661D01*
X0353450Y0101582D01*
X0353355Y0101500D01*
X0353262Y0101416D01*
X0353172Y0101328D01*
X0353084Y0101238D01*
X0353000Y0101145D01*
X0352918Y0101050D01*
X0352839Y0100952D01*
X0352764Y0100851D01*
X0352692Y0100748D01*
X0352623Y0100643D01*
X0352557Y0100536D01*
X0352495Y0100427D01*
X0352436Y0100316D01*
X0352381Y0100203D01*
X0352329Y0100089D01*
X0352281Y0099972D01*
X0352236Y0099855D01*
X0352196Y0099736D01*
X0352159Y0099616D01*
X0352126Y0099495D01*
X0352096Y0099373D01*
X0352071Y0099250D01*
X0352049Y0099126D01*
X0352032Y0099001D01*
X0352018Y0098876D01*
X0352008Y0098751D01*
X0352002Y0098626D01*
X0352000Y0098500D01*
X0352002Y0098374D01*
X0352008Y0098249D01*
X0352018Y0098124D01*
X0352032Y0097999D01*
X0352049Y0097874D01*
X0352071Y0097750D01*
X0352096Y0097627D01*
X0352126Y0097505D01*
X0352159Y0097384D01*
X0352196Y0097264D01*
X0352236Y0097145D01*
X0352281Y0097028D01*
X0352329Y0096911D01*
X0352381Y0096797D01*
X0352436Y0096684D01*
X0352495Y0096573D01*
X0352557Y0096464D01*
X0352623Y0096357D01*
X0352692Y0096252D01*
X0352764Y0096149D01*
X0352839Y0096048D01*
X0352918Y0095950D01*
X0353000Y0095855D01*
X0353084Y0095762D01*
X0353172Y0095672D01*
X0353262Y0095584D01*
X0353355Y0095500D01*
X0353450Y0095418D01*
X0353548Y0095339D01*
X0353649Y0095264D01*
X0353752Y0095192D01*
X0353857Y0095123D01*
X0353964Y0095057D01*
X0354073Y0094995D01*
X0354184Y0094936D01*
X0354297Y0094881D01*
X0354411Y0094829D01*
X0354528Y0094781D01*
X0354645Y0094736D01*
X0354764Y0094696D01*
X0354884Y0094659D01*
X0355005Y0094626D01*
X0355127Y0094596D01*
X0355250Y0094571D01*
X0355374Y0094549D01*
X0355499Y0094532D01*
X0355624Y0094518D01*
X0355749Y0094508D01*
X0355874Y0094502D01*
X0356000Y0094500D01*
X0356000Y0087000D01*
X0286000Y0087000D01*
X0268500Y0101000D02*
X0263500Y0101000D01*
X0263500Y0111000D02*
X0268500Y0111000D01*
X0268500Y0121000D02*
X0263500Y0121000D01*
X0283500Y0138000D02*
X0293000Y0138000D01*
X0299000Y0138000D02*
X0308500Y0138000D01*
X0308500Y0148000D01*
X0308000Y0145000D02*
X0308015Y0144883D01*
X0308026Y0144766D01*
X0308033Y0144648D01*
X0308036Y0144530D01*
X0308035Y0144412D01*
X0308030Y0144294D01*
X0308021Y0144177D01*
X0308008Y0144059D01*
X0307992Y0143943D01*
X0307971Y0143827D01*
X0307947Y0143711D01*
X0307919Y0143597D01*
X0307887Y0143483D01*
X0307851Y0143371D01*
X0307811Y0143260D01*
X0307768Y0143150D01*
X0307721Y0143042D01*
X0307671Y0142935D01*
X0307617Y0142830D01*
X0307560Y0142727D01*
X0307499Y0142626D01*
X0307435Y0142527D01*
X0307367Y0142431D01*
X0307297Y0142336D01*
X0307223Y0142244D01*
X0307146Y0142155D01*
X0307066Y0142068D01*
X0306984Y0141983D01*
X0306899Y0141902D01*
X0306811Y0141823D01*
X0306720Y0141748D01*
X0306627Y0141675D01*
X0306532Y0141606D01*
X0306434Y0141540D01*
X0306334Y0141477D01*
X0306232Y0141417D01*
X0306129Y0141361D01*
X0306023Y0141309D01*
X0305916Y0141260D01*
X0305807Y0141214D01*
X0305697Y0141173D01*
X0305585Y0141135D01*
X0305472Y0141100D01*
X0305358Y0141070D01*
X0305244Y0141043D01*
X0305128Y0141020D01*
X0305012Y0141001D01*
X0304895Y0140986D01*
X0304777Y0140975D01*
X0304659Y0140968D01*
X0304542Y0140964D01*
X0304424Y0140965D01*
X0304306Y0140969D01*
X0304188Y0140978D01*
X0304071Y0140990D01*
X0303954Y0141006D01*
X0303838Y0141027D01*
X0303722Y0141051D01*
X0303608Y0141078D01*
X0303494Y0141110D01*
X0303382Y0141145D01*
X0303271Y0141185D01*
X0303161Y0141227D01*
X0303052Y0141274D01*
X0302946Y0141324D01*
X0302841Y0141378D01*
X0302737Y0141435D01*
X0302636Y0141495D01*
X0302537Y0141559D01*
X0302440Y0141626D01*
X0302345Y0141696D01*
X0302253Y0141770D01*
X0302163Y0141846D01*
X0302076Y0141926D01*
X0301991Y0142008D01*
X0301910Y0142093D01*
X0301831Y0142181D01*
X0301755Y0142271D01*
X0301682Y0142364D01*
X0301613Y0142459D01*
X0301546Y0142556D01*
X0301483Y0142656D01*
X0301423Y0142757D01*
X0301367Y0142861D01*
X0301314Y0142966D01*
X0301265Y0143073D01*
X0301219Y0143182D01*
X0301177Y0143292D01*
X0301138Y0143404D01*
X0301104Y0143517D01*
X0301073Y0143630D01*
X0301046Y0143745D01*
X0301022Y0143861D01*
X0301003Y0143977D01*
X0300987Y0144094D01*
X0300976Y0144211D01*
X0300968Y0144329D01*
X0300964Y0144447D01*
X0300965Y0144565D01*
X0300969Y0144683D01*
X0300977Y0144800D01*
X0300989Y0144918D01*
X0301005Y0145034D01*
X0301024Y0145151D01*
X0301048Y0145266D01*
X0301075Y0145381D01*
X0301107Y0145495D01*
X0301142Y0145607D01*
X0301181Y0145719D01*
X0301223Y0145829D01*
X0301269Y0145937D01*
X0301319Y0146044D01*
X0301372Y0146149D01*
X0301429Y0146253D01*
X0301489Y0146354D01*
X0301553Y0146453D01*
X0301619Y0146551D01*
X0301689Y0146646D01*
X0301762Y0146738D01*
X0301839Y0146828D01*
X0301918Y0146916D01*
X0302000Y0147000D01*
X0308500Y0154000D02*
X0308500Y0155000D01*
X0283500Y0155000D01*
X0283500Y0154000D01*
X0283500Y0148000D02*
X0283500Y0138000D01*
X0290223Y0159115D02*
X0291691Y0159115D01*
X0292425Y0159849D01*
X0292425Y0162785D01*
X0291691Y0163519D01*
X0290223Y0163519D01*
X0289489Y0162785D01*
X0289489Y0159849D01*
X0290223Y0159115D01*
X0294093Y0159115D02*
X0294093Y0162051D01*
X0295561Y0163519D01*
X0297029Y0162051D01*
X0297029Y0159115D01*
X0298697Y0159115D02*
X0300899Y0159115D01*
X0301633Y0159849D01*
X0301633Y0160583D01*
X0300899Y0161317D01*
X0298697Y0161317D01*
X0297029Y0161317D02*
X0294093Y0161317D01*
X0298697Y0159115D02*
X0298697Y0163519D01*
X0300899Y0163519D01*
X0301633Y0162785D01*
X0301633Y0162051D01*
X0300899Y0161317D01*
X0328500Y0155000D02*
X0328500Y0154000D01*
X0328500Y0155000D02*
X0353500Y0155000D01*
X0353500Y0154000D01*
X0353500Y0148000D02*
X0353500Y0138000D01*
X0344000Y0138000D01*
X0338000Y0138000D02*
X0328500Y0138000D01*
X0328500Y0148000D01*
X0347000Y0147000D02*
X0346918Y0146916D01*
X0346839Y0146828D01*
X0346762Y0146738D01*
X0346689Y0146646D01*
X0346619Y0146551D01*
X0346553Y0146453D01*
X0346489Y0146354D01*
X0346429Y0146253D01*
X0346372Y0146149D01*
X0346319Y0146044D01*
X0346269Y0145937D01*
X0346223Y0145829D01*
X0346181Y0145719D01*
X0346142Y0145607D01*
X0346107Y0145495D01*
X0346075Y0145381D01*
X0346048Y0145266D01*
X0346024Y0145151D01*
X0346005Y0145034D01*
X0345989Y0144918D01*
X0345977Y0144800D01*
X0345969Y0144683D01*
X0345965Y0144565D01*
X0345964Y0144447D01*
X0345968Y0144329D01*
X0345976Y0144211D01*
X0345987Y0144094D01*
X0346003Y0143977D01*
X0346022Y0143861D01*
X0346046Y0143745D01*
X0346073Y0143630D01*
X0346104Y0143517D01*
X0346138Y0143404D01*
X0346177Y0143292D01*
X0346219Y0143182D01*
X0346265Y0143073D01*
X0346314Y0142966D01*
X0346367Y0142861D01*
X0346423Y0142757D01*
X0346483Y0142656D01*
X0346546Y0142556D01*
X0346613Y0142459D01*
X0346682Y0142364D01*
X0346755Y0142271D01*
X0346831Y0142181D01*
X0346910Y0142093D01*
X0346991Y0142008D01*
X0347076Y0141926D01*
X0347163Y0141846D01*
X0347253Y0141770D01*
X0347345Y0141696D01*
X0347440Y0141626D01*
X0347537Y0141559D01*
X0347636Y0141495D01*
X0347737Y0141435D01*
X0347841Y0141378D01*
X0347946Y0141324D01*
X0348052Y0141274D01*
X0348161Y0141227D01*
X0348271Y0141185D01*
X0348382Y0141145D01*
X0348494Y0141110D01*
X0348608Y0141078D01*
X0348722Y0141051D01*
X0348838Y0141027D01*
X0348954Y0141006D01*
X0349071Y0140990D01*
X0349188Y0140978D01*
X0349306Y0140969D01*
X0349424Y0140965D01*
X0349542Y0140964D01*
X0349659Y0140968D01*
X0349777Y0140975D01*
X0349895Y0140986D01*
X0350012Y0141001D01*
X0350128Y0141020D01*
X0350244Y0141043D01*
X0350358Y0141070D01*
X0350472Y0141100D01*
X0350585Y0141135D01*
X0350697Y0141173D01*
X0350807Y0141214D01*
X0350916Y0141260D01*
X0351023Y0141309D01*
X0351129Y0141361D01*
X0351232Y0141417D01*
X0351334Y0141477D01*
X0351434Y0141540D01*
X0351532Y0141606D01*
X0351627Y0141675D01*
X0351720Y0141748D01*
X0351811Y0141823D01*
X0351899Y0141902D01*
X0351984Y0141983D01*
X0352066Y0142068D01*
X0352146Y0142155D01*
X0352223Y0142244D01*
X0352297Y0142336D01*
X0352367Y0142431D01*
X0352435Y0142527D01*
X0352499Y0142626D01*
X0352560Y0142727D01*
X0352617Y0142830D01*
X0352671Y0142935D01*
X0352721Y0143042D01*
X0352768Y0143150D01*
X0352811Y0143260D01*
X0352851Y0143371D01*
X0352887Y0143483D01*
X0352919Y0143597D01*
X0352947Y0143711D01*
X0352971Y0143827D01*
X0352992Y0143943D01*
X0353008Y0144059D01*
X0353021Y0144177D01*
X0353030Y0144294D01*
X0353035Y0144412D01*
X0353036Y0144530D01*
X0353033Y0144648D01*
X0353026Y0144766D01*
X0353015Y0144883D01*
X0353000Y0145000D01*
X0360223Y0159115D02*
X0359489Y0159849D01*
X0359489Y0162785D01*
X0360223Y0163519D01*
X0361691Y0163519D01*
X0362425Y0162785D01*
X0362425Y0159849D01*
X0361691Y0159115D01*
X0360223Y0159115D01*
X0364093Y0159115D02*
X0364093Y0162051D01*
X0365561Y0163519D01*
X0367029Y0162051D01*
X0367029Y0159115D01*
X0368697Y0159115D02*
X0368697Y0162051D01*
X0370165Y0163519D01*
X0371633Y0162051D01*
X0371633Y0159115D01*
X0371633Y0161317D02*
X0368697Y0161317D01*
X0367029Y0161317D02*
X0364093Y0161317D01*
X0346132Y0100704D02*
X0346132Y0096300D01*
X0343196Y0100704D01*
X0343196Y0096300D01*
X0340794Y0096300D02*
X0340794Y0100704D01*
X0338592Y0098502D01*
X0341528Y0098502D01*
X0336924Y0099236D02*
X0336924Y0099970D01*
X0336190Y0100704D01*
X0334722Y0100704D01*
X0333988Y0099970D01*
X0332320Y0099970D02*
X0332320Y0099236D01*
X0331586Y0098502D01*
X0332320Y0097768D01*
X0332320Y0097034D01*
X0331586Y0096300D01*
X0330118Y0096300D01*
X0329384Y0097034D01*
X0327716Y0096300D02*
X0327716Y0100704D01*
X0326248Y0099236D01*
X0324780Y0100704D01*
X0324780Y0096300D01*
X0323112Y0096300D02*
X0320176Y0096300D01*
X0320176Y0100704D01*
X0329384Y0099970D02*
X0330118Y0100704D01*
X0331586Y0100704D01*
X0332320Y0099970D01*
X0331586Y0098502D02*
X0330852Y0098502D01*
X0333988Y0096300D02*
X0336924Y0099236D01*
X0336924Y0096300D02*
X0333988Y0096300D01*
X0338000Y0061500D02*
X0328500Y0061500D01*
X0328500Y0051500D01*
X0329000Y0054500D02*
X0328985Y0054617D01*
X0328974Y0054734D01*
X0328967Y0054852D01*
X0328964Y0054970D01*
X0328965Y0055088D01*
X0328970Y0055206D01*
X0328979Y0055323D01*
X0328992Y0055441D01*
X0329008Y0055557D01*
X0329029Y0055673D01*
X0329053Y0055789D01*
X0329081Y0055903D01*
X0329113Y0056017D01*
X0329149Y0056129D01*
X0329189Y0056240D01*
X0329232Y0056350D01*
X0329279Y0056458D01*
X0329329Y0056565D01*
X0329383Y0056670D01*
X0329440Y0056773D01*
X0329501Y0056874D01*
X0329565Y0056973D01*
X0329633Y0057069D01*
X0329703Y0057164D01*
X0329777Y0057256D01*
X0329854Y0057345D01*
X0329934Y0057432D01*
X0330016Y0057517D01*
X0330101Y0057598D01*
X0330189Y0057677D01*
X0330280Y0057752D01*
X0330373Y0057825D01*
X0330468Y0057894D01*
X0330566Y0057960D01*
X0330666Y0058023D01*
X0330768Y0058083D01*
X0330871Y0058139D01*
X0330977Y0058191D01*
X0331084Y0058240D01*
X0331193Y0058286D01*
X0331303Y0058327D01*
X0331415Y0058365D01*
X0331528Y0058400D01*
X0331642Y0058430D01*
X0331756Y0058457D01*
X0331872Y0058480D01*
X0331988Y0058499D01*
X0332105Y0058514D01*
X0332223Y0058525D01*
X0332341Y0058532D01*
X0332458Y0058536D01*
X0332576Y0058535D01*
X0332694Y0058531D01*
X0332812Y0058522D01*
X0332929Y0058510D01*
X0333046Y0058494D01*
X0333162Y0058473D01*
X0333278Y0058449D01*
X0333392Y0058422D01*
X0333506Y0058390D01*
X0333618Y0058355D01*
X0333729Y0058315D01*
X0333839Y0058273D01*
X0333948Y0058226D01*
X0334054Y0058176D01*
X0334159Y0058122D01*
X0334263Y0058065D01*
X0334364Y0058005D01*
X0334463Y0057941D01*
X0334560Y0057874D01*
X0334655Y0057804D01*
X0334747Y0057730D01*
X0334837Y0057654D01*
X0334924Y0057574D01*
X0335009Y0057492D01*
X0335090Y0057407D01*
X0335169Y0057319D01*
X0335245Y0057229D01*
X0335318Y0057136D01*
X0335387Y0057041D01*
X0335454Y0056944D01*
X0335517Y0056844D01*
X0335577Y0056743D01*
X0335633Y0056639D01*
X0335686Y0056534D01*
X0335735Y0056427D01*
X0335781Y0056318D01*
X0335823Y0056208D01*
X0335862Y0056096D01*
X0335896Y0055983D01*
X0335927Y0055870D01*
X0335954Y0055755D01*
X0335978Y0055639D01*
X0335997Y0055523D01*
X0336013Y0055406D01*
X0336024Y0055289D01*
X0336032Y0055171D01*
X0336036Y0055053D01*
X0336035Y0054935D01*
X0336031Y0054817D01*
X0336023Y0054700D01*
X0336011Y0054582D01*
X0335995Y0054466D01*
X0335976Y0054349D01*
X0335952Y0054234D01*
X0335925Y0054119D01*
X0335893Y0054005D01*
X0335858Y0053893D01*
X0335819Y0053781D01*
X0335777Y0053671D01*
X0335731Y0053563D01*
X0335681Y0053456D01*
X0335628Y0053351D01*
X0335571Y0053247D01*
X0335511Y0053146D01*
X0335447Y0053047D01*
X0335381Y0052949D01*
X0335311Y0052854D01*
X0335238Y0052762D01*
X0335161Y0052672D01*
X0335082Y0052584D01*
X0335000Y0052500D01*
X0328500Y0045500D02*
X0328500Y0044500D01*
X0353500Y0044500D01*
X0353500Y0045500D01*
X0359299Y0039655D02*
X0360033Y0040389D01*
X0361501Y0040389D01*
X0362235Y0039655D01*
X0362235Y0036719D01*
X0361501Y0035985D01*
X0360033Y0035985D01*
X0359299Y0036719D01*
X0359299Y0039655D01*
X0363903Y0038921D02*
X0363903Y0035985D01*
X0363903Y0038187D02*
X0366839Y0038187D01*
X0366839Y0038921D02*
X0366839Y0035985D01*
X0368507Y0035985D02*
X0370709Y0035985D01*
X0371443Y0036719D01*
X0371443Y0039655D01*
X0370709Y0040389D01*
X0368507Y0040389D01*
X0368507Y0035985D01*
X0366839Y0038921D02*
X0365371Y0040389D01*
X0363903Y0038921D01*
X0353500Y0051500D02*
X0353500Y0061500D01*
X0344000Y0061500D01*
X0211000Y0176000D02*
X0208500Y0173500D01*
X0203500Y0173500D01*
X0201000Y0176000D01*
X0201000Y0191000D01*
X0198500Y0193500D01*
X0193500Y0193500D01*
X0191000Y0191000D01*
X0191000Y0176000D01*
X0188500Y0173500D01*
X0183500Y0173500D01*
X0181000Y0176000D01*
X0181000Y0191000D01*
X0178500Y0193500D01*
X0173500Y0193500D01*
X0171000Y0191000D01*
X0171000Y0176000D01*
X0168500Y0173500D01*
X0163500Y0173500D01*
X0161000Y0176000D01*
X0161000Y0191000D01*
X0158500Y0193500D01*
X0153500Y0193500D01*
X0151000Y0191000D01*
X0151000Y0176000D01*
X0148500Y0173500D01*
X0143500Y0173500D01*
X0141000Y0176000D01*
X0138500Y0173500D01*
X0133500Y0173500D01*
X0131000Y0176000D01*
X0131000Y0191000D01*
X0133500Y0193500D01*
X0138500Y0193500D01*
X0141000Y0191000D01*
X0141000Y0176000D01*
X0151000Y0176000D02*
X0153500Y0173500D01*
X0158500Y0173500D01*
X0161000Y0176000D01*
X0171000Y0176000D02*
X0173500Y0173500D01*
X0178500Y0173500D01*
X0181000Y0176000D01*
X0191000Y0176000D02*
X0193500Y0173500D01*
X0198500Y0173500D01*
X0201000Y0176000D01*
X0211000Y0176000D02*
X0211000Y0191000D01*
X0208500Y0193500D01*
X0203500Y0193500D01*
X0201000Y0191000D01*
X0191000Y0191000D02*
X0188500Y0193500D01*
X0183500Y0193500D01*
X0181000Y0191000D01*
X0171000Y0191000D02*
X0168500Y0193500D01*
X0163500Y0193500D01*
X0161000Y0191000D01*
X0151000Y0191000D02*
X0148500Y0193500D01*
X0143500Y0193500D01*
X0141000Y0191000D01*
X0213800Y0189970D02*
X0213800Y0187034D01*
X0214534Y0186300D01*
X0216002Y0186300D01*
X0216736Y0187034D01*
X0216736Y0188502D01*
X0215268Y0188502D01*
X0216736Y0189970D02*
X0216002Y0190704D01*
X0214534Y0190704D01*
X0213800Y0189970D01*
X0218404Y0190704D02*
X0221340Y0186300D01*
X0221340Y0190704D01*
X0223008Y0190704D02*
X0225210Y0190704D01*
X0225944Y0189970D01*
X0225944Y0187034D01*
X0225210Y0186300D01*
X0223008Y0186300D01*
X0223008Y0190704D01*
X0218404Y0190704D02*
X0218404Y0186300D01*
X0218404Y0180704D02*
X0218404Y0177768D01*
X0219872Y0176300D01*
X0221340Y0177768D01*
X0221340Y0180704D01*
X0216736Y0180704D02*
X0213800Y0180704D01*
X0213800Y0178502D01*
X0215268Y0179236D01*
X0216002Y0179236D01*
X0216736Y0178502D01*
X0216736Y0177034D01*
X0216002Y0176300D01*
X0214534Y0176300D01*
X0213800Y0177034D01*
D12*
X0040094Y0030843D02*
X0040094Y0008205D01*
X0061748Y0008205D01*
X0061748Y0030843D01*
X0040094Y0030843D01*
X0040094Y0033795D01*
X0061748Y0033795D01*
X0061748Y0030843D01*
X0065094Y0030843D02*
X0065094Y0033795D01*
X0086748Y0033795D01*
X0086748Y0030843D01*
X0065094Y0030843D01*
X0065094Y0008205D01*
X0086748Y0008205D01*
X0086748Y0030843D01*
X0090094Y0030843D02*
X0090094Y0033795D01*
X0111748Y0033795D01*
X0111748Y0030843D01*
X0090094Y0030843D01*
X0090094Y0008205D01*
X0111748Y0008205D01*
X0111748Y0030843D01*
X0123500Y0041000D02*
X0128500Y0041000D01*
X0131000Y0043500D01*
X0133500Y0041000D01*
X0138500Y0041000D01*
X0141000Y0043500D01*
X0143500Y0041000D01*
X0148500Y0041000D01*
X0151000Y0043500D01*
X0153500Y0041000D01*
X0158500Y0041000D01*
X0161000Y0043500D01*
X0161000Y0048500D01*
X0158500Y0051000D01*
X0153500Y0051000D01*
X0151000Y0048500D01*
X0148500Y0051000D01*
X0143500Y0051000D01*
X0141000Y0048500D01*
X0138500Y0051000D01*
X0133500Y0051000D01*
X0131000Y0048500D01*
X0128500Y0051000D01*
X0123500Y0051000D01*
X0121000Y0048500D01*
X0121000Y0043500D01*
X0123500Y0041000D01*
X0103500Y0066000D02*
X0098500Y0066000D01*
X0096000Y0068500D01*
X0096000Y0073500D01*
X0098500Y0076000D01*
X0096000Y0078500D01*
X0096000Y0083500D01*
X0098500Y0086000D01*
X0096000Y0088500D01*
X0096000Y0093500D01*
X0098500Y0096000D01*
X0096000Y0098500D01*
X0096000Y0103500D01*
X0098500Y0106000D01*
X0096000Y0108500D01*
X0096000Y0113500D01*
X0098500Y0116000D01*
X0096000Y0118500D01*
X0096000Y0123500D01*
X0098500Y0126000D01*
X0096000Y0128500D01*
X0096000Y0133500D01*
X0098500Y0136000D01*
X0103500Y0136000D01*
X0106000Y0133500D01*
X0106000Y0128500D01*
X0103500Y0126000D01*
X0106000Y0123500D01*
X0106000Y0118500D01*
X0103500Y0116000D01*
X0106000Y0113500D01*
X0106000Y0108500D01*
X0103500Y0106000D01*
X0106000Y0103500D01*
X0106000Y0098500D01*
X0103500Y0096000D01*
X0106000Y0093500D01*
X0106000Y0088500D01*
X0103500Y0086000D01*
X0106000Y0083500D01*
X0106000Y0078500D01*
X0103500Y0076000D01*
X0106000Y0073500D01*
X0106000Y0068500D01*
X0103500Y0066000D01*
X0033795Y0062752D02*
X0030843Y0062752D01*
X0030843Y0084406D01*
X0033795Y0084406D01*
X0033795Y0062752D01*
X0030843Y0062752D02*
X0008205Y0062752D01*
X0008205Y0084406D01*
X0030843Y0084406D01*
X0030843Y0059406D02*
X0008205Y0059406D01*
X0008205Y0037752D01*
X0030843Y0037752D01*
X0030843Y0059406D01*
X0033795Y0059406D01*
X0033795Y0037752D01*
X0030843Y0037752D01*
X0030843Y0120252D02*
X0008205Y0120252D01*
X0008205Y0141906D01*
X0030843Y0141906D01*
X0030843Y0120252D01*
X0033795Y0120252D01*
X0033795Y0141906D01*
X0030843Y0141906D01*
X0030843Y0145252D02*
X0030843Y0166906D01*
X0033795Y0166906D01*
X0033795Y0145252D01*
X0030843Y0145252D01*
X0008205Y0145252D01*
X0008205Y0166906D01*
X0030843Y0166906D01*
X0040252Y0165705D02*
X0040252Y0168657D01*
X0061906Y0168657D01*
X0061906Y0165705D01*
X0040252Y0165705D01*
X0040252Y0168657D02*
X0040252Y0191295D01*
X0061906Y0191295D01*
X0061906Y0168657D01*
X0065252Y0168657D02*
X0065252Y0165705D01*
X0086906Y0165705D01*
X0086906Y0168657D01*
X0065252Y0168657D01*
X0065252Y0191295D01*
X0086906Y0191295D01*
X0086906Y0168657D01*
X0090252Y0168657D02*
X0090252Y0165705D01*
X0111906Y0165705D01*
X0111906Y0168657D01*
X0090252Y0168657D01*
X0090252Y0191295D01*
X0111906Y0191295D01*
X0111906Y0168657D01*
X0131000Y0158500D02*
X0133500Y0161000D01*
X0138500Y0161000D01*
X0141000Y0158500D01*
X0143500Y0161000D01*
X0148500Y0161000D01*
X0151000Y0158500D01*
X0153500Y0161000D01*
X0158500Y0161000D01*
X0161000Y0158500D01*
X0163500Y0161000D01*
X0168500Y0161000D01*
X0171000Y0158500D01*
X0173500Y0161000D01*
X0178500Y0161000D01*
X0181000Y0158500D01*
X0183500Y0161000D01*
X0188500Y0161000D01*
X0191000Y0158500D01*
X0193500Y0161000D01*
X0198500Y0161000D01*
X0201000Y0158500D01*
X0203500Y0161000D01*
X0208500Y0161000D01*
X0211000Y0158500D01*
X0211000Y0153500D01*
X0208500Y0151000D01*
X0203500Y0151000D01*
X0201000Y0153500D01*
X0198500Y0151000D01*
X0193500Y0151000D01*
X0191000Y0153500D01*
X0188500Y0151000D01*
X0183500Y0151000D01*
X0181000Y0153500D01*
X0178500Y0151000D01*
X0173500Y0151000D01*
X0171000Y0153500D01*
X0168500Y0151000D01*
X0163500Y0151000D01*
X0161000Y0153500D01*
X0158500Y0151000D01*
X0153500Y0151000D01*
X0151000Y0153500D01*
X0148500Y0151000D01*
X0143500Y0151000D01*
X0141000Y0153500D01*
X0138500Y0151000D01*
X0133500Y0151000D01*
X0131000Y0153500D01*
X0131000Y0158500D01*
X0250000Y0161000D02*
X0251000Y0161000D01*
X0251000Y0164000D01*
X0271000Y0164000D01*
X0271000Y0161000D01*
X0272000Y0161000D01*
X0271000Y0161000D02*
X0271000Y0158000D01*
X0251000Y0158000D01*
X0251000Y0161000D01*
X0251000Y0170500D02*
X0251000Y0173500D01*
X0250000Y0173500D01*
X0251000Y0173500D02*
X0251000Y0176500D01*
X0271000Y0176500D01*
X0271000Y0173500D01*
X0272000Y0173500D01*
X0271000Y0173500D02*
X0271000Y0170500D01*
X0251000Y0170500D01*
X0251000Y0180500D02*
X0251000Y0183500D01*
X0250000Y0183500D01*
X0251000Y0183500D02*
X0251000Y0186500D01*
X0271000Y0186500D01*
X0271000Y0183500D01*
X0272000Y0183500D01*
X0271000Y0183500D02*
X0271000Y0180500D01*
X0251000Y0180500D01*
X0285252Y0191295D02*
X0285252Y0168657D01*
X0306906Y0168657D01*
X0306906Y0165705D01*
X0285252Y0165705D01*
X0285252Y0168657D01*
X0306906Y0168657D02*
X0306906Y0191295D01*
X0285252Y0191295D01*
X0320000Y0183500D02*
X0321000Y0183500D01*
X0321000Y0186500D01*
X0341000Y0186500D01*
X0341000Y0183500D01*
X0342000Y0183500D01*
X0341000Y0183500D02*
X0341000Y0180500D01*
X0321000Y0180500D01*
X0321000Y0183500D01*
X0321000Y0176500D02*
X0321000Y0173500D01*
X0320000Y0173500D01*
X0321000Y0173500D02*
X0321000Y0170500D01*
X0341000Y0170500D01*
X0341000Y0173500D01*
X0342000Y0173500D01*
X0341000Y0173500D02*
X0341000Y0176500D01*
X0321000Y0176500D01*
X0355252Y0168657D02*
X0355252Y0165705D01*
X0376906Y0165705D01*
X0376906Y0168657D01*
X0355252Y0168657D01*
X0355252Y0191295D01*
X0376906Y0191295D01*
X0376906Y0168657D01*
X0366000Y0117000D02*
X0366000Y0116000D01*
X0369000Y0116000D01*
X0369000Y0096000D01*
X0366000Y0096000D01*
X0366000Y0095000D01*
X0366000Y0096000D02*
X0363000Y0096000D01*
X0363000Y0116000D01*
X0366000Y0116000D01*
X0376000Y0102000D02*
X0376000Y0101000D01*
X0379000Y0101000D01*
X0379000Y0081000D01*
X0376000Y0081000D01*
X0376000Y0080000D01*
X0376000Y0081000D02*
X0373000Y0081000D01*
X0373000Y0101000D01*
X0376000Y0101000D01*
X0271000Y0041500D02*
X0271000Y0038500D01*
X0272000Y0038500D01*
X0271000Y0038500D02*
X0271000Y0035500D01*
X0251000Y0035500D01*
X0251000Y0038500D01*
X0250000Y0038500D01*
X0251000Y0038500D02*
X0251000Y0041500D01*
X0271000Y0041500D01*
X0285094Y0033795D02*
X0285094Y0030843D01*
X0306748Y0030843D01*
X0306748Y0008205D01*
X0285094Y0008205D01*
X0285094Y0030843D01*
X0285094Y0033795D02*
X0306748Y0033795D01*
X0306748Y0030843D01*
X0320000Y0026000D02*
X0321000Y0026000D01*
X0321000Y0029000D01*
X0341000Y0029000D01*
X0341000Y0026000D01*
X0342000Y0026000D01*
X0341000Y0026000D02*
X0341000Y0023000D01*
X0321000Y0023000D01*
X0321000Y0026000D01*
X0321000Y0019000D02*
X0321000Y0016000D01*
X0320000Y0016000D01*
X0321000Y0016000D02*
X0321000Y0013000D01*
X0341000Y0013000D01*
X0341000Y0016000D01*
X0342000Y0016000D01*
X0341000Y0016000D02*
X0341000Y0019000D01*
X0321000Y0019000D01*
X0355094Y0008205D02*
X0355094Y0030843D01*
X0376748Y0030843D01*
X0376748Y0008205D01*
X0355094Y0008205D01*
X0355094Y0030843D02*
X0355094Y0033795D01*
X0376748Y0033795D01*
X0376748Y0030843D01*
X0272000Y0026000D02*
X0271000Y0026000D01*
X0271000Y0023000D01*
X0251000Y0023000D01*
X0251000Y0026000D01*
X0250000Y0026000D01*
X0251000Y0026000D02*
X0251000Y0029000D01*
X0271000Y0029000D01*
X0271000Y0026000D01*
X0271000Y0019000D02*
X0271000Y0016000D01*
X0272000Y0016000D01*
X0271000Y0016000D02*
X0271000Y0013000D01*
X0251000Y0013000D01*
X0251000Y0016000D01*
X0250000Y0016000D01*
X0251000Y0016000D02*
X0251000Y0019000D01*
X0271000Y0019000D01*
D13*
X0373948Y0086617D02*
X0376850Y0086617D01*
X0376850Y0085650D02*
X0376850Y0087585D01*
X0376366Y0088597D02*
X0374431Y0090531D01*
X0376366Y0090531D01*
X0376850Y0090048D01*
X0376850Y0089080D01*
X0376366Y0088597D01*
X0374431Y0088597D01*
X0373948Y0089080D01*
X0373948Y0090048D01*
X0374431Y0090531D01*
X0373948Y0091543D02*
X0376850Y0091543D01*
X0375883Y0091543D02*
X0374915Y0092994D01*
X0375883Y0091543D02*
X0376850Y0092994D01*
X0373948Y0086617D02*
X0374915Y0085650D01*
D14*
X0334500Y0057000D02*
X0330500Y0053000D01*
X0289500Y0057000D02*
X0285500Y0053000D01*
X0302500Y0142500D02*
X0306500Y0146500D01*
X0347500Y0142500D02*
X0351500Y0146500D01*
D15*
X0347253Y0149250D02*
X0344250Y0149250D01*
X0345751Y0149250D02*
X0345751Y0153754D01*
X0344250Y0152253D01*
X0337753Y0152253D02*
X0337002Y0151502D01*
X0337753Y0150751D01*
X0337753Y0150001D01*
X0337002Y0149250D01*
X0335501Y0149250D01*
X0334750Y0150001D01*
X0336251Y0151502D02*
X0337002Y0151502D01*
X0337753Y0152253D02*
X0337753Y0153003D01*
X0337002Y0153754D01*
X0335501Y0153754D01*
X0334750Y0153003D01*
X0302253Y0149250D02*
X0299250Y0149250D01*
X0300751Y0149250D02*
X0300751Y0153754D01*
X0299250Y0152253D01*
X0292753Y0152253D02*
X0292002Y0151502D01*
X0292753Y0150751D01*
X0292753Y0150001D01*
X0292002Y0149250D01*
X0290501Y0149250D01*
X0289750Y0150001D01*
X0291251Y0151502D02*
X0292002Y0151502D01*
X0292753Y0152253D02*
X0292753Y0153003D01*
X0292002Y0153754D01*
X0290501Y0153754D01*
X0289750Y0153003D01*
X0251000Y0136000D02*
X0251000Y0066000D01*
X0111000Y0066000D01*
X0111000Y0136000D01*
X0251000Y0136000D01*
X0290147Y0050254D02*
X0290147Y0045750D01*
X0288646Y0045750D02*
X0291649Y0045750D01*
X0288646Y0048753D02*
X0290147Y0050254D01*
X0298146Y0049503D02*
X0298897Y0050254D01*
X0300398Y0050254D01*
X0301149Y0049503D01*
X0301149Y0048753D01*
X0300398Y0048002D01*
X0301149Y0047251D01*
X0301149Y0046501D01*
X0300398Y0045750D01*
X0298897Y0045750D01*
X0298146Y0046501D01*
X0299647Y0048002D02*
X0300398Y0048002D01*
X0333646Y0048753D02*
X0335147Y0050254D01*
X0335147Y0045750D01*
X0333646Y0045750D02*
X0336649Y0045750D01*
X0343146Y0046501D02*
X0343897Y0045750D01*
X0345398Y0045750D01*
X0346149Y0046501D01*
X0346149Y0047251D01*
X0345398Y0048002D01*
X0344647Y0048002D01*
X0345398Y0048002D02*
X0346149Y0048753D01*
X0346149Y0049503D01*
X0345398Y0050254D01*
X0343897Y0050254D01*
X0343146Y0049503D01*
M02*
