G75*
%MOIN*%
%OFA0B0*%
%FSLAX25Y25*%
%IPPOS*%
%LPD*%
%AMOC8*
5,1,8,0,0,1.08239X$1,22.5*
%
%ADD10C,0.00000*%
%ADD11C,0.05600*%
%ADD12R,0.06400X0.06400*%
%ADD13C,0.07400*%
%ADD14OC8,0.06400*%
%ADD15C,0.06400*%
%ADD16R,0.07400X0.07400*%
%ADD17C,0.02000*%
%ADD18C,0.01000*%
%ADD19C,0.04000*%
D10*
X0001000Y0001000D02*
X0001000Y0197850D01*
X0386000Y0197850D01*
X0386000Y0001000D01*
X0001000Y0001000D01*
X0011500Y0022000D02*
X0011502Y0022134D01*
X0011508Y0022268D01*
X0011518Y0022401D01*
X0011532Y0022535D01*
X0011550Y0022668D01*
X0011572Y0022800D01*
X0011597Y0022931D01*
X0011627Y0023062D01*
X0011661Y0023192D01*
X0011698Y0023320D01*
X0011739Y0023448D01*
X0011784Y0023574D01*
X0011833Y0023699D01*
X0011885Y0023822D01*
X0011941Y0023944D01*
X0012001Y0024064D01*
X0012064Y0024182D01*
X0012131Y0024298D01*
X0012201Y0024412D01*
X0012275Y0024524D01*
X0012352Y0024634D01*
X0012432Y0024742D01*
X0012515Y0024847D01*
X0012601Y0024949D01*
X0012690Y0025049D01*
X0012783Y0025146D01*
X0012878Y0025241D01*
X0012976Y0025332D01*
X0013076Y0025421D01*
X0013179Y0025506D01*
X0013285Y0025589D01*
X0013393Y0025668D01*
X0013503Y0025744D01*
X0013616Y0025817D01*
X0013731Y0025886D01*
X0013847Y0025952D01*
X0013966Y0026014D01*
X0014086Y0026073D01*
X0014209Y0026128D01*
X0014332Y0026180D01*
X0014457Y0026227D01*
X0014584Y0026271D01*
X0014712Y0026312D01*
X0014841Y0026348D01*
X0014971Y0026381D01*
X0015102Y0026409D01*
X0015233Y0026434D01*
X0015366Y0026455D01*
X0015499Y0026472D01*
X0015632Y0026485D01*
X0015766Y0026494D01*
X0015900Y0026499D01*
X0016034Y0026500D01*
X0016167Y0026497D01*
X0016301Y0026490D01*
X0016435Y0026479D01*
X0016568Y0026464D01*
X0016701Y0026445D01*
X0016833Y0026422D01*
X0016964Y0026396D01*
X0017094Y0026365D01*
X0017224Y0026330D01*
X0017352Y0026292D01*
X0017479Y0026250D01*
X0017605Y0026204D01*
X0017730Y0026154D01*
X0017853Y0026101D01*
X0017974Y0026044D01*
X0018094Y0025983D01*
X0018211Y0025919D01*
X0018327Y0025852D01*
X0018441Y0025781D01*
X0018552Y0025706D01*
X0018661Y0025629D01*
X0018768Y0025548D01*
X0018873Y0025464D01*
X0018974Y0025377D01*
X0019074Y0025287D01*
X0019170Y0025194D01*
X0019264Y0025098D01*
X0019355Y0024999D01*
X0019442Y0024898D01*
X0019527Y0024794D01*
X0019609Y0024688D01*
X0019687Y0024580D01*
X0019762Y0024469D01*
X0019834Y0024356D01*
X0019903Y0024240D01*
X0019968Y0024123D01*
X0020029Y0024004D01*
X0020087Y0023883D01*
X0020141Y0023761D01*
X0020192Y0023637D01*
X0020239Y0023511D01*
X0020282Y0023384D01*
X0020321Y0023256D01*
X0020357Y0023127D01*
X0020388Y0022997D01*
X0020416Y0022866D01*
X0020440Y0022734D01*
X0020460Y0022601D01*
X0020476Y0022468D01*
X0020488Y0022335D01*
X0020496Y0022201D01*
X0020500Y0022067D01*
X0020500Y0021933D01*
X0020496Y0021799D01*
X0020488Y0021665D01*
X0020476Y0021532D01*
X0020460Y0021399D01*
X0020440Y0021266D01*
X0020416Y0021134D01*
X0020388Y0021003D01*
X0020357Y0020873D01*
X0020321Y0020744D01*
X0020282Y0020616D01*
X0020239Y0020489D01*
X0020192Y0020363D01*
X0020141Y0020239D01*
X0020087Y0020117D01*
X0020029Y0019996D01*
X0019968Y0019877D01*
X0019903Y0019760D01*
X0019834Y0019644D01*
X0019762Y0019531D01*
X0019687Y0019420D01*
X0019609Y0019312D01*
X0019527Y0019206D01*
X0019442Y0019102D01*
X0019355Y0019001D01*
X0019264Y0018902D01*
X0019170Y0018806D01*
X0019074Y0018713D01*
X0018974Y0018623D01*
X0018873Y0018536D01*
X0018768Y0018452D01*
X0018661Y0018371D01*
X0018552Y0018294D01*
X0018441Y0018219D01*
X0018327Y0018148D01*
X0018211Y0018081D01*
X0018094Y0018017D01*
X0017974Y0017956D01*
X0017853Y0017899D01*
X0017730Y0017846D01*
X0017605Y0017796D01*
X0017479Y0017750D01*
X0017352Y0017708D01*
X0017224Y0017670D01*
X0017094Y0017635D01*
X0016964Y0017604D01*
X0016833Y0017578D01*
X0016701Y0017555D01*
X0016568Y0017536D01*
X0016435Y0017521D01*
X0016301Y0017510D01*
X0016167Y0017503D01*
X0016034Y0017500D01*
X0015900Y0017501D01*
X0015766Y0017506D01*
X0015632Y0017515D01*
X0015499Y0017528D01*
X0015366Y0017545D01*
X0015233Y0017566D01*
X0015102Y0017591D01*
X0014971Y0017619D01*
X0014841Y0017652D01*
X0014712Y0017688D01*
X0014584Y0017729D01*
X0014457Y0017773D01*
X0014332Y0017820D01*
X0014209Y0017872D01*
X0014086Y0017927D01*
X0013966Y0017986D01*
X0013847Y0018048D01*
X0013731Y0018114D01*
X0013616Y0018183D01*
X0013503Y0018256D01*
X0013393Y0018332D01*
X0013285Y0018411D01*
X0013179Y0018494D01*
X0013076Y0018579D01*
X0012976Y0018668D01*
X0012878Y0018759D01*
X0012783Y0018854D01*
X0012690Y0018951D01*
X0012601Y0019051D01*
X0012515Y0019153D01*
X0012432Y0019258D01*
X0012352Y0019366D01*
X0012275Y0019476D01*
X0012201Y0019588D01*
X0012131Y0019702D01*
X0012064Y0019818D01*
X0012001Y0019936D01*
X0011941Y0020056D01*
X0011885Y0020178D01*
X0011833Y0020301D01*
X0011784Y0020426D01*
X0011739Y0020552D01*
X0011698Y0020680D01*
X0011661Y0020808D01*
X0011627Y0020938D01*
X0011597Y0021069D01*
X0011572Y0021200D01*
X0011550Y0021332D01*
X0011532Y0021465D01*
X0011518Y0021599D01*
X0011508Y0021732D01*
X0011502Y0021866D01*
X0011500Y0022000D01*
X0011500Y0180000D02*
X0011502Y0180134D01*
X0011508Y0180268D01*
X0011518Y0180401D01*
X0011532Y0180535D01*
X0011550Y0180668D01*
X0011572Y0180800D01*
X0011597Y0180931D01*
X0011627Y0181062D01*
X0011661Y0181192D01*
X0011698Y0181320D01*
X0011739Y0181448D01*
X0011784Y0181574D01*
X0011833Y0181699D01*
X0011885Y0181822D01*
X0011941Y0181944D01*
X0012001Y0182064D01*
X0012064Y0182182D01*
X0012131Y0182298D01*
X0012201Y0182412D01*
X0012275Y0182524D01*
X0012352Y0182634D01*
X0012432Y0182742D01*
X0012515Y0182847D01*
X0012601Y0182949D01*
X0012690Y0183049D01*
X0012783Y0183146D01*
X0012878Y0183241D01*
X0012976Y0183332D01*
X0013076Y0183421D01*
X0013179Y0183506D01*
X0013285Y0183589D01*
X0013393Y0183668D01*
X0013503Y0183744D01*
X0013616Y0183817D01*
X0013731Y0183886D01*
X0013847Y0183952D01*
X0013966Y0184014D01*
X0014086Y0184073D01*
X0014209Y0184128D01*
X0014332Y0184180D01*
X0014457Y0184227D01*
X0014584Y0184271D01*
X0014712Y0184312D01*
X0014841Y0184348D01*
X0014971Y0184381D01*
X0015102Y0184409D01*
X0015233Y0184434D01*
X0015366Y0184455D01*
X0015499Y0184472D01*
X0015632Y0184485D01*
X0015766Y0184494D01*
X0015900Y0184499D01*
X0016034Y0184500D01*
X0016167Y0184497D01*
X0016301Y0184490D01*
X0016435Y0184479D01*
X0016568Y0184464D01*
X0016701Y0184445D01*
X0016833Y0184422D01*
X0016964Y0184396D01*
X0017094Y0184365D01*
X0017224Y0184330D01*
X0017352Y0184292D01*
X0017479Y0184250D01*
X0017605Y0184204D01*
X0017730Y0184154D01*
X0017853Y0184101D01*
X0017974Y0184044D01*
X0018094Y0183983D01*
X0018211Y0183919D01*
X0018327Y0183852D01*
X0018441Y0183781D01*
X0018552Y0183706D01*
X0018661Y0183629D01*
X0018768Y0183548D01*
X0018873Y0183464D01*
X0018974Y0183377D01*
X0019074Y0183287D01*
X0019170Y0183194D01*
X0019264Y0183098D01*
X0019355Y0182999D01*
X0019442Y0182898D01*
X0019527Y0182794D01*
X0019609Y0182688D01*
X0019687Y0182580D01*
X0019762Y0182469D01*
X0019834Y0182356D01*
X0019903Y0182240D01*
X0019968Y0182123D01*
X0020029Y0182004D01*
X0020087Y0181883D01*
X0020141Y0181761D01*
X0020192Y0181637D01*
X0020239Y0181511D01*
X0020282Y0181384D01*
X0020321Y0181256D01*
X0020357Y0181127D01*
X0020388Y0180997D01*
X0020416Y0180866D01*
X0020440Y0180734D01*
X0020460Y0180601D01*
X0020476Y0180468D01*
X0020488Y0180335D01*
X0020496Y0180201D01*
X0020500Y0180067D01*
X0020500Y0179933D01*
X0020496Y0179799D01*
X0020488Y0179665D01*
X0020476Y0179532D01*
X0020460Y0179399D01*
X0020440Y0179266D01*
X0020416Y0179134D01*
X0020388Y0179003D01*
X0020357Y0178873D01*
X0020321Y0178744D01*
X0020282Y0178616D01*
X0020239Y0178489D01*
X0020192Y0178363D01*
X0020141Y0178239D01*
X0020087Y0178117D01*
X0020029Y0177996D01*
X0019968Y0177877D01*
X0019903Y0177760D01*
X0019834Y0177644D01*
X0019762Y0177531D01*
X0019687Y0177420D01*
X0019609Y0177312D01*
X0019527Y0177206D01*
X0019442Y0177102D01*
X0019355Y0177001D01*
X0019264Y0176902D01*
X0019170Y0176806D01*
X0019074Y0176713D01*
X0018974Y0176623D01*
X0018873Y0176536D01*
X0018768Y0176452D01*
X0018661Y0176371D01*
X0018552Y0176294D01*
X0018441Y0176219D01*
X0018327Y0176148D01*
X0018211Y0176081D01*
X0018094Y0176017D01*
X0017974Y0175956D01*
X0017853Y0175899D01*
X0017730Y0175846D01*
X0017605Y0175796D01*
X0017479Y0175750D01*
X0017352Y0175708D01*
X0017224Y0175670D01*
X0017094Y0175635D01*
X0016964Y0175604D01*
X0016833Y0175578D01*
X0016701Y0175555D01*
X0016568Y0175536D01*
X0016435Y0175521D01*
X0016301Y0175510D01*
X0016167Y0175503D01*
X0016034Y0175500D01*
X0015900Y0175501D01*
X0015766Y0175506D01*
X0015632Y0175515D01*
X0015499Y0175528D01*
X0015366Y0175545D01*
X0015233Y0175566D01*
X0015102Y0175591D01*
X0014971Y0175619D01*
X0014841Y0175652D01*
X0014712Y0175688D01*
X0014584Y0175729D01*
X0014457Y0175773D01*
X0014332Y0175820D01*
X0014209Y0175872D01*
X0014086Y0175927D01*
X0013966Y0175986D01*
X0013847Y0176048D01*
X0013731Y0176114D01*
X0013616Y0176183D01*
X0013503Y0176256D01*
X0013393Y0176332D01*
X0013285Y0176411D01*
X0013179Y0176494D01*
X0013076Y0176579D01*
X0012976Y0176668D01*
X0012878Y0176759D01*
X0012783Y0176854D01*
X0012690Y0176951D01*
X0012601Y0177051D01*
X0012515Y0177153D01*
X0012432Y0177258D01*
X0012352Y0177366D01*
X0012275Y0177476D01*
X0012201Y0177588D01*
X0012131Y0177702D01*
X0012064Y0177818D01*
X0012001Y0177936D01*
X0011941Y0178056D01*
X0011885Y0178178D01*
X0011833Y0178301D01*
X0011784Y0178426D01*
X0011739Y0178552D01*
X0011698Y0178680D01*
X0011661Y0178808D01*
X0011627Y0178938D01*
X0011597Y0179069D01*
X0011572Y0179200D01*
X0011550Y0179332D01*
X0011532Y0179465D01*
X0011518Y0179599D01*
X0011508Y0179732D01*
X0011502Y0179866D01*
X0011500Y0180000D01*
X0365500Y0140000D02*
X0365502Y0140134D01*
X0365508Y0140268D01*
X0365518Y0140401D01*
X0365532Y0140535D01*
X0365550Y0140668D01*
X0365572Y0140800D01*
X0365597Y0140931D01*
X0365627Y0141062D01*
X0365661Y0141192D01*
X0365698Y0141320D01*
X0365739Y0141448D01*
X0365784Y0141574D01*
X0365833Y0141699D01*
X0365885Y0141822D01*
X0365941Y0141944D01*
X0366001Y0142064D01*
X0366064Y0142182D01*
X0366131Y0142298D01*
X0366201Y0142412D01*
X0366275Y0142524D01*
X0366352Y0142634D01*
X0366432Y0142742D01*
X0366515Y0142847D01*
X0366601Y0142949D01*
X0366690Y0143049D01*
X0366783Y0143146D01*
X0366878Y0143241D01*
X0366976Y0143332D01*
X0367076Y0143421D01*
X0367179Y0143506D01*
X0367285Y0143589D01*
X0367393Y0143668D01*
X0367503Y0143744D01*
X0367616Y0143817D01*
X0367731Y0143886D01*
X0367847Y0143952D01*
X0367966Y0144014D01*
X0368086Y0144073D01*
X0368209Y0144128D01*
X0368332Y0144180D01*
X0368457Y0144227D01*
X0368584Y0144271D01*
X0368712Y0144312D01*
X0368841Y0144348D01*
X0368971Y0144381D01*
X0369102Y0144409D01*
X0369233Y0144434D01*
X0369366Y0144455D01*
X0369499Y0144472D01*
X0369632Y0144485D01*
X0369766Y0144494D01*
X0369900Y0144499D01*
X0370034Y0144500D01*
X0370167Y0144497D01*
X0370301Y0144490D01*
X0370435Y0144479D01*
X0370568Y0144464D01*
X0370701Y0144445D01*
X0370833Y0144422D01*
X0370964Y0144396D01*
X0371094Y0144365D01*
X0371224Y0144330D01*
X0371352Y0144292D01*
X0371479Y0144250D01*
X0371605Y0144204D01*
X0371730Y0144154D01*
X0371853Y0144101D01*
X0371974Y0144044D01*
X0372094Y0143983D01*
X0372211Y0143919D01*
X0372327Y0143852D01*
X0372441Y0143781D01*
X0372552Y0143706D01*
X0372661Y0143629D01*
X0372768Y0143548D01*
X0372873Y0143464D01*
X0372974Y0143377D01*
X0373074Y0143287D01*
X0373170Y0143194D01*
X0373264Y0143098D01*
X0373355Y0142999D01*
X0373442Y0142898D01*
X0373527Y0142794D01*
X0373609Y0142688D01*
X0373687Y0142580D01*
X0373762Y0142469D01*
X0373834Y0142356D01*
X0373903Y0142240D01*
X0373968Y0142123D01*
X0374029Y0142004D01*
X0374087Y0141883D01*
X0374141Y0141761D01*
X0374192Y0141637D01*
X0374239Y0141511D01*
X0374282Y0141384D01*
X0374321Y0141256D01*
X0374357Y0141127D01*
X0374388Y0140997D01*
X0374416Y0140866D01*
X0374440Y0140734D01*
X0374460Y0140601D01*
X0374476Y0140468D01*
X0374488Y0140335D01*
X0374496Y0140201D01*
X0374500Y0140067D01*
X0374500Y0139933D01*
X0374496Y0139799D01*
X0374488Y0139665D01*
X0374476Y0139532D01*
X0374460Y0139399D01*
X0374440Y0139266D01*
X0374416Y0139134D01*
X0374388Y0139003D01*
X0374357Y0138873D01*
X0374321Y0138744D01*
X0374282Y0138616D01*
X0374239Y0138489D01*
X0374192Y0138363D01*
X0374141Y0138239D01*
X0374087Y0138117D01*
X0374029Y0137996D01*
X0373968Y0137877D01*
X0373903Y0137760D01*
X0373834Y0137644D01*
X0373762Y0137531D01*
X0373687Y0137420D01*
X0373609Y0137312D01*
X0373527Y0137206D01*
X0373442Y0137102D01*
X0373355Y0137001D01*
X0373264Y0136902D01*
X0373170Y0136806D01*
X0373074Y0136713D01*
X0372974Y0136623D01*
X0372873Y0136536D01*
X0372768Y0136452D01*
X0372661Y0136371D01*
X0372552Y0136294D01*
X0372441Y0136219D01*
X0372327Y0136148D01*
X0372211Y0136081D01*
X0372094Y0136017D01*
X0371974Y0135956D01*
X0371853Y0135899D01*
X0371730Y0135846D01*
X0371605Y0135796D01*
X0371479Y0135750D01*
X0371352Y0135708D01*
X0371224Y0135670D01*
X0371094Y0135635D01*
X0370964Y0135604D01*
X0370833Y0135578D01*
X0370701Y0135555D01*
X0370568Y0135536D01*
X0370435Y0135521D01*
X0370301Y0135510D01*
X0370167Y0135503D01*
X0370034Y0135500D01*
X0369900Y0135501D01*
X0369766Y0135506D01*
X0369632Y0135515D01*
X0369499Y0135528D01*
X0369366Y0135545D01*
X0369233Y0135566D01*
X0369102Y0135591D01*
X0368971Y0135619D01*
X0368841Y0135652D01*
X0368712Y0135688D01*
X0368584Y0135729D01*
X0368457Y0135773D01*
X0368332Y0135820D01*
X0368209Y0135872D01*
X0368086Y0135927D01*
X0367966Y0135986D01*
X0367847Y0136048D01*
X0367731Y0136114D01*
X0367616Y0136183D01*
X0367503Y0136256D01*
X0367393Y0136332D01*
X0367285Y0136411D01*
X0367179Y0136494D01*
X0367076Y0136579D01*
X0366976Y0136668D01*
X0366878Y0136759D01*
X0366783Y0136854D01*
X0366690Y0136951D01*
X0366601Y0137051D01*
X0366515Y0137153D01*
X0366432Y0137258D01*
X0366352Y0137366D01*
X0366275Y0137476D01*
X0366201Y0137588D01*
X0366131Y0137702D01*
X0366064Y0137818D01*
X0366001Y0137936D01*
X0365941Y0138056D01*
X0365885Y0138178D01*
X0365833Y0138301D01*
X0365784Y0138426D01*
X0365739Y0138552D01*
X0365698Y0138680D01*
X0365661Y0138808D01*
X0365627Y0138938D01*
X0365597Y0139069D01*
X0365572Y0139200D01*
X0365550Y0139332D01*
X0365532Y0139465D01*
X0365518Y0139599D01*
X0365508Y0139732D01*
X0365502Y0139866D01*
X0365500Y0140000D01*
X0365500Y0062000D02*
X0365502Y0062134D01*
X0365508Y0062268D01*
X0365518Y0062401D01*
X0365532Y0062535D01*
X0365550Y0062668D01*
X0365572Y0062800D01*
X0365597Y0062931D01*
X0365627Y0063062D01*
X0365661Y0063192D01*
X0365698Y0063320D01*
X0365739Y0063448D01*
X0365784Y0063574D01*
X0365833Y0063699D01*
X0365885Y0063822D01*
X0365941Y0063944D01*
X0366001Y0064064D01*
X0366064Y0064182D01*
X0366131Y0064298D01*
X0366201Y0064412D01*
X0366275Y0064524D01*
X0366352Y0064634D01*
X0366432Y0064742D01*
X0366515Y0064847D01*
X0366601Y0064949D01*
X0366690Y0065049D01*
X0366783Y0065146D01*
X0366878Y0065241D01*
X0366976Y0065332D01*
X0367076Y0065421D01*
X0367179Y0065506D01*
X0367285Y0065589D01*
X0367393Y0065668D01*
X0367503Y0065744D01*
X0367616Y0065817D01*
X0367731Y0065886D01*
X0367847Y0065952D01*
X0367966Y0066014D01*
X0368086Y0066073D01*
X0368209Y0066128D01*
X0368332Y0066180D01*
X0368457Y0066227D01*
X0368584Y0066271D01*
X0368712Y0066312D01*
X0368841Y0066348D01*
X0368971Y0066381D01*
X0369102Y0066409D01*
X0369233Y0066434D01*
X0369366Y0066455D01*
X0369499Y0066472D01*
X0369632Y0066485D01*
X0369766Y0066494D01*
X0369900Y0066499D01*
X0370034Y0066500D01*
X0370167Y0066497D01*
X0370301Y0066490D01*
X0370435Y0066479D01*
X0370568Y0066464D01*
X0370701Y0066445D01*
X0370833Y0066422D01*
X0370964Y0066396D01*
X0371094Y0066365D01*
X0371224Y0066330D01*
X0371352Y0066292D01*
X0371479Y0066250D01*
X0371605Y0066204D01*
X0371730Y0066154D01*
X0371853Y0066101D01*
X0371974Y0066044D01*
X0372094Y0065983D01*
X0372211Y0065919D01*
X0372327Y0065852D01*
X0372441Y0065781D01*
X0372552Y0065706D01*
X0372661Y0065629D01*
X0372768Y0065548D01*
X0372873Y0065464D01*
X0372974Y0065377D01*
X0373074Y0065287D01*
X0373170Y0065194D01*
X0373264Y0065098D01*
X0373355Y0064999D01*
X0373442Y0064898D01*
X0373527Y0064794D01*
X0373609Y0064688D01*
X0373687Y0064580D01*
X0373762Y0064469D01*
X0373834Y0064356D01*
X0373903Y0064240D01*
X0373968Y0064123D01*
X0374029Y0064004D01*
X0374087Y0063883D01*
X0374141Y0063761D01*
X0374192Y0063637D01*
X0374239Y0063511D01*
X0374282Y0063384D01*
X0374321Y0063256D01*
X0374357Y0063127D01*
X0374388Y0062997D01*
X0374416Y0062866D01*
X0374440Y0062734D01*
X0374460Y0062601D01*
X0374476Y0062468D01*
X0374488Y0062335D01*
X0374496Y0062201D01*
X0374500Y0062067D01*
X0374500Y0061933D01*
X0374496Y0061799D01*
X0374488Y0061665D01*
X0374476Y0061532D01*
X0374460Y0061399D01*
X0374440Y0061266D01*
X0374416Y0061134D01*
X0374388Y0061003D01*
X0374357Y0060873D01*
X0374321Y0060744D01*
X0374282Y0060616D01*
X0374239Y0060489D01*
X0374192Y0060363D01*
X0374141Y0060239D01*
X0374087Y0060117D01*
X0374029Y0059996D01*
X0373968Y0059877D01*
X0373903Y0059760D01*
X0373834Y0059644D01*
X0373762Y0059531D01*
X0373687Y0059420D01*
X0373609Y0059312D01*
X0373527Y0059206D01*
X0373442Y0059102D01*
X0373355Y0059001D01*
X0373264Y0058902D01*
X0373170Y0058806D01*
X0373074Y0058713D01*
X0372974Y0058623D01*
X0372873Y0058536D01*
X0372768Y0058452D01*
X0372661Y0058371D01*
X0372552Y0058294D01*
X0372441Y0058219D01*
X0372327Y0058148D01*
X0372211Y0058081D01*
X0372094Y0058017D01*
X0371974Y0057956D01*
X0371853Y0057899D01*
X0371730Y0057846D01*
X0371605Y0057796D01*
X0371479Y0057750D01*
X0371352Y0057708D01*
X0371224Y0057670D01*
X0371094Y0057635D01*
X0370964Y0057604D01*
X0370833Y0057578D01*
X0370701Y0057555D01*
X0370568Y0057536D01*
X0370435Y0057521D01*
X0370301Y0057510D01*
X0370167Y0057503D01*
X0370034Y0057500D01*
X0369900Y0057501D01*
X0369766Y0057506D01*
X0369632Y0057515D01*
X0369499Y0057528D01*
X0369366Y0057545D01*
X0369233Y0057566D01*
X0369102Y0057591D01*
X0368971Y0057619D01*
X0368841Y0057652D01*
X0368712Y0057688D01*
X0368584Y0057729D01*
X0368457Y0057773D01*
X0368332Y0057820D01*
X0368209Y0057872D01*
X0368086Y0057927D01*
X0367966Y0057986D01*
X0367847Y0058048D01*
X0367731Y0058114D01*
X0367616Y0058183D01*
X0367503Y0058256D01*
X0367393Y0058332D01*
X0367285Y0058411D01*
X0367179Y0058494D01*
X0367076Y0058579D01*
X0366976Y0058668D01*
X0366878Y0058759D01*
X0366783Y0058854D01*
X0366690Y0058951D01*
X0366601Y0059051D01*
X0366515Y0059153D01*
X0366432Y0059258D01*
X0366352Y0059366D01*
X0366275Y0059476D01*
X0366201Y0059588D01*
X0366131Y0059702D01*
X0366064Y0059818D01*
X0366001Y0059936D01*
X0365941Y0060056D01*
X0365885Y0060178D01*
X0365833Y0060301D01*
X0365784Y0060426D01*
X0365739Y0060552D01*
X0365698Y0060680D01*
X0365661Y0060808D01*
X0365627Y0060938D01*
X0365597Y0061069D01*
X0365572Y0061200D01*
X0365550Y0061332D01*
X0365532Y0061465D01*
X0365518Y0061599D01*
X0365508Y0061732D01*
X0365502Y0061866D01*
X0365500Y0062000D01*
D11*
X0343800Y0058500D02*
X0338200Y0058500D01*
X0333800Y0048500D02*
X0328200Y0048500D01*
X0308800Y0048500D02*
X0303200Y0048500D01*
X0288800Y0048500D02*
X0283200Y0048500D01*
X0293200Y0058500D02*
X0298800Y0058500D01*
X0301000Y0080700D02*
X0301000Y0086300D01*
X0291000Y0086300D02*
X0291000Y0080700D01*
X0311000Y0080700D02*
X0311000Y0086300D01*
X0321000Y0086300D02*
X0321000Y0080700D01*
X0331000Y0080700D02*
X0331000Y0086300D01*
X0341000Y0086300D02*
X0341000Y0080700D01*
X0351000Y0080700D02*
X0351000Y0086300D01*
X0351000Y0110700D02*
X0351000Y0116300D01*
X0341000Y0116300D02*
X0341000Y0110700D01*
X0331000Y0110700D02*
X0331000Y0116300D01*
X0321000Y0116300D02*
X0321000Y0110700D01*
X0311000Y0110700D02*
X0311000Y0116300D01*
X0301000Y0116300D02*
X0301000Y0110700D01*
X0291000Y0110700D02*
X0291000Y0116300D01*
X0293200Y0141000D02*
X0298800Y0141000D01*
X0303200Y0151000D02*
X0308800Y0151000D01*
X0328200Y0151000D02*
X0333800Y0151000D01*
X0348200Y0151000D02*
X0353800Y0151000D01*
X0343800Y0141000D02*
X0338200Y0141000D01*
X0288800Y0151000D02*
X0283200Y0151000D01*
X0348200Y0048500D02*
X0353800Y0048500D01*
X0078800Y0061000D02*
X0073200Y0061000D01*
X0073200Y0071000D02*
X0078800Y0071000D01*
X0078800Y0081000D02*
X0073200Y0081000D01*
X0073200Y0091000D02*
X0078800Y0091000D01*
X0078800Y0101000D02*
X0073200Y0101000D01*
X0073200Y0111000D02*
X0078800Y0111000D01*
X0078800Y0121000D02*
X0073200Y0121000D01*
X0073200Y0131000D02*
X0078800Y0131000D01*
X0078800Y0141000D02*
X0073200Y0141000D01*
X0048800Y0141000D02*
X0043200Y0141000D01*
X0043200Y0131000D02*
X0048800Y0131000D01*
X0048800Y0121000D02*
X0043200Y0121000D01*
X0043200Y0111000D02*
X0048800Y0111000D01*
X0048800Y0101000D02*
X0043200Y0101000D01*
X0043200Y0091000D02*
X0048800Y0091000D01*
X0048800Y0081000D02*
X0043200Y0081000D01*
X0043200Y0071000D02*
X0048800Y0071000D01*
X0048800Y0061000D02*
X0043200Y0061000D01*
D12*
X0021000Y0053500D03*
X0021000Y0043500D03*
X0046000Y0021000D03*
X0056000Y0021000D03*
X0071000Y0021000D03*
X0081000Y0021000D03*
X0096000Y0021000D03*
X0106000Y0021000D03*
X0021000Y0068500D03*
X0021000Y0078500D03*
X0021000Y0126000D03*
X0021000Y0136000D03*
X0021000Y0151000D03*
X0021000Y0161000D03*
X0046000Y0178500D03*
X0056000Y0178500D03*
X0071000Y0178500D03*
X0081000Y0178500D03*
X0096000Y0178500D03*
X0106000Y0178500D03*
X0291000Y0178500D03*
X0301000Y0178500D03*
X0361000Y0178500D03*
X0371000Y0178500D03*
X0371000Y0021000D03*
X0361000Y0021000D03*
X0301000Y0021000D03*
X0291000Y0021000D03*
D13*
X0276000Y0016000D03*
X0276000Y0026000D03*
X0276000Y0038500D03*
X0246000Y0038500D03*
X0246000Y0026000D03*
X0246000Y0016000D03*
X0316000Y0016000D03*
X0316000Y0026000D03*
X0346000Y0026000D03*
X0346000Y0016000D03*
X0246000Y0071000D03*
X0236000Y0071000D03*
X0226000Y0071000D03*
X0216000Y0071000D03*
X0206000Y0071000D03*
X0196000Y0071000D03*
X0186000Y0071000D03*
X0176000Y0071000D03*
X0166000Y0071000D03*
X0156000Y0071000D03*
X0146000Y0071000D03*
X0136000Y0071000D03*
X0126000Y0071000D03*
X0116000Y0071000D03*
X0101000Y0071000D03*
X0101000Y0081000D03*
X0116000Y0081000D03*
X0116000Y0091000D03*
X0101000Y0091000D03*
X0101000Y0101000D03*
X0116000Y0101000D03*
X0116000Y0111000D03*
X0101000Y0111000D03*
X0101000Y0121000D03*
X0116000Y0121000D03*
X0116000Y0131000D03*
X0126000Y0131000D03*
X0136000Y0131000D03*
X0146000Y0131000D03*
X0156000Y0131000D03*
X0166000Y0131000D03*
X0176000Y0131000D03*
X0186000Y0131000D03*
X0196000Y0131000D03*
X0206000Y0131000D03*
X0216000Y0131000D03*
X0226000Y0131000D03*
X0236000Y0131000D03*
X0246000Y0131000D03*
X0216000Y0146000D03*
X0206000Y0146000D03*
X0196000Y0146000D03*
X0186000Y0146000D03*
X0176000Y0146000D03*
X0166000Y0146000D03*
X0156000Y0146000D03*
X0146000Y0146000D03*
X0136000Y0146000D03*
X0126000Y0146000D03*
X0136000Y0156000D03*
X0146000Y0156000D03*
X0156000Y0156000D03*
X0166000Y0156000D03*
X0176000Y0156000D03*
X0186000Y0156000D03*
X0196000Y0156000D03*
X0206000Y0156000D03*
X0246000Y0161000D03*
X0246000Y0173500D03*
X0246000Y0183500D03*
X0276000Y0183500D03*
X0276000Y0173500D03*
X0276000Y0161000D03*
X0316000Y0173500D03*
X0316000Y0183500D03*
X0346000Y0183500D03*
X0346000Y0173500D03*
X0366000Y0121000D03*
X0376000Y0106000D03*
X0366000Y0091000D03*
X0376000Y0076000D03*
X0236000Y0081000D03*
X0216000Y0081000D03*
X0206000Y0081000D03*
X0196000Y0081000D03*
X0196000Y0056000D03*
X0186000Y0056000D03*
X0176000Y0056000D03*
X0166000Y0056000D03*
X0156000Y0056000D03*
X0146000Y0056000D03*
X0136000Y0056000D03*
X0126000Y0056000D03*
X0136000Y0046000D03*
X0146000Y0046000D03*
X0156000Y0046000D03*
X0206000Y0056000D03*
X0216000Y0056000D03*
X0101000Y0131000D03*
D14*
X0136000Y0178500D03*
X0146000Y0178500D03*
X0156000Y0178500D03*
X0166000Y0178500D03*
X0176000Y0178500D03*
X0186000Y0178500D03*
X0196000Y0178500D03*
X0206000Y0178500D03*
X0206000Y0188500D03*
X0196000Y0188500D03*
X0186000Y0188500D03*
X0176000Y0188500D03*
X0166000Y0188500D03*
X0156000Y0188500D03*
X0146000Y0188500D03*
X0136000Y0188500D03*
X0266000Y0126000D03*
X0266000Y0116000D03*
X0266000Y0106000D03*
X0266000Y0096000D03*
X0266000Y0086000D03*
X0266000Y0076000D03*
X0206000Y0021000D03*
X0196000Y0021000D03*
X0186000Y0021000D03*
X0176000Y0021000D03*
X0166000Y0021000D03*
X0156000Y0021000D03*
X0146000Y0021000D03*
X0136000Y0021000D03*
X0136000Y0011000D03*
X0146000Y0011000D03*
X0156000Y0011000D03*
X0166000Y0011000D03*
X0176000Y0011000D03*
X0186000Y0011000D03*
X0196000Y0011000D03*
X0206000Y0011000D03*
D15*
X0031000Y0097800D02*
X0031000Y0104200D01*
X0021000Y0104200D02*
X0021000Y0097800D01*
X0011000Y0097800D02*
X0011000Y0104200D01*
D16*
X0126000Y0046000D03*
D17*
X0136000Y0021000D02*
X0146000Y0021000D01*
X0156000Y0021000D01*
X0166000Y0021000D01*
X0176000Y0021000D01*
X0186000Y0021000D01*
X0196000Y0021000D01*
X0206000Y0021000D01*
X0226000Y0041000D01*
X0226000Y0071000D01*
X0246000Y0038500D02*
X0219000Y0011500D01*
X0206500Y0011500D01*
X0206000Y0011000D01*
X0196000Y0011000D01*
X0186000Y0011000D01*
X0176000Y0011000D01*
X0166000Y0011000D01*
X0156000Y0011000D01*
X0146000Y0011000D01*
X0136000Y0011000D01*
X0106000Y0020000D02*
X0100500Y0014500D01*
X0086500Y0014500D01*
X0081500Y0019500D01*
X0081000Y0021000D01*
X0081000Y0020000D01*
X0075500Y0014500D01*
X0066500Y0014500D01*
X0060000Y0021000D01*
X0056000Y0021000D01*
X0055500Y0021500D01*
X0055500Y0022500D01*
X0035000Y0043000D01*
X0021500Y0043000D01*
X0021000Y0043500D01*
X0020000Y0043500D01*
X0014500Y0049000D01*
X0014500Y0062000D01*
X0021000Y0068500D01*
X0020000Y0068500D01*
X0014500Y0074000D01*
X0014500Y0083000D01*
X0021000Y0089500D01*
X0021000Y0101000D01*
X0011000Y0101000D02*
X0011000Y0141000D01*
X0021000Y0151000D01*
X0021500Y0151500D01*
X0022500Y0151500D01*
X0039500Y0168500D01*
X0039500Y0183000D01*
X0045500Y0189000D01*
X0125500Y0189000D01*
X0136000Y0178500D01*
X0146000Y0178500D01*
X0156000Y0178500D01*
X0166000Y0178500D01*
X0176000Y0178500D01*
X0186000Y0178500D01*
X0196000Y0178500D01*
X0206000Y0178500D01*
X0246000Y0161000D02*
X0258000Y0173000D01*
X0275500Y0173000D01*
X0276000Y0173500D01*
X0277500Y0172000D01*
X0295500Y0172000D01*
X0301000Y0177500D01*
X0301000Y0178500D01*
X0346000Y0173500D02*
X0347500Y0172000D01*
X0365500Y0172000D01*
X0376500Y0161000D01*
X0376500Y0106500D01*
X0376000Y0106000D01*
X0376000Y0104000D01*
X0365000Y0093000D01*
X0366000Y0091000D01*
X0364500Y0092500D01*
X0328500Y0092500D01*
X0321000Y0085000D01*
X0321000Y0083500D01*
X0266000Y0116000D02*
X0266000Y0126000D01*
X0261000Y0131000D01*
X0246000Y0131000D01*
X0246000Y0161000D01*
X0365500Y0172000D02*
X0371000Y0177500D01*
X0371000Y0178500D01*
X0263500Y0038500D02*
X0246000Y0038500D01*
X0263500Y0038500D02*
X0276000Y0026000D01*
X0281000Y0021000D01*
X0291000Y0021000D01*
X0346000Y0026000D02*
X0351000Y0021000D01*
X0361000Y0021000D01*
X0106000Y0021000D02*
X0106000Y0020000D01*
X0071000Y0021000D02*
X0071000Y0047500D01*
X0047500Y0071000D01*
X0046000Y0071000D01*
X0027500Y0074000D02*
X0027500Y0060000D01*
X0021000Y0053500D01*
X0027500Y0074000D02*
X0044500Y0091000D01*
X0046000Y0091000D01*
X0046000Y0101000D02*
X0043500Y0101000D01*
X0021000Y0078500D01*
X0031000Y0101000D02*
X0031000Y0103000D01*
X0021000Y0113000D01*
X0021000Y0126000D01*
X0046000Y0141000D02*
X0046000Y0178500D01*
X0045500Y0179000D01*
X0051500Y0185000D01*
X0060500Y0185000D01*
X0067000Y0178500D01*
X0071000Y0178500D01*
X0070500Y0179000D01*
X0076500Y0185000D01*
X0085500Y0185000D01*
X0092000Y0178500D01*
X0096000Y0178500D01*
X0056000Y0178500D02*
X0056000Y0119500D01*
X0047500Y0111000D01*
X0046000Y0111000D01*
D18*
X0064500Y0103500D02*
X0064500Y0143000D01*
X0087000Y0165500D01*
X0166500Y0165500D01*
X0176000Y0156000D01*
X0186000Y0156000D02*
X0174500Y0167500D01*
X0086000Y0167500D01*
X0062500Y0144000D01*
X0062500Y0095500D01*
X0076000Y0082000D01*
X0076000Y0081000D01*
X0076000Y0091000D02*
X0076000Y0092000D01*
X0064500Y0103500D01*
X0076000Y0102000D02*
X0076000Y0101000D01*
X0076000Y0102000D02*
X0095500Y0121500D01*
X0095500Y0133000D01*
X0109000Y0146500D01*
X0119000Y0146500D01*
X0126000Y0146000D02*
X0126000Y0131000D01*
X0116000Y0131000D02*
X0101000Y0131000D01*
X0092000Y0135500D02*
X0118000Y0161500D01*
X0140500Y0161500D01*
X0146000Y0156000D01*
X0136000Y0156000D02*
X0115500Y0156000D01*
X0090500Y0131000D01*
X0076000Y0131000D01*
X0071500Y0135500D02*
X0068500Y0132500D01*
X0068500Y0129500D01*
X0076000Y0122000D01*
X0076000Y0121000D01*
X0076000Y0112000D02*
X0066500Y0121500D01*
X0066500Y0142000D01*
X0088000Y0163500D01*
X0148500Y0163500D01*
X0156000Y0156000D01*
X0156000Y0146000D02*
X0156000Y0131000D01*
X0166000Y0131000D02*
X0166000Y0146000D01*
X0176000Y0146000D02*
X0176000Y0131000D01*
X0186000Y0131000D02*
X0186000Y0146000D01*
X0196000Y0146000D02*
X0196000Y0131000D01*
X0206000Y0131000D02*
X0206000Y0146000D01*
X0216000Y0146000D02*
X0216000Y0131000D01*
X0226000Y0131000D02*
X0226000Y0129000D01*
X0266000Y0089000D01*
X0266000Y0086000D01*
X0268000Y0081000D02*
X0264000Y0081000D01*
X0261000Y0078000D01*
X0261000Y0077000D01*
X0246500Y0062500D01*
X0246500Y0059000D01*
X0216000Y0056000D02*
X0216000Y0071000D01*
X0206000Y0071000D02*
X0206000Y0056000D01*
X0196000Y0056000D02*
X0196000Y0071000D01*
X0186000Y0071000D02*
X0186000Y0056000D01*
X0176000Y0056000D02*
X0176000Y0071000D01*
X0166000Y0071000D02*
X0166000Y0056000D01*
X0156000Y0056000D02*
X0156000Y0071000D01*
X0146000Y0071000D02*
X0146000Y0056000D01*
X0136000Y0056000D02*
X0136000Y0071000D01*
X0126000Y0071000D02*
X0126000Y0056000D01*
X0116000Y0071000D02*
X0101000Y0071000D01*
X0101000Y0081000D02*
X0116000Y0081000D01*
X0116000Y0091000D02*
X0101000Y0091000D01*
X0101000Y0101000D02*
X0116000Y0101000D01*
X0116000Y0111000D02*
X0101000Y0111000D01*
X0101000Y0121000D02*
X0116000Y0121000D01*
X0136000Y0131000D02*
X0136000Y0146000D01*
X0146000Y0146000D02*
X0146000Y0131000D01*
X0092000Y0135500D02*
X0071500Y0135500D01*
X0076000Y0112000D02*
X0076000Y0111000D01*
X0236000Y0127500D02*
X0236000Y0131000D01*
X0236000Y0127500D02*
X0266000Y0097500D01*
X0266000Y0096000D01*
X0268000Y0081000D02*
X0291000Y0104000D01*
X0291000Y0113500D01*
X0291000Y0137000D01*
X0286000Y0142000D01*
X0286000Y0151000D01*
X0296000Y0150000D02*
X0296000Y0141000D01*
X0296000Y0118500D01*
X0301000Y0113500D01*
X0303500Y0105000D02*
X0342500Y0105000D01*
X0351000Y0113500D01*
X0348500Y0121000D02*
X0341000Y0113500D01*
X0331000Y0113500D02*
X0331000Y0142000D01*
X0316000Y0157000D01*
X0316000Y0173500D01*
X0316000Y0183500D01*
X0291000Y0178500D02*
X0281000Y0178500D01*
X0276000Y0183500D01*
X0246000Y0183500D02*
X0246000Y0173500D01*
X0276000Y0161000D02*
X0285000Y0161000D01*
X0296000Y0150000D01*
X0346000Y0183500D02*
X0351000Y0178500D01*
X0361000Y0178500D01*
X0366000Y0121000D02*
X0348500Y0121000D01*
X0303500Y0105000D02*
X0235000Y0036500D01*
X0246000Y0026000D02*
X0246000Y0016000D01*
X0276000Y0016000D02*
X0277000Y0015000D01*
X0295000Y0015000D01*
X0301000Y0021000D01*
X0316000Y0026000D02*
X0316000Y0016000D01*
X0316000Y0026000D02*
X0316000Y0042500D01*
X0331000Y0057500D01*
X0331000Y0083500D01*
X0341000Y0083500D02*
X0341000Y0076000D01*
X0376000Y0076000D01*
X0341000Y0076000D02*
X0341000Y0058500D01*
X0306000Y0048500D02*
X0303500Y0048500D01*
X0303500Y0060000D01*
X0301000Y0062500D01*
X0301000Y0083500D01*
X0296000Y0078500D02*
X0291000Y0083500D01*
X0296000Y0078500D02*
X0296000Y0058500D01*
X0295000Y0048500D02*
X0285000Y0038500D01*
X0276000Y0038500D01*
X0295000Y0048500D02*
X0303500Y0048500D01*
X0346000Y0016000D02*
X0347000Y0015000D01*
X0365000Y0015000D01*
X0371000Y0021000D01*
D19*
X0246500Y0059000D03*
X0235000Y0036500D03*
X0119000Y0146500D03*
M02*
