G75*
%MOIN*%
%OFA0B0*%
%FSLAX25Y25*%
%IPPOS*%
%LPD*%
%AMOC8*
5,1,8,0,0,1.08239X$1,22.5*
%
%ADD10C,0.07400*%
%ADD11C,0.06400*%
%ADD12C,0.05600*%
%ADD13C,0.06500*%
%ADD14R,0.06500X0.06500*%
%ADD15C,0.06400*%
%ADD16OC8,0.06600*%
%ADD17C,0.07000*%
%ADD18OC8,0.06400*%
%ADD19OC8,0.07000*%
%ADD20OC8,0.05600*%
%ADD21C,0.02000*%
%ADD22C,0.04000*%
%ADD23C,0.01000*%
D10*
X0036000Y0021000D03*
X0046000Y0021000D03*
X0056000Y0021000D03*
X0066000Y0021000D03*
X0121000Y0051000D03*
X0131000Y0051000D03*
X0141000Y0051000D03*
X0151000Y0051000D03*
X0161000Y0051000D03*
X0171000Y0051000D03*
X0181000Y0051000D03*
X0191000Y0051000D03*
X0201000Y0051000D03*
X0211000Y0051000D03*
X0211000Y0061000D03*
X0201000Y0061000D03*
X0191000Y0061000D03*
X0181000Y0061000D03*
X0171000Y0061000D03*
X0161000Y0061000D03*
X0151000Y0061000D03*
X0141000Y0061000D03*
X0131000Y0061000D03*
X0121000Y0061000D03*
X0121000Y0071000D03*
X0131000Y0071000D03*
X0141000Y0071000D03*
X0151000Y0071000D03*
X0161000Y0071000D03*
X0171000Y0071000D03*
X0181000Y0071000D03*
X0191000Y0071000D03*
X0201000Y0071000D03*
X0211000Y0071000D03*
X0221000Y0071000D03*
X0231000Y0071000D03*
X0241000Y0071000D03*
X0263500Y0086000D03*
X0273500Y0086000D03*
X0273500Y0116000D03*
X0263500Y0116000D03*
X0241000Y0131000D03*
X0231000Y0131000D03*
X0221000Y0131000D03*
X0211000Y0131000D03*
X0201000Y0131000D03*
X0191000Y0131000D03*
X0181000Y0131000D03*
X0171000Y0131000D03*
X0161000Y0131000D03*
X0151000Y0131000D03*
X0141000Y0131000D03*
X0131000Y0131000D03*
X0121000Y0131000D03*
X0111000Y0131000D03*
X0121000Y0141000D03*
X0131000Y0141000D03*
X0141000Y0141000D03*
X0151000Y0141000D03*
X0161000Y0141000D03*
X0171000Y0141000D03*
X0181000Y0141000D03*
X0191000Y0141000D03*
X0201000Y0141000D03*
X0211000Y0141000D03*
X0211000Y0151000D03*
X0201000Y0151000D03*
X0191000Y0151000D03*
X0181000Y0151000D03*
X0171000Y0151000D03*
X0161000Y0151000D03*
X0151000Y0151000D03*
X0141000Y0151000D03*
X0131000Y0151000D03*
X0121000Y0151000D03*
X0098500Y0158500D03*
X0088500Y0158500D03*
X0088500Y0168500D03*
X0098500Y0168500D03*
X0098500Y0178500D03*
X0088500Y0178500D03*
X0088500Y0188500D03*
X0098500Y0188500D03*
X0066000Y0188000D03*
X0056000Y0189000D03*
X0046000Y0188000D03*
X0036000Y0189000D03*
X0181000Y0188500D03*
X0191000Y0188500D03*
X0201000Y0188500D03*
X0211000Y0188500D03*
X0211000Y0178500D03*
X0201000Y0178500D03*
X0191000Y0178500D03*
X0181000Y0178500D03*
X0181000Y0116000D03*
X0176000Y0106000D03*
X0181000Y0096000D03*
X0176000Y0086000D03*
X0206000Y0086000D03*
X0211000Y0096000D03*
X0206000Y0106000D03*
X0211000Y0116000D03*
X0111000Y0071000D03*
X0181000Y0023500D03*
X0191000Y0023500D03*
X0201000Y0023500D03*
X0211000Y0023500D03*
X0211000Y0013500D03*
X0201000Y0013500D03*
X0191000Y0013500D03*
X0181000Y0013500D03*
X0333500Y0086000D03*
X0343500Y0086000D03*
X0343500Y0116000D03*
X0333500Y0116000D03*
X0366000Y0150500D03*
X0356000Y0151500D03*
X0376000Y0151500D03*
X0376000Y0051500D03*
X0366000Y0050500D03*
X0356000Y0051500D03*
D11*
X0362800Y0066000D02*
X0369200Y0066000D01*
X0369200Y0076000D02*
X0362800Y0076000D01*
X0362800Y0086000D02*
X0369200Y0086000D01*
X0369200Y0096000D02*
X0362800Y0096000D01*
X0362800Y0106000D02*
X0369200Y0106000D01*
X0369200Y0116000D02*
X0362800Y0116000D01*
X0362800Y0126000D02*
X0369200Y0126000D01*
X0369200Y0136000D02*
X0362800Y0136000D01*
X0321000Y0177800D02*
X0321000Y0184200D01*
X0311000Y0184200D02*
X0311000Y0177800D01*
X0301000Y0177800D02*
X0301000Y0184200D01*
X0291000Y0184200D02*
X0291000Y0177800D01*
X0281000Y0177800D02*
X0281000Y0184200D01*
X0271000Y0184200D02*
X0271000Y0177800D01*
X0261000Y0177800D02*
X0261000Y0184200D01*
X0251000Y0184200D02*
X0251000Y0177800D01*
X0241000Y0177800D02*
X0241000Y0184200D01*
X0231000Y0184200D02*
X0231000Y0177800D01*
X0231000Y0024200D02*
X0231000Y0017800D01*
X0241000Y0017800D02*
X0241000Y0024200D01*
X0251000Y0024200D02*
X0251000Y0017800D01*
X0261000Y0017800D02*
X0261000Y0024200D01*
X0271000Y0024200D02*
X0271000Y0017800D01*
X0281000Y0017800D02*
X0281000Y0024200D01*
X0291000Y0024200D02*
X0291000Y0017800D01*
X0301000Y0017800D02*
X0301000Y0024200D01*
X0311000Y0024200D02*
X0311000Y0017800D01*
X0321000Y0017800D02*
X0321000Y0024200D01*
D12*
X0321000Y0038200D02*
X0321000Y0043800D01*
X0311000Y0043800D02*
X0311000Y0038200D01*
X0301000Y0038200D02*
X0301000Y0043800D01*
X0291000Y0043800D02*
X0291000Y0038200D01*
X0281000Y0038200D02*
X0281000Y0043800D01*
X0271000Y0043800D02*
X0271000Y0038200D01*
X0261000Y0038200D02*
X0261000Y0043800D01*
X0261000Y0068200D02*
X0261000Y0073800D01*
X0271000Y0073800D02*
X0271000Y0068200D01*
X0281000Y0068200D02*
X0281000Y0073800D01*
X0291000Y0073800D02*
X0291000Y0068200D01*
X0301000Y0068200D02*
X0301000Y0073800D01*
X0311000Y0073800D02*
X0311000Y0068200D01*
X0321000Y0068200D02*
X0321000Y0073800D01*
X0331000Y0073800D02*
X0331000Y0068200D01*
X0341000Y0068200D02*
X0341000Y0073800D01*
X0341000Y0043800D02*
X0341000Y0038200D01*
X0331000Y0038200D02*
X0331000Y0043800D01*
X0331000Y0128200D02*
X0331000Y0133800D01*
X0321000Y0133800D02*
X0321000Y0128200D01*
X0311000Y0128200D02*
X0311000Y0133800D01*
X0301000Y0133800D02*
X0301000Y0128200D01*
X0291000Y0128200D02*
X0291000Y0133800D01*
X0281000Y0133800D02*
X0281000Y0128200D01*
X0271000Y0128200D02*
X0271000Y0133800D01*
X0261000Y0133800D02*
X0261000Y0128200D01*
X0261000Y0158200D02*
X0261000Y0163800D01*
X0271000Y0163800D02*
X0271000Y0158200D01*
X0281000Y0158200D02*
X0281000Y0163800D01*
X0291000Y0163800D02*
X0291000Y0158200D01*
X0301000Y0158200D02*
X0301000Y0163800D01*
X0311000Y0163800D02*
X0311000Y0158200D01*
X0321000Y0158200D02*
X0321000Y0163800D01*
X0331000Y0163800D02*
X0331000Y0158200D01*
X0341000Y0158200D02*
X0341000Y0163800D01*
X0341000Y0133800D02*
X0341000Y0128200D01*
D13*
X0338579Y0183500D03*
X0138500Y0188421D03*
X0101000Y0046000D03*
X0086000Y0046000D03*
X0086000Y0036000D03*
X0101000Y0036000D03*
X0338579Y0018500D03*
D14*
X0348421Y0018500D03*
X0138500Y0178579D03*
X0348421Y0183500D03*
D15*
X0318500Y0116000D03*
X0308500Y0116000D03*
X0298500Y0116000D03*
X0288500Y0116000D03*
X0288500Y0086000D03*
X0298500Y0086000D03*
X0308500Y0086000D03*
X0318500Y0086000D03*
D16*
X0081000Y0081000D03*
X0071000Y0081000D03*
X0061000Y0081000D03*
X0051000Y0081000D03*
X0041000Y0081000D03*
X0031000Y0081000D03*
X0021000Y0081000D03*
X0011000Y0081000D03*
X0011000Y0071000D03*
X0021000Y0071000D03*
X0031000Y0071000D03*
X0041000Y0071000D03*
X0051000Y0071000D03*
X0061000Y0071000D03*
X0071000Y0071000D03*
X0081000Y0071000D03*
X0081000Y0061000D03*
X0071000Y0061000D03*
X0061000Y0061000D03*
X0051000Y0061000D03*
X0041000Y0061000D03*
X0031000Y0061000D03*
X0021000Y0061000D03*
X0011000Y0061000D03*
X0011000Y0091000D03*
X0021000Y0091000D03*
X0031000Y0091000D03*
X0041000Y0091000D03*
X0051000Y0091000D03*
X0061000Y0091000D03*
X0071000Y0091000D03*
X0081000Y0091000D03*
X0081000Y0101000D03*
X0071000Y0101000D03*
X0061000Y0101000D03*
X0051000Y0101000D03*
X0041000Y0101000D03*
X0031000Y0101000D03*
X0021000Y0101000D03*
X0011000Y0101000D03*
X0011000Y0111000D03*
X0021000Y0111000D03*
X0031000Y0111000D03*
X0041000Y0111000D03*
X0051000Y0111000D03*
X0061000Y0111000D03*
X0071000Y0111000D03*
X0081000Y0111000D03*
X0081000Y0121000D03*
X0071000Y0121000D03*
X0061000Y0121000D03*
X0051000Y0121000D03*
X0041000Y0121000D03*
X0031000Y0121000D03*
X0021000Y0121000D03*
X0011000Y0121000D03*
X0011000Y0131000D03*
X0021000Y0131000D03*
X0031000Y0131000D03*
X0041000Y0131000D03*
X0051000Y0131000D03*
X0061000Y0131000D03*
X0071000Y0131000D03*
X0081000Y0131000D03*
X0081000Y0141000D03*
X0071000Y0141000D03*
X0061000Y0141000D03*
X0051000Y0141000D03*
X0041000Y0141000D03*
X0031000Y0141000D03*
X0021000Y0141000D03*
X0011000Y0141000D03*
D17*
X0086000Y0023500D03*
X0096000Y0013500D03*
X0106000Y0023500D03*
X0128500Y0023500D03*
X0138500Y0013500D03*
X0148500Y0023500D03*
D18*
X0061000Y0041000D03*
X0051000Y0041000D03*
X0041000Y0041000D03*
X0031000Y0041000D03*
X0021000Y0041000D03*
X0011000Y0041000D03*
X0011000Y0051000D03*
X0021000Y0051000D03*
X0031000Y0051000D03*
X0041000Y0051000D03*
X0051000Y0051000D03*
X0061000Y0051000D03*
X0061000Y0151000D03*
X0051000Y0151000D03*
X0041000Y0151000D03*
X0031000Y0151000D03*
X0021000Y0151000D03*
X0011000Y0151000D03*
X0011000Y0161000D03*
X0021000Y0161000D03*
X0031000Y0161000D03*
X0041000Y0161000D03*
X0051000Y0161000D03*
X0061000Y0161000D03*
D19*
X0091000Y0141000D03*
X0091000Y0131000D03*
X0091000Y0121000D03*
X0091000Y0111000D03*
X0091000Y0101000D03*
X0091000Y0091000D03*
X0091000Y0081000D03*
X0091000Y0071000D03*
X0091000Y0061000D03*
D20*
X0226000Y0088500D03*
X0236000Y0088500D03*
X0231000Y0096000D03*
X0226000Y0108500D03*
X0236000Y0108500D03*
X0231000Y0116000D03*
D21*
X0241000Y0131000D02*
X0241000Y0140000D01*
X0334000Y0140000D01*
X0341500Y0132500D01*
X0341000Y0131000D01*
X0341000Y0118500D01*
X0343500Y0116000D01*
X0340500Y0118000D01*
X0338500Y0116000D01*
X0333500Y0116000D01*
X0343500Y0116000D02*
X0353500Y0106000D01*
X0363500Y0116000D01*
X0366000Y0116000D01*
X0366000Y0126000D02*
X0364000Y0126000D01*
X0356000Y0134000D01*
X0356000Y0151500D01*
X0347000Y0137000D02*
X0347000Y0166500D01*
X0339000Y0174500D01*
X0339000Y0183500D01*
X0338579Y0183500D01*
X0347000Y0137000D02*
X0341000Y0131000D01*
X0353500Y0106000D02*
X0363500Y0096000D01*
X0366000Y0096000D01*
X0366500Y0095500D01*
X0368500Y0095500D01*
X0383000Y0081000D01*
X0383000Y0059500D01*
X0267000Y0059500D01*
X0261000Y0065500D01*
X0218000Y0022500D01*
X0218000Y0020500D01*
X0211000Y0013500D01*
X0211000Y0023500D02*
X0241000Y0053500D01*
X0241000Y0071000D01*
X0261000Y0071000D02*
X0261000Y0065500D01*
X0260000Y0051500D02*
X0245000Y0036500D01*
X0245000Y0035500D01*
X0248500Y0030500D02*
X0241000Y0023000D01*
X0241000Y0021000D01*
X0248500Y0030500D02*
X0262000Y0030500D01*
X0271000Y0039500D01*
X0271000Y0041000D01*
X0260000Y0051500D02*
X0356000Y0051500D01*
X0364500Y0050500D02*
X0346000Y0032000D01*
X0320000Y0032000D01*
X0311000Y0023000D01*
X0311000Y0021000D01*
X0338579Y0018500D02*
X0339000Y0018500D01*
X0339000Y0020000D01*
X0347000Y0028000D01*
X0362000Y0028000D01*
X0383000Y0049000D01*
X0383000Y0059500D01*
X0366000Y0050500D02*
X0364500Y0050500D01*
X0241000Y0140000D02*
X0241000Y0158500D01*
X0211000Y0188500D01*
X0138500Y0179000D02*
X0138500Y0178579D01*
X0138500Y0179000D02*
X0120000Y0197500D01*
X0055000Y0197500D01*
X0049000Y0191500D01*
X0049000Y0191000D01*
X0046000Y0188000D01*
X0101000Y0046000D02*
X0101000Y0045000D01*
X0094500Y0038500D01*
X0094500Y0025500D01*
X0103000Y0017000D01*
X0132500Y0017000D01*
X0135500Y0020000D01*
X0142500Y0020000D01*
X0149000Y0013500D01*
X0181000Y0013500D01*
D22*
X0245000Y0035500D03*
X0358000Y0080000D03*
D23*
X0357000Y0080000D01*
X0321000Y0116000D01*
X0318500Y0116000D01*
X0291500Y0093000D02*
X0279000Y0093000D01*
X0250500Y0121500D01*
X0113000Y0121500D01*
X0105500Y0129000D01*
X0105500Y0159000D01*
X0098500Y0166000D01*
X0098500Y0168500D01*
X0098500Y0158500D02*
X0097500Y0158500D01*
X0091000Y0152000D01*
X0086000Y0152000D01*
X0056000Y0182000D01*
X0056000Y0189000D01*
X0088500Y0188500D02*
X0094000Y0194000D01*
X0100500Y0194000D01*
X0122500Y0172000D01*
X0200500Y0172000D01*
X0223500Y0149000D01*
X0223500Y0146000D01*
X0221000Y0143500D01*
X0221000Y0131000D01*
X0218500Y0116000D02*
X0213000Y0110500D01*
X0209000Y0110500D01*
X0208000Y0111500D01*
X0184000Y0111500D01*
X0178500Y0106000D01*
X0176000Y0106000D01*
X0135500Y0106000D01*
X0095500Y0066000D01*
X0088500Y0066000D01*
X0086000Y0063500D01*
X0086000Y0057500D01*
X0063500Y0035000D01*
X0052500Y0035000D01*
X0038500Y0021000D01*
X0036000Y0021000D01*
X0091000Y0024000D02*
X0091000Y0042500D01*
X0095000Y0046500D01*
X0095000Y0057500D01*
X0105500Y0068000D01*
X0105500Y0073000D01*
X0133000Y0100500D01*
X0178000Y0100500D01*
X0179000Y0101500D01*
X0203000Y0101500D01*
X0204000Y0100500D01*
X0208000Y0100500D01*
X0209000Y0101500D01*
X0267500Y0101500D01*
X0278000Y0091000D01*
X0290500Y0091000D01*
X0293500Y0088000D01*
X0293500Y0084000D01*
X0296500Y0081000D01*
X0303500Y0081000D01*
X0308500Y0086000D01*
X0298500Y0086000D02*
X0291500Y0093000D01*
X0288500Y0086000D02*
X0295500Y0079000D01*
X0336500Y0079000D01*
X0343500Y0086000D01*
X0355000Y0076000D02*
X0342500Y0063500D01*
X0279500Y0063500D01*
X0275500Y0067500D01*
X0275500Y0075500D01*
X0270500Y0080500D01*
X0234000Y0080500D01*
X0226000Y0088500D01*
X0236000Y0088500D02*
X0258500Y0088500D01*
X0261500Y0091500D01*
X0268000Y0091500D01*
X0273500Y0086000D01*
X0231000Y0096000D02*
X0218500Y0096000D01*
X0213000Y0090500D01*
X0209000Y0090500D01*
X0208000Y0091500D01*
X0184000Y0091500D01*
X0178500Y0086000D01*
X0176000Y0086000D01*
X0218500Y0116000D02*
X0231000Y0116000D01*
X0131000Y0051000D02*
X0126000Y0046000D01*
X0148500Y0023500D01*
X0126000Y0046000D02*
X0116000Y0036000D01*
X0101000Y0036000D01*
X0091000Y0024000D02*
X0096000Y0019000D01*
X0096000Y0013500D01*
X0355000Y0076000D02*
X0366000Y0076000D01*
M02*
