G75*
%MOIN*%
%OFA0B0*%
%FSLAX25Y25*%
%IPPOS*%
%LPD*%
%AMOC8*
5,1,8,0,0,1.08239X$1,22.5*
%
%ADD10C,0.09800*%
%ADD11C,0.08200*%
%ADD12C,0.07200*%
%ADD13C,0.06400*%
%ADD14C,0.07300*%
%ADD15R,0.07300X0.07300*%
%ADD16C,0.07200*%
%ADD17OC8,0.07400*%
%ADD18C,0.07800*%
%ADD19OC8,0.07200*%
%ADD20OC8,0.07800*%
%ADD21OC8,0.06400*%
D10*
X0016000Y0022000D03*
X0016000Y0180000D03*
X0370000Y0180000D03*
X0370000Y0022000D03*
D11*
X0366000Y0050500D03*
X0356000Y0051500D03*
X0376000Y0051500D03*
X0343500Y0086000D03*
X0333500Y0086000D03*
X0333500Y0116000D03*
X0343500Y0116000D03*
X0366000Y0150500D03*
X0356000Y0151500D03*
X0376000Y0151500D03*
X0273500Y0116000D03*
X0263500Y0116000D03*
X0241000Y0131000D03*
X0231000Y0131000D03*
X0221000Y0131000D03*
X0211000Y0131000D03*
X0201000Y0131000D03*
X0191000Y0131000D03*
X0181000Y0131000D03*
X0171000Y0131000D03*
X0161000Y0131000D03*
X0151000Y0131000D03*
X0141000Y0131000D03*
X0131000Y0131000D03*
X0121000Y0131000D03*
X0111000Y0131000D03*
X0121000Y0141000D03*
X0131000Y0141000D03*
X0141000Y0141000D03*
X0151000Y0141000D03*
X0161000Y0141000D03*
X0171000Y0141000D03*
X0181000Y0141000D03*
X0191000Y0141000D03*
X0201000Y0141000D03*
X0211000Y0141000D03*
X0211000Y0151000D03*
X0201000Y0151000D03*
X0191000Y0151000D03*
X0181000Y0151000D03*
X0171000Y0151000D03*
X0161000Y0151000D03*
X0151000Y0151000D03*
X0141000Y0151000D03*
X0131000Y0151000D03*
X0121000Y0151000D03*
X0098500Y0158500D03*
X0088500Y0158500D03*
X0088500Y0168500D03*
X0098500Y0168500D03*
X0098500Y0178500D03*
X0088500Y0178500D03*
X0088500Y0188500D03*
X0098500Y0188500D03*
X0066000Y0188000D03*
X0056000Y0189000D03*
X0046000Y0188000D03*
X0036000Y0189000D03*
X0181000Y0188500D03*
X0191000Y0188500D03*
X0201000Y0188500D03*
X0211000Y0188500D03*
X0211000Y0178500D03*
X0201000Y0178500D03*
X0191000Y0178500D03*
X0181000Y0178500D03*
X0181000Y0116000D03*
X0176000Y0106000D03*
X0181000Y0096000D03*
X0176000Y0086000D03*
X0171000Y0071000D03*
X0181000Y0071000D03*
X0191000Y0071000D03*
X0201000Y0071000D03*
X0211000Y0071000D03*
X0221000Y0071000D03*
X0231000Y0071000D03*
X0241000Y0071000D03*
X0263500Y0086000D03*
X0273500Y0086000D03*
X0211000Y0096000D03*
X0206000Y0086000D03*
X0206000Y0106000D03*
X0211000Y0116000D03*
X0161000Y0071000D03*
X0151000Y0071000D03*
X0141000Y0071000D03*
X0131000Y0071000D03*
X0121000Y0071000D03*
X0111000Y0071000D03*
X0121000Y0061000D03*
X0131000Y0061000D03*
X0141000Y0061000D03*
X0151000Y0061000D03*
X0161000Y0061000D03*
X0171000Y0061000D03*
X0181000Y0061000D03*
X0191000Y0061000D03*
X0201000Y0061000D03*
X0211000Y0061000D03*
X0211000Y0051000D03*
X0201000Y0051000D03*
X0191000Y0051000D03*
X0181000Y0051000D03*
X0171000Y0051000D03*
X0161000Y0051000D03*
X0151000Y0051000D03*
X0141000Y0051000D03*
X0131000Y0051000D03*
X0121000Y0051000D03*
X0066000Y0021000D03*
X0056000Y0021000D03*
X0046000Y0021000D03*
X0036000Y0021000D03*
X0181000Y0023500D03*
X0191000Y0023500D03*
X0201000Y0023500D03*
X0211000Y0023500D03*
X0211000Y0013500D03*
X0201000Y0013500D03*
X0191000Y0013500D03*
X0181000Y0013500D03*
D12*
X0231000Y0017800D02*
X0231000Y0024200D01*
X0241000Y0024200D02*
X0241000Y0017800D01*
X0251000Y0017800D02*
X0251000Y0024200D01*
X0261000Y0024200D02*
X0261000Y0017800D01*
X0271000Y0017800D02*
X0271000Y0024200D01*
X0281000Y0024200D02*
X0281000Y0017800D01*
X0291000Y0017800D02*
X0291000Y0024200D01*
X0301000Y0024200D02*
X0301000Y0017800D01*
X0311000Y0017800D02*
X0311000Y0024200D01*
X0321000Y0024200D02*
X0321000Y0017800D01*
X0362800Y0066000D02*
X0369200Y0066000D01*
X0369200Y0076000D02*
X0362800Y0076000D01*
X0362800Y0086000D02*
X0369200Y0086000D01*
X0369200Y0096000D02*
X0362800Y0096000D01*
X0362800Y0106000D02*
X0369200Y0106000D01*
X0369200Y0116000D02*
X0362800Y0116000D01*
X0362800Y0126000D02*
X0369200Y0126000D01*
X0369200Y0136000D02*
X0362800Y0136000D01*
X0321000Y0177800D02*
X0321000Y0184200D01*
X0311000Y0184200D02*
X0311000Y0177800D01*
X0301000Y0177800D02*
X0301000Y0184200D01*
X0291000Y0184200D02*
X0291000Y0177800D01*
X0281000Y0177800D02*
X0281000Y0184200D01*
X0271000Y0184200D02*
X0271000Y0177800D01*
X0261000Y0177800D02*
X0261000Y0184200D01*
X0251000Y0184200D02*
X0251000Y0177800D01*
X0241000Y0177800D02*
X0241000Y0184200D01*
X0231000Y0184200D02*
X0231000Y0177800D01*
D13*
X0261000Y0163800D02*
X0261000Y0158200D01*
X0271000Y0158200D02*
X0271000Y0163800D01*
X0281000Y0163800D02*
X0281000Y0158200D01*
X0291000Y0158200D02*
X0291000Y0163800D01*
X0301000Y0163800D02*
X0301000Y0158200D01*
X0311000Y0158200D02*
X0311000Y0163800D01*
X0321000Y0163800D02*
X0321000Y0158200D01*
X0331000Y0158200D02*
X0331000Y0163800D01*
X0341000Y0163800D02*
X0341000Y0158200D01*
X0341000Y0133800D02*
X0341000Y0128200D01*
X0331000Y0128200D02*
X0331000Y0133800D01*
X0321000Y0133800D02*
X0321000Y0128200D01*
X0311000Y0128200D02*
X0311000Y0133800D01*
X0301000Y0133800D02*
X0301000Y0128200D01*
X0291000Y0128200D02*
X0291000Y0133800D01*
X0281000Y0133800D02*
X0281000Y0128200D01*
X0271000Y0128200D02*
X0271000Y0133800D01*
X0261000Y0133800D02*
X0261000Y0128200D01*
X0261000Y0073800D02*
X0261000Y0068200D01*
X0271000Y0068200D02*
X0271000Y0073800D01*
X0281000Y0073800D02*
X0281000Y0068200D01*
X0291000Y0068200D02*
X0291000Y0073800D01*
X0301000Y0073800D02*
X0301000Y0068200D01*
X0311000Y0068200D02*
X0311000Y0073800D01*
X0321000Y0073800D02*
X0321000Y0068200D01*
X0331000Y0068200D02*
X0331000Y0073800D01*
X0341000Y0073800D02*
X0341000Y0068200D01*
X0341000Y0043800D02*
X0341000Y0038200D01*
X0331000Y0038200D02*
X0331000Y0043800D01*
X0321000Y0043800D02*
X0321000Y0038200D01*
X0311000Y0038200D02*
X0311000Y0043800D01*
X0301000Y0043800D02*
X0301000Y0038200D01*
X0291000Y0038200D02*
X0291000Y0043800D01*
X0281000Y0043800D02*
X0281000Y0038200D01*
X0271000Y0038200D02*
X0271000Y0043800D01*
X0261000Y0043800D02*
X0261000Y0038200D01*
D14*
X0338579Y0018500D03*
X0101000Y0036000D03*
X0086000Y0036000D03*
X0086000Y0046000D03*
X0101000Y0046000D03*
X0338579Y0183500D03*
X0138500Y0188421D03*
D15*
X0138500Y0178579D03*
X0348421Y0183500D03*
X0348421Y0018500D03*
D16*
X0318500Y0086000D03*
X0308500Y0086000D03*
X0298500Y0086000D03*
X0288500Y0086000D03*
X0288500Y0116000D03*
X0298500Y0116000D03*
X0308500Y0116000D03*
X0318500Y0116000D03*
D17*
X0081000Y0111000D03*
X0071000Y0111000D03*
X0061000Y0111000D03*
X0051000Y0111000D03*
X0041000Y0111000D03*
X0031000Y0111000D03*
X0021000Y0111000D03*
X0011000Y0111000D03*
X0011000Y0101000D03*
X0021000Y0101000D03*
X0031000Y0101000D03*
X0041000Y0101000D03*
X0051000Y0101000D03*
X0061000Y0101000D03*
X0071000Y0101000D03*
X0081000Y0101000D03*
X0081000Y0091000D03*
X0071000Y0091000D03*
X0061000Y0091000D03*
X0051000Y0091000D03*
X0041000Y0091000D03*
X0031000Y0091000D03*
X0021000Y0091000D03*
X0011000Y0091000D03*
X0011000Y0081000D03*
X0021000Y0081000D03*
X0031000Y0081000D03*
X0041000Y0081000D03*
X0051000Y0081000D03*
X0061000Y0081000D03*
X0071000Y0081000D03*
X0081000Y0081000D03*
X0081000Y0071000D03*
X0071000Y0071000D03*
X0061000Y0071000D03*
X0051000Y0071000D03*
X0041000Y0071000D03*
X0031000Y0071000D03*
X0021000Y0071000D03*
X0011000Y0071000D03*
X0011000Y0061000D03*
X0021000Y0061000D03*
X0031000Y0061000D03*
X0041000Y0061000D03*
X0051000Y0061000D03*
X0061000Y0061000D03*
X0071000Y0061000D03*
X0081000Y0061000D03*
X0081000Y0121000D03*
X0071000Y0121000D03*
X0061000Y0121000D03*
X0051000Y0121000D03*
X0041000Y0121000D03*
X0031000Y0121000D03*
X0021000Y0121000D03*
X0011000Y0121000D03*
X0011000Y0131000D03*
X0021000Y0131000D03*
X0031000Y0131000D03*
X0041000Y0131000D03*
X0051000Y0131000D03*
X0061000Y0131000D03*
X0071000Y0131000D03*
X0081000Y0131000D03*
X0081000Y0141000D03*
X0071000Y0141000D03*
X0061000Y0141000D03*
X0051000Y0141000D03*
X0041000Y0141000D03*
X0031000Y0141000D03*
X0021000Y0141000D03*
X0011000Y0141000D03*
D18*
X0086000Y0023500D03*
X0096000Y0013500D03*
X0106000Y0023500D03*
X0128500Y0023500D03*
X0138500Y0013500D03*
X0148500Y0023500D03*
D19*
X0061000Y0041000D03*
X0051000Y0041000D03*
X0041000Y0041000D03*
X0031000Y0041000D03*
X0021000Y0041000D03*
X0011000Y0041000D03*
X0011000Y0051000D03*
X0021000Y0051000D03*
X0031000Y0051000D03*
X0041000Y0051000D03*
X0051000Y0051000D03*
X0061000Y0051000D03*
X0061000Y0151000D03*
X0051000Y0151000D03*
X0041000Y0151000D03*
X0031000Y0151000D03*
X0021000Y0151000D03*
X0011000Y0151000D03*
X0011000Y0161000D03*
X0021000Y0161000D03*
X0031000Y0161000D03*
X0041000Y0161000D03*
X0051000Y0161000D03*
X0061000Y0161000D03*
D20*
X0091000Y0141000D03*
X0091000Y0131000D03*
X0091000Y0121000D03*
X0091000Y0111000D03*
X0091000Y0101000D03*
X0091000Y0091000D03*
X0091000Y0081000D03*
X0091000Y0071000D03*
X0091000Y0061000D03*
D21*
X0226000Y0088500D03*
X0236000Y0088500D03*
X0231000Y0096000D03*
X0226000Y0108500D03*
X0236000Y0108500D03*
X0231000Y0116000D03*
M02*
