%
M48
M72
T01C0.02000
T02C0.02756
T03C0.03200
T04C0.03543
T05C0.04000
T06C0.09000
%
T01
X245000Y35500
X358000Y80000
T02
X348421Y18500
X338579Y18500
X101000Y36000
X86000Y36000
X86000Y46000
X101000Y46000
X138500Y178579
X138500Y188421
X338579Y183500
X348421Y183500
T03
X341000Y161000
X331000Y161000
X321000Y161000
X311000Y161000
X301000Y161000
X291000Y161000
X281000Y161000
X271000Y161000
X261000Y161000
X261000Y131000
X271000Y131000
X281000Y131000
X291000Y131000
X301000Y131000
X311000Y131000
X321000Y131000
X331000Y131000
X341000Y131000
X318500Y116000
X308500Y116000
X298500Y116000
X288500Y116000
X236000Y108500
X226000Y108500
X231000Y116000
X231000Y96000
X226000Y88500
X236000Y88500
X261000Y71000
X271000Y71000
X281000Y71000
X291000Y71000
X301000Y71000
X311000Y71000
X321000Y71000
X331000Y71000
X341000Y71000
X318500Y86000
X308500Y86000
X298500Y86000
X288500Y86000
X291000Y41000
X301000Y41000
X311000Y41000
X321000Y41000
X331000Y41000
X341000Y41000
X281000Y41000
X271000Y41000
X261000Y41000
T04
X263500Y86000
X273500Y86000
X273500Y116000
X263500Y116000
X211000Y116000
X206000Y106000
X211000Y96000
X206000Y86000
X181000Y96000
X176000Y86000
X176000Y106000
X181000Y116000
X333500Y116000
X343500Y116000
X343500Y86000
X333500Y86000
X148500Y23500
X138500Y13500
X128500Y23500
X106000Y23500
X96000Y13500
X86000Y23500
T05
X66000Y21000
X56000Y21000
X46000Y21000
X36000Y21000
X31000Y41000
X41000Y41000
X51000Y41000
X61000Y41000
X61000Y51000
X51000Y51000
X41000Y51000
X31000Y51000
X21000Y51000
X11000Y51000
X11000Y41000
X21000Y41000
X21000Y61000
X11000Y61000
X11000Y71000
X21000Y71000
X31000Y71000
X41000Y71000
X51000Y71000
X61000Y71000
X71000Y71000
X81000Y71000
X91000Y71000
X91000Y61000
X81000Y61000
X71000Y61000
X61000Y61000
X51000Y61000
X41000Y61000
X31000Y61000
X31000Y81000
X41000Y81000
X51000Y81000
X61000Y81000
X71000Y81000
X81000Y81000
X91000Y81000
X91000Y91000
X81000Y91000
X71000Y91000
X61000Y91000
X51000Y91000
X41000Y91000
X31000Y91000
X21000Y91000
X11000Y91000
X11000Y81000
X21000Y81000
X21000Y101000
X11000Y101000
X11000Y111000
X21000Y111000
X31000Y111000
X41000Y111000
X51000Y111000
X61000Y111000
X71000Y111000
X81000Y111000
X91000Y111000
X91000Y101000
X81000Y101000
X71000Y101000
X61000Y101000
X51000Y101000
X41000Y101000
X31000Y101000
X31000Y121000
X41000Y121000
X51000Y121000
X61000Y121000
X71000Y121000
X81000Y121000
X91000Y121000
X91000Y131000
X81000Y131000
X71000Y131000
X61000Y131000
X51000Y131000
X41000Y131000
X31000Y131000
X21000Y131000
X11000Y131000
X11000Y121000
X21000Y121000
X21000Y141000
X11000Y141000
X11000Y151000
X21000Y151000
X31000Y151000
X41000Y151000
X51000Y151000
X61000Y151000
X61000Y141000
X51000Y141000
X41000Y141000
X31000Y141000
X31000Y161000
X41000Y161000
X51000Y161000
X61000Y161000
X88500Y158500
X98500Y158500
X98500Y168500
X88500Y168500
X88500Y178500
X98500Y178500
X98500Y188500
X88500Y188500
X66000Y188000
X56000Y189000
X46000Y188000
X36000Y189000
X21000Y161000
X11000Y161000
X71000Y141000
X81000Y141000
X91000Y141000
X111000Y131000
X121000Y131000
X131000Y131000
X141000Y131000
X151000Y131000
X161000Y131000
X171000Y131000
X181000Y131000
X191000Y131000
X201000Y131000
X211000Y131000
X221000Y131000
X231000Y131000
X241000Y131000
X211000Y141000
X201000Y141000
X191000Y141000
X181000Y141000
X171000Y141000
X161000Y141000
X151000Y141000
X141000Y141000
X131000Y141000
X121000Y141000
X121000Y151000
X131000Y151000
X141000Y151000
X151000Y151000
X161000Y151000
X171000Y151000
X181000Y151000
X191000Y151000
X201000Y151000
X211000Y151000
X211000Y178500
X201000Y178500
X191000Y178500
X181000Y178500
X181000Y188500
X191000Y188500
X201000Y188500
X211000Y188500
X231000Y181000
X241000Y181000
X251000Y181000
X261000Y181000
X271000Y181000
X281000Y181000
X291000Y181000
X301000Y181000
X311000Y181000
X321000Y181000
X356000Y151500
X366000Y150500
X376000Y151500
X366000Y136000
X366000Y126000
X366000Y116000
X366000Y106000
X366000Y96000
X366000Y86000
X366000Y76000
X366000Y66000
X366000Y50500
X356000Y51500
X376000Y51500
X321000Y21000
X311000Y21000
X301000Y21000
X291000Y21000
X281000Y21000
X271000Y21000
X261000Y21000
X251000Y21000
X241000Y21000
X231000Y21000
X211000Y23500
X201000Y23500
X191000Y23500
X181000Y23500
X181000Y13500
X191000Y13500
X201000Y13500
X211000Y13500
X211000Y51000
X201000Y51000
X191000Y51000
X181000Y51000
X171000Y51000
X161000Y51000
X151000Y51000
X141000Y51000
X131000Y51000
X121000Y51000
X121000Y61000
X131000Y61000
X141000Y61000
X151000Y61000
X161000Y61000
X171000Y61000
X181000Y61000
X191000Y61000
X201000Y61000
X211000Y61000
X211000Y71000
X201000Y71000
X191000Y71000
X181000Y71000
X171000Y71000
X161000Y71000
X151000Y71000
X141000Y71000
X131000Y71000
X121000Y71000
X111000Y71000
X221000Y71000
X231000Y71000
X241000Y71000
T06
X16000Y22000
X16000Y180000
X370000Y180000
X370000Y22000
M30
